<svg width="150" height="30" viewBox="0 0 150 30" fill="none" xmlns="http://www.w3.org/2000/svg">
<g clip-path="url(#clip0_317_694)">
<path d="M18.8254 21.8101C18.8254 21.8101 17.48 21.5208 15.4052 21.8101C13.3305 22.0993 13.2424 22.137 12.1108 22.1621C12.0479 22.1621 11.9976 22.1873 11.9473 22.1999C11.897 22.1873 11.8467 22.1747 11.7838 22.1621C10.6396 22.137 10.5515 22.0993 8.48937 21.8101C6.42719 21.5208 5.06918 21.8101 5.06918 21.8101L0.944824 22.3382C1.38492 23.0046 1.35977 23.7716 3.86205 23.3944C6.3769 23.0172 6.95531 23.0423 8.56482 23.4196C9.75937 23.6962 11.2431 23.6836 11.9347 23.6459C12.6263 23.671 14.1226 23.6962 15.3046 23.4196C16.9141 23.0423 17.4925 23.0046 20.0074 23.3944C22.5222 23.7716 22.4845 23.0172 22.9246 22.3382L18.8254 21.8101Z" fill="#020303"/>
<path d="M17.8822 24.677C17.8822 24.677 16.7379 24.3878 14.9775 24.677C13.2172 24.9662 13.1417 25.0039 12.1735 25.0291C12.1232 25.0291 12.0855 25.0542 12.0352 25.0668C11.9849 25.0542 11.9472 25.0417 11.8969 25.0291C10.9286 25.0039 10.8532 24.9662 9.0928 24.677C7.3324 24.3878 6.18815 24.677 6.18815 24.677L2.67993 25.2051C3.05716 25.8715 3.03201 26.6386 5.16963 26.2614C7.30726 25.8841 7.79765 25.9093 9.16824 26.2865C9.34428 26.3368 9.54547 26.362 9.73408 26.3997C9.72151 26.3997 9.68378 26.3997 9.68378 26.3997C9.68378 26.3997 11.8214 26.9278 14.4746 26.3997C14.8015 26.3368 14.9775 26.2865 15.0278 26.2488C16.2978 25.9093 16.8385 25.8841 18.9007 26.2488C21.0383 26.626 21.0132 25.8715 21.3904 25.1925L17.8822 24.677Z" fill="#020303"/>
<path d="M5.28296 27.9463C5.28296 27.9463 11.6078 32.7497 18.7123 27.9463C18.7123 27.9463 18.0961 26.9655 15.9836 27.9463C13.8837 28.9271 9.24384 28.4619 8.02414 27.8709C6.80444 27.2799 6.2386 27.4811 5.28296 27.9463Z" fill="#020303"/>
<path d="M13.4183 19.1694C13.4183 19.1066 13.4183 19.0563 13.4057 18.9934C13.2799 18.2515 13.2799 17.5096 13.2674 16.7678C13.2674 16.554 13.2548 16.3402 13.3931 16.139C13.7452 15.6486 14.223 15.284 14.726 14.9445C14.8769 14.8439 15.1409 14.9193 15.1158 15.0702C15.0655 15.372 15.5182 15.5858 15.2415 15.9127C15.1786 15.9882 15.3044 16.0887 15.405 16.1265C15.5182 16.1642 15.6439 16.1642 15.7696 16.1516C15.8577 16.139 15.9331 16.1516 16.0211 16.1768C16.3481 16.2899 16.5492 16.2271 16.7504 15.963C16.8259 15.8624 16.9265 15.8247 17.0019 15.9253C17.1277 16.0762 17.2911 16.139 17.4797 16.1893C17.5929 16.2145 17.6432 16.4157 17.5678 16.4785C17.3791 16.6546 17.3917 16.7803 17.6181 16.9312C17.7061 16.8683 17.5929 16.73 17.6935 16.6672C17.8067 16.7426 17.8444 16.9564 18.0079 16.8809C18.1587 16.8055 18.0456 16.642 17.9953 16.5163C17.9827 16.4911 17.9701 16.4785 17.9576 16.4534C17.945 16.4157 17.9576 16.3654 17.9953 16.3402C18.033 16.3277 18.0456 16.3528 18.0707 16.378C18.2593 16.5917 18.2845 16.4031 18.3222 16.2899C18.3474 16.2271 18.2845 16.1516 18.3599 16.0636C18.3851 16.1516 18.4102 16.2145 18.4354 16.2774C18.4983 16.3905 18.5108 16.5917 18.6869 16.554C18.8126 16.5288 18.7875 16.3402 18.7875 16.2271C18.7875 16.0007 18.624 15.8121 18.4354 15.8876C18.2593 15.963 18.209 15.8876 18.1713 15.7618C18.1084 15.5732 17.9953 15.548 17.7815 15.5355C17.6558 15.5355 17.5929 15.2588 17.3791 15.284C17.3666 15.284 17.3666 15.284 17.354 15.284C16.8385 15.372 16.3732 15.2588 15.9205 15.0199C15.7948 14.9445 15.6565 14.8942 15.5182 14.8187C15.4427 14.781 15.3295 14.7936 15.3295 14.6679C15.3295 14.5295 15.5056 14.5924 15.5307 14.5044C15.669 14.5924 15.908 14.2906 15.996 14.605C16.0211 14.7307 16.0714 14.8439 16.2349 14.8062C16.3858 14.7685 16.3984 14.6553 16.3858 14.5295C16.3732 14.4415 16.3606 14.3535 16.4864 14.3409C16.587 14.3284 16.7253 14.2529 16.763 14.4415C16.7756 14.4918 16.8259 14.5295 16.8762 14.517C16.939 14.5044 16.9516 14.4541 16.9642 14.4038C16.9768 14.3661 16.9516 14.3032 17.0145 14.278C17.4294 14.4667 17.8947 14.5421 18.2971 14.7433C18.4731 14.8313 18.5108 14.9068 18.448 15.0702C18.3725 15.0828 18.3222 15.0074 18.2845 15.0074C18.1462 15.0074 17.9827 14.9319 17.8821 15.0325C17.8067 15.1205 17.8947 15.2463 17.9324 15.3343C18.0079 15.5103 18.1587 15.46 18.2845 15.3972C18.4228 15.3217 18.536 15.2463 18.6491 15.4097C18.6617 15.4349 18.712 15.4475 18.7497 15.4475C18.9132 15.4349 18.9886 15.4978 19.0138 15.6486C19.0389 15.7367 19.1144 15.7995 19.2401 15.7744C19.303 15.7618 19.3533 15.7367 19.3659 15.6612C19.3784 15.5606 19.3156 15.5103 19.2653 15.4349C19.2401 15.3972 19.1521 15.3469 19.2527 15.2966C19.3156 15.2714 19.3784 15.2714 19.4036 15.3343C19.4413 15.4097 19.4916 15.4726 19.5671 15.5229C19.806 15.6361 19.9694 15.9127 20.3089 15.7618C20.3215 15.7618 20.3592 15.787 20.3718 15.7995C20.4976 15.9127 20.6359 15.875 20.7616 15.7995C20.8748 15.7241 20.9251 15.7241 20.988 15.8624C21.0382 15.963 21.1766 16.1265 21.2897 16.0007C21.428 15.8373 21.5789 15.6486 21.6041 15.4223C21.6167 15.3091 21.4909 15.2588 21.3903 15.2337C21.2772 15.2211 21.2772 15.2966 21.2646 15.3846C21.252 15.5355 21.1766 15.5606 21.0634 15.4726C20.9628 15.3972 20.8874 15.3343 20.8748 15.196C20.8622 15.0954 20.8748 14.9571 20.7365 14.8816C20.6862 14.8565 20.6484 14.8188 20.5856 14.8565C20.5353 14.8942 20.573 14.9319 20.573 14.9696C20.6107 15.1331 20.661 15.2966 20.8119 15.4097C20.5227 15.5732 20.5353 15.5732 20.5101 15.2714C20.4976 15.1205 20.4473 14.9822 20.2335 15.0199C20.158 15.0325 20.0826 15.0325 19.9946 15.0199C19.9191 15.0074 19.8563 15.0325 19.8814 15.108C19.9066 15.1834 19.894 15.2337 19.8185 15.2714C19.7808 15.284 19.7557 15.2714 19.7305 15.2463C19.6551 15.1708 19.7179 15.1205 19.7682 15.0451C19.8688 14.869 19.7431 14.6553 19.5671 14.7056C19.3659 14.7685 19.2653 14.693 19.1521 14.5547C19.0012 14.3912 18.7749 14.4164 18.5863 14.4038C18.4605 14.3912 18.6114 14.5673 18.4983 14.6301C18.1713 14.4667 17.8192 14.3284 17.4294 14.2278C17.5175 14.1272 17.6055 14.1523 17.6809 14.1523C18.0204 14.1523 18.3725 14.1397 18.712 14.1397C18.9006 14.1397 19.0515 14.0266 19.2779 14.0894C19.6551 14.19 19.9694 14.3912 20.2838 14.5673C20.5856 14.7433 20.8496 14.5798 21.1388 14.6679C20.7365 14.517 20.9251 14.2026 20.8874 13.9637C21.2017 14.3032 21.1514 14.7684 21.3652 15.2211C21.4532 14.9068 21.6167 14.8816 21.8556 14.9445C22.019 14.9822 22.2077 14.9445 22.3837 14.9193C22.4843 14.9068 22.6226 14.8565 22.5849 14.7433C22.5597 14.6553 22.4466 14.5673 22.3208 14.5673C21.9059 14.5673 21.9059 14.5798 21.9562 14.2278C21.9562 14.1775 21.931 14.1146 22.0065 14.102C22.0568 14.0894 22.0819 14.1397 22.0945 14.1775C22.1574 14.3158 22.2957 14.3912 22.4088 14.4667C22.5723 14.5673 22.7483 14.5295 22.9118 14.4415C23.0376 14.3786 22.937 14.2529 22.9244 14.1775C22.8741 13.9511 22.6729 14.1146 22.5346 14.0769C22.5597 14.0391 22.5723 14.0266 22.5975 14.0014C22.6477 13.9511 22.7861 13.9511 22.7483 13.838C22.7106 13.7248 22.5975 13.7374 22.4969 13.7374C22.3837 13.7499 22.2705 13.7499 22.1574 13.7625C22.1196 13.7625 22.0568 13.7877 22.0442 13.7248C22.0316 13.6619 22.0819 13.6368 22.1322 13.6242C22.1574 13.6242 22.1825 13.6242 22.2077 13.6116C22.258 13.599 22.346 13.6242 22.346 13.5362C22.346 13.4482 22.2579 13.4482 22.1825 13.4356C22.1448 13.4356 22.1071 13.4356 22.0819 13.423C21.9939 13.3979 21.8807 13.3727 21.8681 13.2721C21.8556 13.1715 21.9687 13.1464 22.0568 13.1212C22.2076 13.0584 22.3711 13.0081 22.5094 12.9075C22.61 12.832 22.698 12.7691 22.8364 12.832C22.9621 12.8823 23.0124 12.7943 22.9998 12.6811C22.9621 12.4548 22.9244 12.241 22.6729 12.1279C22.4969 12.0524 22.6729 11.8889 22.5723 11.7884C22.6729 11.7381 22.6226 11.562 22.8112 11.562C23.0878 11.562 23.1381 11.4866 23.0376 11.2477C22.9495 11.059 23.0627 10.9459 23.1633 10.8704C23.2765 10.7824 23.4525 10.7824 23.5782 10.6944C23.6285 10.6567 23.8046 10.7573 23.8172 10.5938C23.8297 10.4806 23.8297 10.3549 23.792 10.2543C23.7543 10.1663 23.616 10.0783 23.5657 10.2292C23.5028 10.4052 23.4022 10.3046 23.3142 10.3172C23.2262 10.3172 23.2639 10.2543 23.2765 10.204C23.3016 10.116 23.3142 10.028 23.4651 10.0657C23.616 10.1034 23.6411 10.028 23.6034 9.88964C23.5531 9.67588 23.4651 9.55014 23.201 9.55014C23.0627 9.55014 22.9244 9.49984 22.7986 9.43697C22.6855 9.38667 22.3082 9.4747 22.5597 9.14776C22.5597 9.13519 22.5472 9.12262 22.5472 9.09747C22.4843 8.95915 22.4466 8.82083 22.346 8.69509C22.3208 8.65737 22.2077 8.63222 22.2831 8.55677C22.3585 8.48133 22.3837 8.56935 22.4214 8.60707C22.4717 8.66994 22.5346 8.68252 22.61 8.65737C22.7106 8.61965 22.6855 8.53163 22.6855 8.46875C22.6855 8.34301 22.6729 8.20469 22.5723 8.14182C22.4591 8.06638 22.2831 8.1041 22.1574 8.0035C22.019 8.16697 21.8807 7.99093 21.7298 7.99093C21.8556 7.9532 21.8807 7.80232 21.9939 7.75202C22.1322 7.67658 22.1825 7.50053 22.1574 7.36221C22.1448 7.23647 21.9939 7.2742 21.9059 7.24905C21.7424 7.19875 21.6544 7.04786 21.6921 6.8844C21.7424 6.68321 21.667 6.63292 21.4783 6.68321C21.3023 6.73351 21.1263 6.77123 20.9502 6.65806C20.988 6.58261 21.0508 6.58262 21.1011 6.58262C21.3275 6.5449 21.2897 6.3437 21.3149 6.20539C21.34 6.0545 21.1891 6.0545 21.0634 6.07965C20.8622 6.11737 20.8748 5.97905 20.8999 5.86589C20.9251 5.75272 20.9628 5.63954 21.0005 5.52638C21.076 5.30004 20.9377 5.11143 20.6736 5.13658C20.4598 5.14915 20.2586 5.23717 20.1706 4.92282C20.1455 4.8348 20.0449 4.77193 20.1078 4.65876C20.1329 4.60846 20.1706 4.57073 20.2335 4.58331C20.3592 4.62103 20.3089 4.7342 20.3467 4.82222C20.3718 4.89767 20.3718 5.01083 20.4976 4.98568C20.5981 4.97311 20.5981 4.85995 20.5856 4.79708C20.5227 4.4953 20.5353 4.16836 20.2335 3.96717C20.1958 3.94202 20.1832 3.91688 20.1958 3.87915C20.2712 3.58995 20.0575 3.53965 19.8311 3.47678C19.6802 3.43906 19.5922 3.21272 19.7054 3.1247C19.9317 2.93609 20.07 2.7852 19.6299 2.72233C19.5796 2.70975 19.5545 2.60915 19.4916 2.64687C19.4162 2.6846 19.4413 2.78519 19.4413 2.84807C19.4413 2.97381 19.5419 3.08697 19.4539 3.23786C19.303 2.96123 19.2024 2.69717 19.0012 2.47083C18.888 2.33252 18.8252 2.33252 18.7749 2.48341C18.7246 2.6343 18.6366 2.584 18.5611 2.52113C18.4982 2.47084 18.448 2.39539 18.3977 2.33252C18.3096 2.23192 18.2468 2.23193 18.1839 2.35767C18.1587 2.40797 18.1965 2.47084 18.121 2.50857C17.9827 2.45827 17.9953 2.26965 17.8192 2.19421C17.7815 2.44569 17.5678 2.584 17.5426 2.83549C17.4672 2.78519 17.3791 2.72232 17.3037 2.83549C17.266 2.87321 17.2157 2.89837 17.1654 2.86064C17.1277 2.83549 17.1277 2.78519 17.1528 2.74747C17.2283 2.6343 17.2157 2.52113 17.1654 2.39539C17.1277 2.2948 17.1402 2.18163 17.2408 2.08104C17.3288 2.00559 17.442 1.82956 17.4043 1.79183C17.2911 1.62837 17.4294 1.56549 17.5049 1.4649C17.5678 1.38946 17.6181 1.28886 17.4797 1.23856C17.1905 1.11282 16.8887 1.22599 16.7379 1.50262C16.6624 1.62836 16.587 1.76668 16.3858 1.67866C16.4612 1.55292 16.4864 1.43975 16.3732 1.31401C16.3229 1.25114 16.3732 1.20084 16.4109 1.16312C16.4361 1.13797 16.4738 1.10024 16.5241 1.12539C16.5744 1.16311 16.5492 1.21341 16.5618 1.26371C16.5744 1.31401 16.5367 1.37688 16.6121 1.43975C16.7504 1.35173 16.9013 1.20084 16.8636 1.07509C16.8133 0.936776 16.5995 0.899058 16.4109 0.87391C16.5367 0.647573 16.4612 0.584697 15.9834 0.446381C15.8702 0.408658 15.7948 0.458956 15.7193 0.496679C15.5056 0.597273 15.581 0.811034 15.5433 0.987073C15.2918 0.911628 15.0529 0.836188 14.8391 1.01223C14.8014 1.03738 14.7637 1.0751 14.726 1.0248C14.5499 0.823616 14.5122 1.01223 14.4745 1.11282C14.4242 1.26371 14.399 1.37688 14.2104 1.20084C14.1224 1.11282 13.9715 1.15055 13.9212 1.28886C13.8081 1.55292 13.8081 1.55292 13.5314 1.5655C13.5691 1.49005 13.5691 1.40203 13.6446 1.33916C13.7075 1.28886 13.7326 1.22599 13.6823 1.16312C13.6194 1.0751 13.544 1.15055 13.4686 1.16312C13.3428 1.1757 13.3554 1.35173 13.1668 1.35173C13.3051 1.15054 13.2548 0.974504 13.2045 0.785891C13.1542 0.622425 12.9907 0.597277 12.9153 0.471534C12.865 0.383515 12.8398 0.194898 12.7015 0.232621C12.5758 0.270343 12.6009 0.446388 12.6387 0.572131C12.6387 0.597279 12.6387 0.622425 12.6387 0.647573C12.6387 0.899058 12.6387 0.899058 12.3494 0.87391C12.3369 0.798464 12.4123 0.760745 12.45 0.710448C12.5129 0.635003 12.5381 0.559557 12.4878 0.484111C12.4249 0.408666 12.3494 0.446383 12.274 0.458957C11.9345 0.484106 12.0351 0.735592 12.0099 0.911631C11.9974 0.987077 12.0477 1.10024 11.9471 1.12539C11.8213 1.15054 11.7459 1.01223 11.7333 0.936785C11.7333 0.647577 11.595 0.773317 11.4567 0.836189C11.4315 0.848763 11.3938 0.861332 11.3435 0.811035C11.5321 0.64757 11.3687 0.484108 11.3058 0.333217C11.2681 0.245197 11.18 0.232623 11.1297 0.333217C11.0794 0.446385 11.0417 0.421238 10.9411 0.383515C10.8154 0.333218 10.6645 0.333218 10.5262 0.295496C10.4256 0.270347 10.3124 0.295498 10.2621 0.169755C10.2118 0.0188643 10.0484 -0.0314362 9.94777 0.0188608C9.75915 0.0943063 9.49509 -0.0062915 9.3945 0.270342C9.33162 0.433807 9.26875 0.609847 9.06756 0.723015C8.94182 0.798461 8.71549 0.823614 8.67776 1.01223C8.64004 1.21342 8.53945 1.25114 8.36341 1.15054C8.27539 1.10025 8.18737 1.08767 8.18737 1.20084C8.17479 1.47748 7.87301 1.65351 7.93588 1.9553C7.75984 1.74153 7.59638 1.69124 7.40776 1.91757C7.31975 2.01817 7.20658 1.96786 7.11856 1.93014C6.87965 1.81697 6.81678 1.95529 6.76648 2.13133C6.74133 2.2445 6.79163 2.3451 6.81678 2.44569C6.84192 2.54628 6.84193 2.6343 6.72876 2.70975C6.71618 2.64688 6.71618 2.62173 6.71618 2.59658C6.69103 2.47084 6.7539 2.28223 6.55272 2.26965C6.30123 2.25708 6.0246 2.45826 6.06232 2.62173C6.12519 2.93609 5.96173 3.09955 5.68509 3.21272C5.5845 3.25044 5.5342 3.33846 5.45876 3.40134C5.245 3.175 5.245 3.175 5.15698 3.43906C5.13183 3.52708 5.06895 3.55222 4.98094 3.55222C4.54084 3.56479 4.54084 3.5648 4.44024 3.97975C4.4151 4.08034 4.37737 4.19351 4.4151 4.29411C4.44024 4.36955 4.45282 4.47014 4.30193 4.44499C4.25163 4.43242 4.20133 4.44499 4.18876 4.49529C4.10074 4.79707 3.81153 4.83479 3.57262 4.94796C3.50975 4.89767 3.56005 4.74678 3.4343 4.77192C3.33371 4.7845 3.37143 4.89767 3.37143 4.96054C3.37143 4.99826 3.37143 5.04856 3.29599 5.03598C3.27084 4.87252 3.27084 4.6839 3.05708 4.63361C2.81817 4.57074 2.88104 4.82222 2.79302 4.89766C2.79302 4.89766 2.78044 4.91024 2.78044 4.92282C2.47866 5.19945 2.30262 5.5138 2.41579 5.92875C2.44094 6.04192 2.40322 6.11737 2.23975 6.04192C2.13916 5.99163 2.03856 6.09222 1.98827 6.18024C1.91282 6.30598 1.96312 6.4443 2.02599 6.55746C2.07629 6.64548 2.20203 6.60776 2.2649 6.57004C2.46609 6.4443 2.52896 6.54489 2.6044 6.69578C2.61698 6.72093 2.64213 6.75866 2.66728 6.77123C2.76787 6.82153 2.81816 6.89698 2.78044 6.99757C2.74272 7.11074 2.61698 7.08559 2.52896 7.08559C2.23975 7.04787 1.98827 7.12331 1.73678 7.22391C1.63619 7.26163 1.53559 7.29935 1.56074 7.43767C1.58589 7.56341 1.56074 7.72687 1.68648 7.77717C1.81223 7.84004 1.90025 7.70173 1.98827 7.61371C2.25233 7.34965 2.25232 7.33708 2.50381 7.53826C2.6044 7.61371 2.6547 7.73944 2.52896 7.81489C2.39064 7.89033 2.44094 7.99093 2.42837 8.09152C2.41579 8.17954 2.49124 8.24242 2.45351 8.33044C2.34035 8.55677 2.42836 8.72024 2.705 8.80825C2.59183 8.84598 2.51638 8.90885 2.41579 8.83341C2.34035 8.77054 2.23975 8.79568 2.1643 8.84598C1.96312 8.99687 1.62361 8.98429 1.57332 9.29865C1.57332 9.31122 1.49787 9.3238 1.44757 9.3238C1.22124 9.36153 1.12064 9.51241 1.18352 9.7136C1.22124 9.8142 1.24639 9.91479 1.28411 10.028C1.29668 10.0908 1.30926 10.1537 1.23381 10.1789C1.17094 10.204 1.14579 10.1411 1.12064 10.1034C1.09549 10.0657 1.08292 10.028 1.03262 10.0405C0.982326 10.0531 0.944604 10.1034 0.957178 10.1537C0.957178 10.2166 0.969751 10.292 0.994899 10.3423C1.09549 10.5561 1.34698 10.6944 1.3344 10.9584C1.3344 10.9836 1.3847 11.0465 1.42242 11.0465C1.61104 11.059 1.59847 11.1974 1.61104 11.3105C1.62361 11.3734 1.66134 11.4363 1.68648 11.4866C1.69906 11.5243 1.76193 11.5494 1.72421 11.5872C1.69906 11.6123 1.63619 11.6375 1.61104 11.6249C1.34698 11.4866 1.30926 11.6626 1.27153 11.8387C1.23381 11.9895 1.17094 11.977 1.0955 11.8638C1.02005 11.7632 0.969752 11.8009 0.919455 11.8764C0.856583 11.9518 0.793712 12.0147 0.793712 12.1153C0.793712 12.2033 0.793713 12.241 0.655397 12.2285C0.51708 12.2159 0.303318 12.2536 0.328466 12.4925C0.353615 12.7063 0.49193 12.7691 0.705692 12.7566C0.743415 12.7566 0.781138 12.744 0.806286 12.744C0.869158 12.7314 0.944605 12.6686 0.982327 12.7691C1.00748 12.8446 0.957177 12.8949 0.894306 12.9326C0.743415 13.0206 0.592525 13.1212 0.42906 13.1967C0.215298 13.2973 0.303318 13.4482 0.341041 13.5865C0.391338 13.7625 0.529653 13.6871 0.605099 13.6242C0.718267 13.5362 0.768565 13.6619 0.869159 13.6493C0.705694 13.8254 0.705692 13.9386 0.90688 14.0517C1.09549 14.1649 1.29668 14.2152 1.51045 14.2026C1.62361 14.2026 1.79965 14.2152 1.78708 13.9888C1.7745 13.8757 2.00084 13.8128 2.08886 13.926C2.18945 14.0517 2.3152 14.0894 2.45351 14.0894C2.705 14.0894 2.69242 14.2655 2.62955 14.3786C2.55411 14.517 2.52896 14.6553 2.54153 14.8062C2.54153 14.9571 2.44094 15.0325 2.30262 14.9948C2.17688 14.9571 2.1643 14.9822 2.15173 15.0954C2.12658 15.5229 2.18945 15.5732 2.6547 15.5858C2.90619 15.5858 3.1451 15.5858 3.17025 15.9379C3.19539 16.2019 3.77381 16.3151 3.94985 16.0887C4.07559 15.9379 4.25163 15.9001 4.40252 15.7995C4.50311 15.9253 4.55341 16.0762 4.57856 16.2145C4.59113 16.2774 4.62886 16.3277 4.7043 16.3277C4.77975 16.3402 4.81747 16.2899 4.84262 16.2271C4.86777 16.139 4.94321 16.051 4.91806 15.9379C4.89292 15.8247 4.95579 15.7492 5.05638 15.6864C5.10668 15.8624 5.16955 15.9882 5.38331 15.9379C5.44618 15.9253 5.48391 15.9504 5.52163 15.9881C5.65994 16.139 5.69767 16.0259 5.73539 15.9127C5.76054 15.8373 5.76054 15.6864 5.84856 15.6864C6.0246 15.6864 6.18806 15.6989 6.3641 15.6864C6.42697 15.6864 6.4647 15.7115 6.47727 15.7744C6.48985 15.8373 6.45212 15.875 6.40183 15.8876C6.33896 15.9001 6.26351 15.9127 6.18806 15.9001C6.04975 15.8876 5.99945 15.9379 6.0246 16.051C6.03717 16.139 6.04975 16.2396 6.0749 16.3277C6.12519 16.5163 6.28866 16.6043 6.45212 16.4911C6.79163 16.2648 7.11856 16.0007 7.45806 15.7492C7.45806 15.963 7.47064 16.1893 7.57123 16.4157C7.60895 16.4911 7.60895 16.5917 7.70955 16.6169C7.79757 16.6294 7.79757 16.5163 7.82271 16.466C7.88559 16.3528 7.97361 16.378 8.0742 16.378C8.19994 16.378 8.16222 16.466 8.18737 16.5414C8.21252 16.6672 8.16222 16.8683 8.31311 16.8935C8.48915 16.9186 8.47658 16.6923 8.55202 16.5791C8.62747 16.4534 8.65262 16.2522 8.9041 16.3402C8.80351 16.5037 8.5646 16.5791 8.60232 16.8181C8.62747 16.9312 8.57717 17.1073 8.71549 17.1198C8.86638 17.145 8.9041 16.9564 8.91668 16.8432C8.94182 16.6169 9.09272 16.5414 9.2939 16.5288C9.50767 16.5163 9.67113 16.466 9.734 16.2396C9.93519 16.5414 9.98548 16.5414 10.1741 16.2648C10.237 16.1642 10.2495 16.0636 10.2244 15.9504C10.2118 15.8624 10.1364 15.7744 10.2244 15.6738C10.3376 15.7744 10.2621 16.0133 10.413 15.9881C10.5262 15.9756 10.5639 15.7492 10.5262 15.6109C10.4507 15.3469 10.6519 15.2714 10.8154 15.1708C10.9663 15.0702 11.1297 15.0702 11.3058 15.1708C11.6453 15.372 11.7207 15.6864 11.7333 16.0259C11.7333 16.1516 11.7333 16.2648 11.7585 16.3905C11.8465 16.818 11.9093 17.2456 11.859 17.6731C11.8339 17.8869 11.8339 18.1006 11.859 18.327C11.8842 18.5659 11.8339 18.7796 11.7207 18.9808C11.7082 19.0185 11.6956 19.0563 11.6956 19.094H0.00153539C0.00153539 19.094 -0.0864839 20.54 1.07035 20.54C2.22718 20.54 22.8489 20.54 22.8489 20.54C22.8489 20.54 23.968 20.4772 23.968 19.094H13.4183V19.1694ZM15.6313 15.0828C15.7068 15.1331 15.8325 15.1331 15.8325 15.2588C15.8325 15.2966 15.8199 15.372 15.7948 15.3594C15.7068 15.3091 15.581 15.284 15.5559 15.1583C15.5433 15.1331 15.5684 15.0954 15.6313 15.0828ZM11.7082 9.19806C11.7333 9.36153 11.7585 9.47469 11.771 9.57528C11.7836 9.61301 11.7836 9.66331 11.7333 9.67588C11.6956 9.68846 11.6201 9.67588 11.6076 9.6633C11.5573 9.56271 11.507 9.44955 11.507 9.33638C11.507 9.22321 11.6453 9.26093 11.7082 9.19806ZM11.6956 8.94657C11.7459 8.38073 11.9471 7.85262 12.0351 7.29935C12.0225 7.86519 12.0602 8.4436 11.6956 8.94657ZM11.5824 10.1789C11.8088 10.0783 11.8465 10.1663 11.8842 10.3675C11.9722 10.8453 12.0728 11.3231 12.1986 11.8009C12.2866 12.1404 12.2111 12.5302 12.2111 12.9326C11.7836 12.4171 11.419 11.9267 11.2932 11.3105C11.2178 10.971 11.0543 10.6315 11.1926 10.2669C11.2303 10.1663 11.2429 10.1034 11.3812 10.1663C11.4441 10.204 11.5321 10.204 11.5824 10.1789ZM12.5129 4.98568C12.5129 4.87252 12.5129 4.7845 12.7015 4.74678C12.6261 4.98569 12.865 5.19945 12.777 5.38806C12.689 5.57667 12.7015 5.74015 12.7141 5.91618C12.7267 6.18024 12.5506 6.29341 12.2991 6.20539C12.2363 6.18024 12.2237 6.12995 12.2614 6.09222C12.5506 5.76529 12.5003 5.36291 12.5129 4.98568ZM12.3494 3.50192C12.3494 3.45163 12.3872 3.40133 12.4375 3.38876C12.5129 3.37618 12.5129 3.45163 12.5129 3.48936C12.5255 3.60252 12.5255 3.72826 12.5381 3.84143C12.4249 3.74084 12.3494 3.64024 12.3494 3.50192ZM12.8901 13.8631C12.9279 13.4482 13.0159 13.0835 13.1668 12.744C13.2171 12.6308 13.3554 12.744 13.4183 12.6182C13.4937 12.4548 13.5314 12.2913 13.544 12.1153C13.544 12.0398 13.5063 11.977 13.4183 12.0021C13.3051 12.0273 13.2799 11.977 13.3051 11.8764C13.3931 11.3483 13.5817 10.8453 13.7326 10.3297C13.7955 10.3675 13.7703 10.4303 13.7955 10.4932C13.8458 10.6441 13.9087 10.795 14.1224 10.7447C14.3236 10.6944 14.3487 10.5184 14.2733 10.4052C14.1601 10.2417 14.2104 9.95252 13.8835 9.95252C13.9589 9.77648 14.0218 9.60044 14.0973 9.4244C14.0973 9.41183 14.1098 9.41182 14.1098 9.39925C14.1727 9.24836 14.223 9.04717 14.047 8.99687C13.8709 8.934 13.8458 9.17291 13.8081 9.27351C13.6697 9.63816 13.544 10.0028 13.368 10.3675C13.0787 10.9207 12.9404 11.5243 12.8901 12.1404C12.8776 12.2662 12.8273 12.3919 12.7895 12.5805C12.5506 11.5369 12.274 10.5561 12.4249 9.52499C12.4626 9.24835 12.5003 8.9843 12.3494 8.69509C12.2614 8.51905 12.3369 8.26756 12.3494 8.0538C12.362 7.73945 12.3872 7.43767 12.3117 7.12331C12.2363 6.84668 12.3997 6.65806 12.6512 6.48202C12.5884 6.80895 12.7267 7.04786 12.9027 7.2742C13.0536 7.46281 13.1793 7.67657 13.3302 7.86519C13.6069 8.22984 13.4685 8.5945 13.456 8.95915C13.456 9.11004 13.3177 9.11004 13.2171 9.14776C12.9656 9.23578 12.8524 9.49984 12.953 9.72618C12.9907 9.82677 13.0536 9.83935 13.129 9.7639C13.4057 9.49984 13.6697 9.23578 13.8709 8.90885C13.9589 8.78311 13.8332 8.72024 13.7703 8.56935C14.0721 8.65737 14.2104 8.84598 14.3488 9.03459C14.4619 9.18548 14.5625 9.33638 14.7134 9.46212C14.7888 9.51242 14.8014 9.60044 14.8266 9.68846C14.8391 9.73875 14.8769 9.81419 14.8014 9.83934C14.7511 9.86449 14.6883 9.85192 14.6505 9.8142C14.4368 9.63816 14.4368 9.8142 14.4368 9.93994C14.4493 10.1914 14.4116 10.4681 14.7134 10.6189C14.8014 10.6692 14.7637 10.7321 14.7385 10.795C14.5499 11.1848 14.3613 11.562 13.9967 11.8387C13.9715 11.8638 13.9338 11.8889 13.9338 11.9141C13.9464 12.2787 13.6823 12.5177 13.5188 12.8194C13.3051 13.1464 13.2045 13.5236 12.8901 13.8631ZM15.0906 6.57004C15.0278 6.53232 14.99 6.57004 14.9523 6.60776C14.8266 6.69578 14.726 6.92212 14.6002 6.85925C14.4745 6.79638 14.5877 6.58261 14.5877 6.43172C14.5877 6.18024 14.5751 5.91619 14.7385 5.65213C14.7637 5.80302 14.8014 5.90361 14.726 6.02935C14.6631 6.11737 14.6505 6.26826 14.7637 6.3437C14.8517 6.40658 14.9272 6.2934 15.0152 6.24311C15.1032 6.19281 15.1787 6.11737 15.2918 6.11737C15.3295 6.24311 15.1912 6.41915 15.4427 6.4443C15.405 6.54489 15.405 6.65806 15.4176 6.75866C15.4427 6.90955 15.6313 7.03529 15.5433 7.22391C15.4553 7.41252 15.2289 7.33707 15.0781 7.41251C14.99 7.46281 14.9397 7.52569 14.9523 7.61371C14.9775 7.72687 14.9146 7.90291 15.0655 7.95321C15.2289 8.0035 15.317 7.86519 15.3673 7.7143C15.4804 7.7646 15.4176 7.94064 15.5559 7.94064C15.6816 7.94064 15.6439 7.80231 15.6942 7.72687C15.8199 7.92806 15.8074 7.91549 15.6816 8.11668C15.5684 8.30529 15.5056 8.51905 15.4301 8.72024C15.3924 8.8334 15.3421 8.8837 15.2289 8.77053C15.0781 8.61964 15.0152 8.73281 14.9775 8.85855C14.9397 8.9843 14.9272 9.09747 14.8894 9.23578C14.7511 9.22321 14.7008 9.12261 14.638 9.04717C14.399 8.73281 14.1853 8.44361 14.4116 8.01608C14.5374 7.7646 14.4619 7.43767 14.7008 7.21133C14.7511 7.19876 14.7511 7.24905 14.7511 7.2742C14.7637 7.33707 14.7763 7.42509 14.8517 7.42509C14.9397 7.42509 14.9523 7.33707 14.9775 7.28677C15.0403 7.09816 15.0906 6.90955 15.1409 6.70836C15.1535 6.65806 15.1409 6.60776 15.0906 6.57004ZM15.4804 4.7342C15.4427 4.69648 15.3924 4.67134 15.3673 4.62104C15.3421 4.57074 15.3547 4.4953 15.4301 4.48272C15.5559 4.47015 15.7822 4.7845 15.7445 4.89766C15.669 5.124 15.6062 5.35034 15.7696 5.56411C15.8325 5.63955 15.8074 5.74015 15.7948 5.82817C15.7822 5.87846 15.7319 5.91618 15.6816 5.91618C15.5936 5.90361 15.669 5.85331 15.6565 5.81559C15.6439 5.70242 15.5936 5.70242 15.493 5.72757C15.3798 5.76529 15.2792 5.79044 15.1409 5.82817C15.1409 5.62698 15.2918 5.5138 15.3547 5.35034C15.3798 5.30004 15.4301 5.24975 15.3547 5.19945C15.2918 5.16173 15.2289 5.19945 15.1912 5.2246C15.1409 5.26232 15.1032 5.31261 15.0529 5.35034C14.9397 5.42578 14.8014 5.40064 14.8014 5.28747C14.7888 5.01084 14.814 4.72162 14.8266 4.44499C14.8266 4.41984 14.8517 4.40727 14.902 4.31925C14.8894 4.59588 15.1409 4.6839 15.1409 4.91024C15.1409 4.98569 15.2541 5.04856 15.3421 5.03598C15.4176 5.02341 15.5056 5.01084 15.5307 4.92282C15.5685 4.85995 15.5433 4.7845 15.4804 4.7342ZM15.8451 6.53232C15.7319 6.48202 15.5936 6.45687 15.6565 6.30598C15.669 6.26826 15.7068 6.23054 15.7571 6.25568C15.8954 6.30598 15.8199 6.43173 15.8451 6.53232ZM16.5241 7.57598C16.3858 7.47539 16.2978 7.57598 16.1972 7.63885C16.0966 7.32449 16.172 7.04786 16.3858 6.79638C16.4109 6.77123 16.4361 6.69578 16.4361 6.69578C16.2097 6.54489 16.4235 6.40658 16.4486 6.26826C16.4612 6.18024 16.4738 6.07965 16.3858 6.04192C16.26 6.0042 16.3103 6.14252 16.2726 6.19282C16.2223 6.24312 16.172 6.30598 16.0966 6.394C16.0085 6.16767 16.0337 6.02935 16.2349 5.91618C16.4109 5.81559 16.6121 5.75272 16.7253 5.53895C16.8007 6.35628 17.2534 7.03529 17.3163 7.82747C17.1151 7.664 17.0522 7.81489 16.9893 7.96578C16.8887 8.20469 16.763 8.43103 16.7001 8.68251C16.6498 8.89628 16.4612 9.03459 16.3481 9.22321C16.2726 9.34895 16.3355 9.55014 16.1469 9.63816C16.1469 9.53757 16.1594 9.44954 16.1469 9.36152C16.1217 9.14776 15.7822 9.12261 15.7948 8.87113C15.7948 8.85856 15.6816 8.90885 15.6187 8.84598C15.7319 8.60707 15.7571 8.33044 16.084 8.2047C16.2475 8.14183 16.1972 7.94064 16.2223 7.78974C16.3103 7.90291 16.2475 8.09152 16.4235 8.12924C16.5115 8.14182 16.5367 8.06637 16.5367 7.99093C16.5492 7.86518 16.7127 7.72688 16.5241 7.57598ZM18.1336 7.2742C18.2971 7.26162 18.3474 7.13589 18.3348 6.99757C18.3222 6.9347 18.3851 6.89697 18.3977 6.84668C18.5988 6.82153 18.6994 6.87183 18.5988 7.08559C18.448 7.43767 18.2468 7.7646 17.9198 8.02866C17.857 8.07895 17.8067 8.14183 17.7186 8.11668C17.6558 8.1041 17.5803 8.12925 17.5552 8.06638C17.53 8.00351 17.5678 7.95321 17.6055 7.91548C17.7312 7.78974 17.7941 7.63886 17.8821 7.48797C17.9324 7.39995 17.8821 7.2742 17.7941 7.32449C17.4294 7.48796 17.4546 7.14845 17.4294 7.04786C17.4043 6.85925 17.442 6.67063 17.3917 6.46944C17.3917 6.4443 17.4294 6.41915 17.4546 6.394C17.5426 6.63291 17.6055 6.89697 17.7186 7.12331C17.7815 7.2742 17.9827 7.28677 18.1336 7.2742ZM18.1084 6.63292C18.121 6.59519 18.1462 6.53232 18.1839 6.55746C18.2845 6.62034 18.4605 6.65806 18.3977 6.8341C18.3725 6.8341 18.3474 6.83411 18.3222 6.82153C18.2468 6.77123 18.0707 6.80896 18.1084 6.63292ZM19.2401 5.47608C19.3282 5.61439 19.3659 5.75271 19.5419 5.70241C19.6551 5.67727 19.6425 5.76529 19.6425 5.82817C19.6425 5.92876 19.6425 6.04192 19.6425 6.15509C19.6425 6.21796 19.6425 6.28083 19.5419 6.24311C19.4916 6.21796 19.4162 6.23054 19.4665 6.12994C19.5796 5.94133 19.5293 5.80301 19.2904 5.75271C19.1647 5.71499 19.1898 5.61439 19.2401 5.47608ZM19.2779 4.9354C19.3784 4.92282 19.5168 5.01084 19.4539 5.14915C19.4413 5.1743 19.2779 5.09885 19.2024 5.2246C19.2024 5.09885 19.1773 4.94797 19.2779 4.9354ZM17.8067 11.2602C18.0456 10.9836 18.2216 10.6818 18.2845 10.292C18.3096 10.1034 18.4354 9.85192 18.7749 9.88964C18.888 9.90222 19.0138 9.82677 19.1144 9.77648C19.303 9.67588 19.479 9.55014 19.6802 9.41182C19.479 10.4429 18.8126 11.0088 17.8067 11.2602ZM19.4162 10.5812C19.6299 10.7195 19.8311 10.6567 20.0575 10.5058C20.07 10.7698 20.1203 10.971 20.3592 11.0842C20.0072 11.1345 19.6802 11.2351 19.3533 11.0213C19.2527 10.9585 19.0389 11.0591 18.8629 11.0842C19.0264 10.9082 19.1773 10.7573 19.3156 10.6064C19.3407 10.5812 19.3659 10.5561 19.4162 10.5812ZM17.7061 10.8956C17.5678 10.6692 17.5803 10.6567 18.0204 10.38C17.9701 10.6064 17.8318 10.7447 17.7061 10.8956ZM19.2276 9.02202C19.0641 8.934 18.8629 9.11004 18.6994 8.97173C18.7875 8.87113 18.9006 8.77053 18.7875 8.63222C18.7749 8.61964 18.7875 8.55677 18.8 8.5442C19.0012 8.41845 19.2276 8.34301 19.4162 8.2047C19.4539 8.17955 19.5168 8.25499 19.5042 8.31786C19.479 8.45618 19.5042 8.59449 19.3407 8.68251C19.1898 8.74539 19.215 8.88371 19.2276 9.02202ZM19.2401 9.48727C19.1773 9.48727 19.1521 9.49984 19.1144 9.41182C19.0389 9.23578 19.1018 9.13519 19.2276 9.03459C19.2527 9.14776 19.2779 9.26093 19.3282 9.3741C19.3784 9.44955 19.3282 9.47469 19.2401 9.48727ZM18.4731 8.26756C18.6869 8.19212 18.8503 8.14182 19.0138 8.09152C18.9761 8.33043 18.8252 8.38073 18.4731 8.26756ZM19.2276 6.65806C19.2904 6.69578 19.3407 6.74608 19.4036 6.7838C19.391 6.80895 19.391 6.8341 19.3784 6.85925C19.127 6.82153 19.1144 7.12331 18.8755 7.13589C18.8755 6.8844 19.1773 6.85925 19.2276 6.65806ZM18.9509 5.65213C18.9132 5.84074 18.9383 6.01677 18.9132 6.20539C18.6617 5.82816 18.8252 5.45093 18.9258 5.0737C18.9383 5.27489 18.9886 5.47609 18.9509 5.65213ZM18.9258 7.62628C18.9635 7.61371 18.9383 7.73945 18.9635 7.80232C19.0012 7.90292 18.9383 7.94063 18.8503 7.96578C18.6114 8.0538 18.3851 8.1544 18.0581 8.2047C18.2593 7.97836 18.4731 7.85261 18.5863 7.63885C18.6617 7.51311 18.8 7.68915 18.9258 7.62628ZM17.7186 8.51905C17.7941 8.50648 17.8947 8.43103 17.9198 8.51905C17.945 8.60707 17.9576 8.72024 17.8947 8.80825C17.8444 8.85855 17.7438 8.89627 17.6809 8.84598C17.3037 8.56934 17.4546 8.92142 17.3917 9.07231C17.178 8.92142 17.178 8.79568 17.3666 8.68251C17.4797 8.61964 17.5929 8.53163 17.7186 8.51905ZM15.2918 10.6944C15.2792 10.7573 15.317 10.8327 15.2289 10.8579C15.1283 10.8327 15.0906 10.7698 15.1284 10.6944C15.2792 10.3549 15.3673 10.0028 15.4679 9.65074C15.493 9.57529 15.5307 9.51241 15.6313 9.52499C15.7319 9.53756 15.6942 9.62558 15.7319 9.67588C15.9205 9.91479 15.7822 10.0783 15.6313 10.2669C15.5559 10.3675 15.581 10.5435 15.3421 10.4932C15.2667 10.4806 15.3044 10.6315 15.2918 10.6944ZM14.8643 11.6123C14.4619 12.0021 14.399 12.5805 13.9841 12.9578C14.1979 12.3039 14.5248 11.7129 14.9397 11.1093C15.0026 11.3231 14.9775 11.4991 14.8643 11.6123ZM14.4368 14.3032C14.5122 14.3912 14.4368 14.4289 14.3739 14.4415C14.2104 14.4667 14.0595 14.5421 13.8584 14.4918C14.2607 14.0391 14.3487 13.4607 14.6883 12.9829C14.902 12.6811 15.1283 12.4045 15.2289 12.0524C15.2415 12.0147 15.2541 11.9267 15.317 11.977C15.4301 12.0776 15.493 11.9895 15.5182 11.9267C15.5684 11.8261 15.6313 11.7129 15.581 11.5997C15.5559 11.5243 15.4679 11.5872 15.4176 11.5369C15.4176 11.4489 15.5056 11.4237 15.5684 11.4237C15.8325 11.386 15.9205 11.1848 16.0337 10.9962C16.0714 10.9333 16.1091 10.8704 16.0463 10.8201C15.8577 10.6567 16.0086 10.5561 16.1217 10.4932C16.3732 10.3675 16.5367 10.116 16.8259 10.028C16.9516 9.99024 17.0145 9.8645 17.0522 9.72618C17.1528 9.80162 17.1528 9.87707 17.1151 9.90222C16.9139 10.1034 16.9893 10.2794 17.1151 10.4806C17.1654 10.5687 17.2534 10.6818 17.1151 10.7573C17.0145 10.8076 16.9013 10.9459 16.7756 10.7447C16.7253 10.6567 16.5367 10.5938 16.4235 10.6818C16.2978 10.7824 16.2852 10.9459 16.2726 11.0968C16.2726 11.1093 16.2852 11.1219 16.2978 11.1345C16.5995 11.3231 16.6247 11.4111 16.5744 11.7632C16.5744 11.7758 16.587 11.7884 16.5995 11.8261C16.7379 11.7003 17.0019 11.7129 16.9516 11.4237C16.939 11.3734 17.1025 11.2728 17.1905 11.2225C17.3163 11.1471 17.4546 11.0968 17.5929 11.0339C17.5678 11.2728 17.5552 11.2728 17.3288 11.2854C17.1654 11.2854 17.1025 11.3986 17.0522 11.5117C16.9013 11.8764 16.7253 12.2159 16.3732 12.4422C16.3606 12.4422 16.3606 12.4548 16.3606 12.4548C15.7948 12.6057 15.7445 13.1464 15.4679 13.511C15.3798 13.6242 15.3295 13.6745 15.1787 13.599C14.9523 13.4985 14.7008 13.5739 14.5374 13.7122C14.3362 13.838 14.223 14.0643 14.4368 14.3032ZM14.7008 14.2278C14.6128 14.19 14.6757 14.102 14.6505 14.0517C14.6128 13.9637 14.6757 13.9134 14.7637 13.9008C14.8643 13.8757 14.9649 13.8505 15.0906 13.8128C15.1786 13.8254 15.1661 13.8757 15.1158 13.926C15.0529 14.0014 14.9775 14.0769 14.902 14.1397C14.8517 14.19 14.7888 14.2655 14.7008 14.2278ZM15.0152 14.3409C15.2289 14.0894 15.4427 13.8631 15.7696 13.7877C15.5056 13.9511 15.405 14.2781 15.0152 14.3409ZM15.669 13.4859C15.7445 13.3601 15.7948 13.2595 15.996 13.247C16.1972 13.2344 16.2978 13.0332 16.3229 12.8572C16.3355 12.744 16.3606 12.6686 16.4738 12.5931C16.5618 12.8446 16.6121 13.0709 16.6373 13.3224C16.6498 13.4607 16.6121 13.5362 16.4612 13.5739C16.3103 13.6116 16.1091 13.7248 16.0211 13.6745C15.9205 13.5865 15.7948 13.5613 15.669 13.4859ZM20.2838 14.3158C20.1329 14.3158 20.0323 14.2278 19.9066 14.1775C19.9191 14.1523 19.9317 14.1397 19.9317 14.1397C20.07 14.1397 20.2083 14.1146 20.2964 14.2529C20.2964 14.2655 20.2838 14.3158 20.2838 14.3158ZM20.7113 14.0894C20.7365 14.1775 20.6484 14.19 20.573 14.1649C20.485 14.1397 20.397 14.102 20.2838 14.0643C20.4221 13.9385 20.6233 13.8883 20.7365 13.7374C20.7365 13.8505 20.6736 13.9637 20.7113 14.0894ZM20.9754 12.744C20.8371 12.7817 20.8371 12.8697 20.8622 12.9829C20.9377 13.3098 20.7616 13.4984 20.485 13.6493C20.1455 13.838 19.806 14.0014 19.3156 13.838C19.7557 13.6493 19.8437 13.1589 20.3341 13.0709C20.5981 13.0206 20.7616 12.7943 20.9628 12.6308C21.0131 12.5931 21.0382 12.5428 20.9754 12.4799C20.8999 12.4171 20.8371 12.4171 20.7742 12.4925C20.6233 12.656 20.4724 12.8194 20.2335 12.8823C20.1832 12.6811 20.2964 12.5302 20.3718 12.3793C20.3844 12.3416 20.4473 12.2662 20.485 12.3039C20.661 12.4799 20.9502 12.2284 21.076 12.4422C21.1137 12.5177 21.1263 12.6937 20.9754 12.744ZM21.1263 11.3986C21.0382 11.3483 21.0005 11.4111 20.988 11.4866C20.9377 11.6626 20.6359 11.8261 20.5227 11.7129C20.3467 11.5494 20.1329 11.65 19.9569 11.5494C19.9191 11.5243 19.8563 11.5369 19.806 11.5117C19.5042 11.386 19.5042 11.386 19.5042 11.7129C19.5042 11.8135 19.5168 11.9141 19.5293 12.0147C19.5419 12.1279 19.5671 12.241 19.6802 12.2913C19.7934 12.3416 19.8185 12.2159 19.8814 12.153C20.1706 11.9015 20.1706 11.9015 20.2209 11.6626C20.4347 12.1782 20.0449 12.5428 19.982 12.9955C19.8437 12.8949 19.894 12.7943 19.894 12.7063C19.894 12.6434 19.8814 12.5554 19.7934 12.5554C19.7054 12.5554 19.6425 12.6183 19.6425 12.6937C19.6425 12.7943 19.6551 12.8949 19.6677 12.9955C19.7305 13.3098 19.4539 13.6619 19.1144 13.7499C18.3977 13.926 17.6683 13.8631 16.939 13.926C16.7253 13.9385 16.5241 14.0391 16.3103 14.0769C16.2349 14.0894 16.0966 14.1523 16.0588 14.0391C16.0085 13.9134 16.1469 13.8631 16.2349 13.8254C16.5241 13.7248 16.8259 13.6368 17.1528 13.7248C17.4546 13.8128 17.6306 13.7248 17.7438 13.4356C17.7941 13.2973 17.9073 13.2595 18.0204 13.247C18.121 13.2344 18.0959 13.3476 18.0959 13.3979C18.1084 13.4985 18.1336 13.599 18.2468 13.6493C18.3096 13.6745 18.3474 13.6242 18.3725 13.5739C18.4354 13.4607 18.4605 13.3098 18.3851 13.247C18.1839 13.1086 18.3474 13.0709 18.4354 12.9955C18.4857 12.9578 18.5485 12.9075 18.6114 12.8823C18.6869 12.832 18.7372 12.7817 18.6869 12.7063C18.624 12.6057 18.5485 12.6811 18.4857 12.7188C18.2845 12.8446 18.0959 12.9703 17.8947 13.0961C17.7941 13.1589 17.6809 13.1967 17.5426 13.0961C17.6558 12.9955 17.7564 12.8823 17.9198 12.8949C18.121 12.8949 18.1713 12.6811 18.3348 12.6182C18.5863 12.5302 18.4354 12.3416 18.4354 12.1907C18.4354 12.1153 18.4228 12.0398 18.4354 11.9644C18.4605 11.8512 18.4354 11.7255 18.2971 11.7003C18.1587 11.6752 18.0456 11.7632 18.033 11.889C18.0204 12.0776 17.8947 12.1404 17.7564 12.2285C17.6181 12.3165 17.4169 12.329 17.3917 12.5302C17.3791 12.568 17.2911 12.6183 17.2157 12.6057C17.2283 12.4045 17.0899 12.3039 16.7882 12.2913C16.939 12.1279 17.0774 11.9644 17.3037 11.9015C17.6558 11.8009 17.9324 11.562 18.2342 11.4363C18.5988 11.2854 19.0515 11.0968 19.5042 11.2477C19.7682 11.3357 20.0323 11.3357 20.3089 11.2854C20.6359 11.2225 21.0005 11.386 21.3149 11.1596C21.2897 11.298 21.4783 11.5746 21.1263 11.3986ZM21.3149 13.6745C21.6921 13.5362 21.7298 13.5236 21.9562 13.6745C21.7424 13.5865 21.5412 13.8757 21.3149 13.6745ZM22.1574 12.2787C22.0316 12.2787 21.843 12.2285 21.8807 12.1404C21.9059 12.0524 21.931 11.8512 22.1196 11.8512C22.2831 11.8512 22.2831 11.9518 22.2579 12.0776C22.2328 12.1404 22.3585 12.2787 22.1574 12.2787ZM22.4466 11.3231C22.2705 11.3734 22.0945 11.3231 22.0442 11.2225C21.8807 10.9207 21.428 10.9082 21.34 10.5561C21.3275 10.5184 21.2646 10.4932 21.2017 10.4932C21.0508 10.5184 21.0005 10.4303 20.988 10.3172C21.0005 10.3046 21.0131 10.292 21.0257 10.292C21.1514 10.292 21.3149 10.3297 21.3275 10.1789C21.34 10.0531 21.2772 9.90222 21.0885 9.8645C21.076 9.8645 21.0508 9.85192 21.0382 9.85192C20.749 9.72618 20.749 9.72617 20.7616 10.0154C20.7742 10.2543 20.661 10.3297 20.3467 10.2166C20.2083 10.1663 20.1329 10.1914 20.0197 10.2292C19.8688 10.2794 19.6928 10.292 19.5042 10.3297C19.6551 10.116 19.7808 9.92737 19.9191 9.73876C19.9569 9.68846 20.0072 9.61301 20.0826 9.63816C20.397 9.73875 20.7113 9.61301 21.0257 9.68846C21.0634 9.70103 21.1011 9.7136 21.1263 9.70103C21.3903 9.58786 21.5789 9.75132 21.843 9.92736C21.5286 9.90221 21.428 9.99024 21.4658 10.2292C21.5035 10.5435 21.7173 10.4932 21.9562 10.4303C21.9184 10.5938 21.931 10.7195 21.9562 10.8453C21.9687 10.9333 22.0065 11.0213 22.0945 11.0465C22.2705 11.059 22.3334 11.1848 22.4466 11.3231ZM19.7305 8.99687C19.894 8.934 20.0449 8.82083 20.2335 8.83341C20.2712 8.83341 20.2964 8.90885 20.3341 8.95915C20.2209 9.03459 20.1329 9.14776 20.0197 9.18549C19.9317 9.22321 19.8185 9.16034 19.7305 9.08489C19.7054 9.05974 19.6802 9.02202 19.7305 8.99687ZM21.6167 9.03459C21.8179 8.92142 21.9813 8.934 22.1574 9.12261C21.843 9.21063 21.5161 9.18549 21.2394 9.3238C21.1137 9.38667 21.0382 9.26093 20.9502 9.18549C20.9125 9.14776 20.8874 9.07232 20.8119 9.11004C20.7616 9.13519 20.749 9.18549 20.749 9.23578C20.749 9.29866 20.7742 9.37409 20.661 9.38667C20.5856 9.38667 20.5227 9.33638 20.485 9.28608C20.4221 9.19806 20.5479 9.18549 20.5856 9.14776C20.6987 9.00945 20.8119 8.95915 21.0005 9.08489C21.1891 9.18548 21.428 9.13519 21.6167 9.03459ZM20.0952 6.14252C20.2964 6.16767 20.1203 6.38143 20.2335 6.43172C20.2461 6.51974 20.2335 6.58262 20.1455 6.57004C20.0323 6.54489 19.8688 6.54489 19.8563 6.394C19.8311 6.23054 19.9443 6.12995 20.0952 6.14252ZM19.9317 8.43103C20.2838 8.29272 20.7113 8.30529 21.0005 7.97836C21.1766 8.25499 21.1766 8.25499 21.1011 8.61964C20.988 8.63221 21.0005 8.51905 20.9502 8.48133C20.8496 8.41846 20.7239 8.35558 20.6987 8.53162C20.6736 8.75796 20.4347 8.72024 20.397 8.68251C20.2586 8.55677 20.0826 8.60707 19.9317 8.55677C19.8814 8.5442 19.8185 8.5442 19.8185 8.48133C19.8185 8.40589 19.894 8.44361 19.9317 8.43103ZM19.479 4.29411C19.5293 4.445 19.6425 4.43242 19.7934 4.43242C19.6048 4.50787 19.6048 4.50787 19.2653 4.29411C19.3533 4.28153 19.4287 4.13064 19.479 4.29411ZM18.5988 3.50192C18.6366 3.56479 18.712 3.71569 18.8629 3.65282C18.9886 3.60252 18.9509 3.48935 18.9383 3.38876C18.9383 3.35104 18.9258 3.30073 18.9761 3.27559C19.0641 3.32588 19.0138 3.45163 19.1395 3.48936C19.3407 3.55223 19.215 3.72826 19.2024 3.82886C19.1773 3.92945 19.0515 3.85401 18.9886 3.80371C18.8755 3.71569 18.7623 3.82886 18.6491 3.80371C18.3851 3.76599 18.2593 3.6151 18.121 3.43906C18.3096 3.36361 18.4731 3.25044 18.5988 3.50192ZM17.857 3.75341C17.945 3.86658 18.1839 3.64024 18.209 3.91687C18.2216 4.08034 18.2216 4.40727 18.5988 4.21865C18.6366 4.20608 18.6743 4.21866 18.6743 4.25638C18.6743 4.48272 18.8503 4.65876 18.8629 4.8851C18.8629 4.92282 18.8755 4.96054 18.8252 4.96054C18.8 4.96054 18.7623 4.96054 18.7497 4.94796C18.6994 4.80965 18.4605 4.75935 18.5863 4.54559C18.6617 4.43242 18.5234 4.43242 18.4354 4.43242C18.0582 4.445 18.0707 4.44499 17.9701 4.09291C17.9576 4.04262 17.9324 3.97975 17.9073 3.92945C17.8695 3.86658 17.7186 3.89173 17.7564 3.76599C17.7815 3.72827 17.8444 3.72826 17.857 3.75341ZM17.7941 4.80965C17.7941 4.75935 17.7941 4.70906 17.8695 4.70906C17.9198 4.70906 17.9324 4.75936 17.945 4.79708C17.9576 4.84737 17.9701 4.89767 17.9953 4.9354C18.033 5.01084 18.1084 5.13657 18.0204 5.16172C17.8947 5.19944 17.8192 5.33776 17.6684 5.30004C17.6055 5.28747 17.4923 5.124 17.4546 5.31262C17.4294 5.46351 17.4546 5.6647 17.6684 5.67727C17.8318 5.68984 17.9073 5.71499 18.0079 5.85331C18.0959 5.97905 18.2593 5.85331 18.3474 5.76529C18.4982 5.62697 18.5611 5.67727 18.5611 5.84073C18.5611 5.9539 18.6491 6.06708 18.6114 6.19282C18.5234 6.23054 18.448 6.18024 18.4102 6.12994C18.121 5.85331 17.7689 6.0042 17.4546 6.01677C17.3288 6.01677 17.3917 6.26826 17.4546 6.394C17.0648 6.29341 16.8762 5.96648 17.0271 5.62697C17.0648 5.53895 17.0774 5.45093 17.0774 5.36291C17.0774 5.32519 17.0899 5.26233 17.1025 5.24975C17.5175 5.16173 17.2911 4.84737 17.3037 4.65876C17.3288 4.3947 17.266 4.3947 17.5552 4.14321C17.442 4.40727 17.442 4.59589 17.4923 4.79708C17.5175 4.8851 17.5175 4.99826 17.6558 4.99826C17.7689 4.99826 17.7941 4.89766 17.7941 4.80965ZM17.6432 3.08698C17.7312 3.30074 17.6809 3.48935 17.53 3.66539C17.4546 3.6151 17.5426 3.47678 17.4043 3.4642C17.3917 3.4642 17.3917 3.4642 17.3791 3.47678C17.3791 3.47678 17.3791 3.48936 17.3666 3.48936C17.3791 3.23787 17.4043 3.21272 17.6432 3.08698ZM17.1277 3.175C17.1402 3.32589 17.1528 3.48935 17.3666 3.50192C17.2408 3.67796 17.1528 3.86658 17.1277 4.08035C17.1151 4.21866 17.0271 4.3444 16.9768 4.47014C16.6121 4.08034 16.675 3.43906 17.1277 3.175ZM16.8133 2.72233C16.8259 2.86064 16.8636 2.97381 16.7001 2.99896C16.6247 3.01153 16.5241 2.97381 16.5241 2.94866C16.5367 2.81035 16.7001 2.81035 16.8133 2.72233ZM16.1594 4.16837C16.172 4.25639 16.2349 4.23123 16.2978 4.19351C16.3732 4.13064 16.3983 4.01747 16.5115 3.96717C16.5744 4.15579 16.6373 4.31925 16.7001 4.49529C16.7127 4.52044 16.7253 4.57073 16.7127 4.58331C16.4486 4.79707 16.4989 5.08628 16.5115 5.36291C16.5115 5.46351 16.4738 5.50123 16.3858 5.51381C16.2349 5.53896 16.172 5.32519 16.0086 5.38806C16.0086 5.23717 15.9457 5.08628 16.084 4.96054C16.1846 4.87252 16.2726 4.75935 16.3732 4.65876C16.4738 4.57074 16.4235 4.44499 16.4109 4.35697C16.3984 4.28153 16.2726 4.30668 16.1972 4.31925C16.0966 4.33182 16.0211 4.33183 16.0211 4.20609C16.0211 4.15579 15.9834 4.11807 15.908 4.11807C15.8451 4.13064 15.7822 4.16837 15.7571 4.08035C15.7319 4.0049 15.8199 3.99232 15.8577 3.9546C15.996 3.77856 16.172 3.62767 16.3858 3.4642C16.3858 3.58994 16.3229 3.65282 16.26 3.69054C16.0588 3.84143 16.1469 4.01747 16.1594 4.16837ZM15.5182 1.5655C15.5936 1.50263 15.6816 1.50262 15.7445 1.57806C15.8199 1.66608 15.8954 1.76668 15.8451 1.905C15.7445 1.89242 15.7822 1.67867 15.6313 1.79183C15.5684 1.84213 15.493 1.93014 15.4553 1.84212C15.4427 1.77925 15.4427 1.64094 15.5182 1.5655ZM15.0781 2.31995C15.2792 2.72233 15.581 2.86064 16.0211 2.70975C16.2349 2.6343 16.2475 2.70975 16.2349 2.87321C16.1972 3.21271 16.1091 3.31331 15.8577 3.32588C15.8577 3.30074 15.8577 3.27559 15.8702 3.26302C15.8954 3.175 16.0463 3.0744 15.9205 3.01153C15.8325 2.96123 15.6816 2.99896 15.5684 3.08698C15.4804 3.14985 15.4679 3.28817 15.317 3.31332C15.3547 3.08698 15.317 2.89836 15.0403 2.79777C15.0781 3.27559 15.0781 3.27559 14.7888 3.79113C14.6757 3.5648 14.6505 3.33846 14.6128 3.11212C14.6128 3.0744 14.6128 3.01153 14.6254 2.99896C14.8517 2.82292 14.9775 2.59658 15.0781 2.31995ZM14.6254 1.94272C14.7637 1.94272 14.8266 1.96787 14.814 2.04332C14.7888 2.14391 14.7008 2.18163 14.6002 2.18163C14.5625 2.18163 14.4996 2.18163 14.5122 2.11876C14.5374 2.04331 14.5625 1.94272 14.6254 1.94272ZM14.3362 3.72826C14.3362 3.66539 14.4619 3.64025 14.4996 3.76599C14.5374 3.89173 14.5877 4.01747 14.6002 4.15579C14.6128 4.24381 14.6883 4.40728 14.4493 4.3444C14.3613 4.31926 14.311 4.43242 14.2985 4.52044C14.2985 4.63361 14.223 4.77192 14.3488 4.84737C14.4493 4.91024 14.4996 4.77193 14.6128 4.7342C14.6631 4.89767 14.6254 5.01084 14.4493 5.06114C14.3613 5.08628 14.2733 5.11143 14.2104 5.16172C14.0847 5.23717 13.8835 5.31262 13.8081 5.26232C13.6823 5.1743 13.7703 4.97311 13.72 4.82222C13.72 4.80965 13.7326 4.75935 13.7452 4.75935C14.1224 4.69648 14.0218 4.36955 14.1098 4.15579C14.1476 3.97975 14.3236 3.9043 14.3362 3.72826ZM14.1853 2.16906C14.0092 2.33252 13.8206 2.44569 13.5566 2.43311C13.6823 2.11876 13.9464 2.18163 14.1853 2.16906ZM13.7075 6.51974C13.7578 6.26826 13.8835 6.0545 14.0721 5.87846C14.2356 5.72757 14.4368 5.57668 14.4493 5.31262C14.4493 5.28747 14.5122 5.26232 14.5625 5.2749C14.6002 5.33777 14.5877 5.40064 14.5625 5.46351C14.4493 5.68985 14.399 5.91618 14.399 6.16767C14.399 6.25569 14.3865 6.46944 14.1979 6.24311C14.1224 6.14251 14.0721 6.20539 14.047 6.30598C14.047 6.31856 14.047 6.31855 14.047 6.33113C14.135 6.69578 14.0847 7.08559 14.2482 7.43767C14.2985 7.56341 14.1727 8.26756 14.0721 8.35558C14.0092 8.40588 13.9715 8.36816 13.9338 8.34301C13.8206 8.26757 13.7452 8.17955 13.6823 8.06638C13.544 7.82747 13.4057 7.58856 13.2548 7.34965C13.1416 7.16103 13.2045 6.65806 13.368 6.53232C13.4183 6.64549 13.3302 6.85925 13.4937 6.87182C13.6823 6.85925 13.6823 6.64549 13.7075 6.51974ZM13.456 4.36955C13.5063 4.7845 13.5817 5.21202 13.5188 5.62697C13.4937 5.77786 13.4434 5.91618 13.3428 6.04192C13.1165 6.29341 12.9027 6.5449 13.0159 6.94727C12.777 6.80896 12.8147 6.64549 12.8398 6.4946C12.9404 5.97905 12.953 5.45094 12.9153 4.9354C12.9027 4.82223 12.8147 4.72163 12.8273 4.59589C12.8273 4.48272 12.865 4.40727 12.9404 4.33183C13.041 4.3444 12.9907 4.50787 13.1039 4.48272C13.1919 4.47015 13.1919 4.36955 13.2171 4.29411C13.2674 4.15579 13.4183 4.03004 13.2171 3.87915C13.5063 3.99232 13.4308 4.21866 13.456 4.36955ZM13.1793 2.92351C12.9782 3.1247 12.9782 3.27559 13.1919 3.45163C13.2422 3.48936 13.2674 3.52708 13.2422 3.57737C13.2171 3.64025 13.1668 3.62767 13.1039 3.62767C12.8776 3.62767 12.8776 3.62767 12.7267 3.79113C12.7015 3.66539 12.6889 3.5648 12.6764 3.4642C12.6512 3.31331 12.6764 3.20014 12.8398 3.11212C13.041 3.01153 13.1793 2.82291 13.3554 2.64687C13.3805 2.81034 13.2548 2.86064 13.1793 2.92351ZM12.5255 1.45232C12.4878 1.40203 12.8021 1.1254 12.8776 1.15054C13.0536 1.20084 13.0159 1.33916 12.9907 1.4649C12.9404 1.77926 12.777 1.89242 12.4123 1.86728C12.4626 1.70381 12.6889 1.62836 12.5255 1.45232ZM12.5632 2.77262C12.8147 2.84807 12.8273 2.67203 12.9027 2.54629C12.9656 2.44569 13.0159 2.31994 13.1668 2.2948C13.2422 2.28222 13.2925 2.28223 13.2799 2.37025C13.2422 2.53371 13.0913 2.62173 12.9907 2.74747C12.8776 2.88579 12.6889 2.94866 12.6261 3.1247C12.6135 3.175 12.5381 3.21272 12.5003 3.14985C12.45 3.08697 12.3117 3.11213 12.3243 2.99896C12.3494 2.87322 12.45 2.7349 12.5632 2.77262ZM12.2866 5.45093C12.2111 5.30004 11.9848 5.31262 12.0225 5.19945C12.0477 5.12401 12.1734 5.01084 12.2991 4.91024C12.3243 5.09886 12.3117 5.24975 12.2866 5.45093ZM11.9093 5.03598C11.8087 4.79707 11.6579 4.62103 11.8968 4.45757C11.9471 4.41985 12.0099 4.36955 12.0728 4.43242C12.1357 4.49529 12.098 4.54559 12.0477 4.58331C11.9093 4.67133 11.9596 4.83479 11.9093 5.03598ZM12.1357 3.09955C12.0351 3.38875 12.2111 3.61509 12.274 3.87915C12.1734 3.81628 12.0854 3.74084 11.9848 3.67797C11.9345 3.64025 11.8842 3.60252 11.8213 3.62767C11.7333 3.6654 11.771 3.74084 11.771 3.80371C11.7836 4.06777 11.7836 4.06776 11.4692 4.18093C11.4818 3.84143 11.6453 3.57737 11.8339 3.32588C11.8968 3.23786 12.0099 3.14985 11.8716 3.0241C11.8213 2.98638 11.8465 2.92351 11.8842 2.88579C11.9471 2.83549 11.9722 2.91094 12.0099 2.93609C12.0854 2.97381 12.1483 3.03668 12.1357 3.09955ZM11.4064 3.26302C11.3561 3.13728 11.5573 2.70974 11.7082 2.64687C11.7207 2.87321 11.5573 3.04926 11.5447 3.26302C11.5447 3.30074 11.507 3.32588 11.4818 3.32588C11.4441 3.32588 11.419 3.28817 11.4064 3.26302ZM11.3184 1.8547C11.3686 1.81698 11.4189 1.84213 11.4441 1.905C11.507 2.19421 11.6956 2.18163 11.9219 2.08104C11.9471 2.06846 11.9722 2.08104 12.0728 2.08104C11.8339 2.23193 11.6201 2.28223 11.4064 2.31995C11.3184 2.33252 11.2429 2.26965 11.2429 2.19421C11.2555 2.06847 11.2178 1.94272 11.3184 1.8547ZM10.7274 2.26965C10.6519 2.54629 11.004 2.64688 10.9914 2.89836C10.9914 2.93609 11.0417 2.96123 11.092 2.92351C11.3435 2.77262 11.2806 2.92352 11.2429 3.04926C11.2052 3.175 11.1926 3.31331 11.1046 3.43906C10.6016 2.72233 10.501 2.39539 10.7274 2.26965ZM9.23103 11.3483C9.08014 11.3357 8.89153 11.3231 8.84123 11.2225C8.71549 10.9962 8.5143 10.8076 8.45143 10.5561C8.43885 10.5309 8.47658 10.4681 8.464 10.4681C8.16222 10.2543 8.45143 10.1537 8.5646 10.0405C8.74063 9.8645 8.82866 9.47469 8.72806 9.24835C8.71549 9.2232 8.67776 9.18548 8.69034 9.16033C8.80351 8.90885 8.71549 8.63222 8.81608 8.34301C8.99212 8.58192 9.05499 8.43103 9.09271 8.29272C9.14301 8.14183 9.16816 7.99093 9.20588 7.82747C9.23103 7.72687 9.21846 7.664 9.10529 7.61371C8.99212 7.56341 8.89153 7.43767 8.92925 7.31193C8.97955 7.09816 8.9041 6.87183 8.96697 6.67064C8.97955 6.62034 9.01727 6.55747 8.9544 6.50718C8.89153 6.45688 8.82866 6.50717 8.79093 6.5449C8.66519 6.68321 8.464 6.59519 8.32569 6.67064C8.23767 6.72093 8.09935 6.72093 8.08678 6.84668C8.06163 7.18618 7.92331 7.50054 7.88559 7.84004C7.87301 7.94064 7.86044 8.07895 7.99876 8.11668C8.13707 8.1544 8.18737 8.01608 8.25024 7.92806C8.33826 7.80232 8.41371 7.67657 8.50173 7.55083C8.52687 7.51311 8.52687 7.46281 8.57717 7.46281C8.64004 7.46281 8.67776 7.52568 8.67776 7.56341C8.66519 7.664 8.87895 7.84004 8.5646 7.86519C8.48915 7.86519 8.48915 7.99093 8.47658 8.06638C8.37598 8.55677 8.18737 9.02202 8.0239 9.49984C8.01133 9.53757 7.97361 9.57529 7.93588 9.63816C7.67182 9.23578 7.54608 8.82083 7.50836 8.38074C7.49578 8.1544 7.50836 7.95321 7.64668 7.7646C7.72212 7.66401 7.74727 7.53826 7.79757 7.42509C7.82272 7.37479 7.83529 7.31193 7.77242 7.26163C7.72212 7.22391 7.67182 7.26163 7.6341 7.29935C7.59638 7.3245 7.57123 7.38736 7.50836 7.36221C7.44549 7.32449 7.45806 7.26162 7.45806 7.19875C7.49579 6.64549 7.49578 6.1048 7.49578 5.55153C7.49578 5.24975 7.6341 5.16172 7.93588 5.21202C8.14965 5.24974 8.25024 5.124 8.33826 4.96054C8.43885 4.75935 8.42628 4.52044 8.65261 4.3444C8.70291 4.57074 8.70291 4.75935 8.5143 4.91024C8.45143 4.96054 8.37598 5.02341 8.40113 5.09886C8.464 5.33777 8.31311 5.46351 8.13707 5.58925C7.99875 5.68985 7.94846 5.82816 8.0239 5.99163C8.08677 6.12994 8.22509 6.15509 8.36341 6.18024C8.5143 6.20539 8.66519 6.21796 8.80351 6.24311C8.84123 6.25568 8.89153 6.26826 8.92925 6.29341C9.14301 6.4443 9.25618 6.68321 9.49509 6.8341C9.75915 6.99756 9.67113 7.28677 9.63341 7.55083C9.59569 7.82746 9.63341 8.1041 9.62083 8.36816C9.59568 8.87113 9.41965 9.33637 9.38192 9.83934C9.31905 10.4806 9.40707 11.0465 9.84717 11.5494C9.89747 11.6123 9.94776 11.6752 9.97291 11.7381C10.0232 11.8889 9.99806 12.0273 9.79687 12.0147C9.59568 11.9895 9.40707 11.9015 9.19331 11.977C9.26875 11.8638 9.39449 11.8638 9.43222 11.7381C9.49509 11.4866 9.44479 11.3608 9.23103 11.3483ZM9.65855 6.65806C9.6334 6.63291 9.60826 6.60777 9.58311 6.58262C9.40707 6.46945 9.20588 6.40658 9.40707 6.12994C9.58311 5.89103 9.39449 5.65212 9.25618 5.45093C9.08014 5.19945 9.14301 4.8851 9.01727 4.62104C9.01727 4.60846 9.04242 4.58332 9.05499 4.57074C9.11786 4.57074 9.13044 4.60846 9.14301 4.65876C9.25618 5.26232 9.60826 5.77787 9.80945 6.35628C9.8346 6.43173 9.87232 6.4946 9.87232 6.57004C9.88489 6.63291 9.84717 6.70835 9.77172 6.7335C9.69628 6.75865 9.6837 6.68321 9.65855 6.65806ZM9.8346 3.72826C9.77173 3.74083 9.52024 3.36361 9.55796 3.31332C9.60826 3.23787 9.69628 3.27559 9.82202 3.26302C9.99806 3.31332 10.0987 3.50192 10.2244 3.64024C10.2747 3.69054 10.2873 3.76599 10.3753 3.79113C10.4382 3.80371 10.5136 3.86658 10.501 3.92945C10.4885 4.0049 10.3879 4.0049 10.325 4.01747C10.2495 4.04262 10.1615 3.99232 10.1238 4.09291C10.0861 4.18093 10.0358 4.14321 9.98549 4.10549C9.93519 4.06777 9.91004 4.03004 9.96034 3.96717C10.0861 3.81628 10.1238 3.69054 9.8346 3.72826ZM9.72143 5.31262C9.59569 5.18687 9.63341 5.03599 9.72143 4.92282C9.7843 4.8348 9.77172 4.65876 10.0106 4.7342C10.149 4.77193 10.1741 4.55816 10.2998 4.45757C10.4382 4.74678 10.6016 4.62104 10.8405 4.43242C10.8531 5.09886 10.4633 5.53895 10.2495 6.11737C10.0735 5.75271 9.92262 5.5138 9.72143 5.31262ZM10.7274 3.82886C10.6393 3.86658 10.5513 3.74084 10.5639 3.69054C10.6142 3.57737 10.6645 3.41391 10.7777 3.40134C10.916 3.38876 10.8531 3.57738 10.9034 3.62767C10.9663 3.82886 10.7902 3.79113 10.7274 3.82886ZM10.589 3.23786C10.5262 3.27559 10.4256 3.35104 10.3879 3.26302C10.3376 3.13728 10.5262 3.09955 10.5639 2.97381C10.6896 3.08697 10.7274 3.17499 10.589 3.23786ZM10.5136 1.72896C10.5262 1.77926 10.5262 1.8547 10.4382 1.8547C10.2873 1.86727 10.2118 1.8044 10.1992 1.61579C10.2998 1.74153 10.4633 1.5152 10.5136 1.72896ZM10.0358 0.899054C10.2118 0.899054 10.2118 1.03737 10.2118 1.08767C10.2244 1.25113 10.0106 1.17569 9.94777 1.26371C9.82202 1.27628 9.82202 1.17569 9.8346 1.12539C9.84717 1.0248 9.84717 0.899054 10.0358 0.899054ZM9.80945 1.9553C9.89747 1.94272 9.92262 2.01817 9.94777 2.08104C9.97291 2.18163 9.99806 2.2948 10.0232 2.39539C10.0358 2.45826 10.0484 2.54629 10.1364 2.54629C10.2118 2.55886 10.2244 2.48341 10.2495 2.43311C10.2621 2.39539 10.2873 2.35767 10.3376 2.35767C10.4004 2.35767 10.4004 2.40797 10.4004 2.44569C10.4004 2.55886 10.6016 2.67203 10.4256 2.77262C10.2873 2.84807 10.1238 2.96123 9.96034 2.78519C9.93519 2.76004 9.85974 2.76005 9.79687 2.7349C9.91004 2.58401 9.94776 2.45827 9.6837 2.42055C9.63341 2.40797 9.55796 2.35767 9.60826 2.2948C9.8346 1.94272 9.54539 2.08103 9.38192 2.06846C9.36935 2.06846 9.35677 2.05589 9.33163 2.04332C9.48252 1.94272 9.65856 1.98044 9.80945 1.9553ZM8.87895 4.33183C8.70291 4.08034 8.70291 4.08034 8.32569 4.29411C8.45143 4.15579 8.464 3.9546 8.57717 3.75341C8.70291 4.10549 8.84123 3.91688 8.94182 3.79113C9.04242 3.67797 9.18074 3.62766 9.31905 3.50192C9.2939 3.87915 9.10529 4.11807 8.87895 4.33183ZM9.26875 2.69717C9.26875 2.83549 9.14301 2.83549 8.96697 2.79777C8.94182 2.78519 8.80351 2.86064 8.79093 2.72233C8.79093 2.64688 8.89153 2.53371 8.99212 2.58401C9.09271 2.6343 9.25618 2.54628 9.26875 2.69717ZM8.81608 1.76668C8.9041 1.74153 8.9041 1.81698 8.9041 1.87985C8.92925 2.03074 8.84123 2.06846 8.70291 2.06846C8.60232 2.06846 8.47658 2.04331 8.50173 1.94272C8.52687 1.81698 8.69034 1.8044 8.81608 1.76668ZM8.18737 2.50857C8.21252 2.3954 8.22509 2.28223 8.25024 2.10619C8.31311 2.26966 8.35083 2.35767 8.40113 2.44569C8.42628 2.49599 8.5143 2.54628 8.42628 2.60915C8.37598 2.64687 8.28796 2.70975 8.25024 2.69717C8.13707 2.67202 8.17479 2.58401 8.18737 2.50857ZM8.09935 3.33846C8.16222 3.35103 8.22509 3.37618 8.30054 3.38876C8.35083 3.40133 8.40113 3.40133 8.40113 3.47678C8.38856 3.55222 8.33826 3.52708 8.28796 3.53965C8.06163 3.6151 7.98618 3.82886 7.84786 3.99233C7.79757 4.0552 7.84787 4.21866 7.69697 4.18093C7.57123 4.15578 7.65925 4.03005 7.64668 3.94203C7.64668 3.89173 7.64668 3.84143 7.65925 3.77856C7.91074 3.854 7.94846 3.80371 8.09935 3.33846ZM7.91073 2.37025C8.06163 2.76005 7.78499 2.81034 7.47064 2.83549C7.53351 2.60915 7.65925 2.44569 7.91073 2.37025ZM7.52093 3.31332C7.53351 3.53965 7.39519 3.65282 7.14371 3.69054C7.20658 3.50192 7.38262 3.42648 7.52093 3.31332ZM7.05569 4.25638C7.18143 4.28153 7.2443 4.3444 7.25688 4.44499C7.26945 4.50786 7.20658 4.53302 7.14371 4.52044C7.03054 4.49529 6.99281 4.40727 6.98024 4.31925C6.98024 4.26895 7.01796 4.24381 7.05569 4.25638ZM6.89222 6.5449C6.89222 6.1551 6.92995 5.75271 6.95509 5.35034C7.14371 5.40063 7.21915 5.48865 7.21915 5.66469C7.194 6.19281 7.18143 6.70836 7.18143 7.23647C7.18143 7.37479 7.20658 7.51311 7.21915 7.65143C7.20658 7.65143 7.194 7.664 7.16886 7.664C7.08084 7.50054 6.99282 7.3245 6.89222 7.16103C6.76648 6.94727 6.89222 6.74608 6.89222 6.5449ZM6.87965 7.63885C6.9048 7.68915 6.95509 7.75202 6.89222 7.80232C6.82935 7.86519 6.77905 7.78975 6.72876 7.7646C6.62816 7.72688 6.47727 7.61371 6.42698 7.7143C6.33896 7.89034 6.0749 7.96578 6.10004 8.19212C6.11262 8.29271 6.08747 8.50648 6.35153 8.34301C6.40183 8.30529 6.57786 8.22984 6.67846 8.28014C6.8042 8.34301 6.92994 8.33044 7.08083 8.34301C6.86707 8.51905 6.8042 8.68251 7.05569 8.85855C7.09341 8.8837 7.09341 8.9843 7.09341 9.04717C7.10598 9.12261 7.13113 9.23578 7.194 9.23578C7.40776 9.22321 7.43291 9.3741 7.49578 9.49984C7.86044 10.204 8.32568 10.8453 8.65261 11.5746C8.67776 11.6249 8.72806 11.6752 8.67776 11.7129C8.62747 11.7632 8.53945 11.7381 8.48915 11.7003C8.26281 11.5243 8.03648 11.3483 7.83529 11.1596C7.47064 10.8201 7.15628 10.4429 6.84193 10.0531C6.64074 9.8142 6.4144 9.58786 6.20064 9.34895C5.96173 9.09746 5.96173 8.74539 5.76054 8.46875C5.94915 8.22984 5.5845 7.92806 5.86113 7.68915C5.89886 7.664 5.924 7.56341 5.96173 7.61371C6.20064 7.86519 6.25093 7.56341 6.3641 7.48797C6.4647 7.42509 6.51499 7.31192 6.62816 7.18618C6.72876 7.33707 6.81678 7.48796 6.87965 7.63885ZM5.62222 10.7195C5.47133 10.6818 5.59707 10.6189 5.6348 10.5687C5.81084 10.3172 6.06232 10.2417 6.3641 10.2794C6.7539 10.3423 7.06826 10.5058 7.25688 10.883C7.09341 10.8453 6.86707 10.9962 6.84193 10.6944C6.84193 10.6315 6.76648 10.619 6.71618 10.6315C6.43955 10.6567 6.13777 10.6315 6.01203 10.9459C5.9743 11.0339 5.87371 11.0716 5.76054 11.0842C5.81084 10.9207 5.87371 10.7698 5.62222 10.7195ZM5.04381 11.3608C5.04381 11.4488 5.18212 11.5494 4.98094 11.5746C4.81747 11.5997 4.71688 11.5369 4.66658 11.386C4.654 11.3608 4.66658 11.3231 4.66658 11.2854C4.74202 11.0465 4.65401 10.9333 4.38995 10.9082C4.21391 10.883 4.25163 10.7195 4.22648 10.6064C4.21391 10.4806 4.33965 10.5058 4.4151 10.4806C4.45282 10.4681 4.51569 10.4555 4.54084 10.4681C4.77975 10.5812 4.99351 10.5435 5.18213 10.3046C5.21985 10.5561 5.21985 10.7195 5.05638 10.8704C4.91807 11.0213 5.04381 11.2099 5.04381 11.3608ZM4.8049 9.99024C4.74203 9.99024 4.7043 9.97767 4.65401 9.91479C4.54084 9.7639 4.37737 9.78905 4.28935 9.93994C4.20133 10.0908 3.8744 10.1411 3.72351 10.0405C3.59777 9.95252 3.68579 9.88964 3.74866 9.83934C3.83668 9.7639 3.96242 9.68845 3.94985 9.56271C3.9247 9.31122 4.12589 9.21063 4.27678 9.04717C4.44024 8.8837 4.55341 8.88371 4.72945 9.00945C4.84262 9.09747 4.99351 9.16033 5.11925 9.21063C5.33301 9.29865 5.52163 9.38668 5.49648 9.65074C5.48391 9.75133 5.5845 9.85192 5.68509 9.78904C5.92401 9.63815 6.0246 9.83934 6.16291 9.93994C5.69767 9.85192 5.25757 9.95251 4.8049 9.99024ZM6.55272 6.97242C6.54014 7.07301 6.42697 7.07301 6.35153 7.09816C6.30123 7.11073 6.22579 7.03529 6.18806 7.11073C6.16292 7.17361 6.15034 7.28677 6.06232 7.2742C5.94915 7.24905 6.0246 7.13588 6.03717 7.06044C6.06232 6.87182 5.87371 6.80895 5.76054 6.60776C6.01202 6.67063 6.20064 6.72093 6.38925 6.75866C6.51499 6.78381 6.56529 6.87182 6.55272 6.97242ZM6.03717 5.65213C5.98688 5.55153 6.0246 5.50123 6.11262 5.50123C6.20064 5.48866 6.32638 5.35034 6.37668 5.51381C6.42697 5.72757 6.45212 5.96648 6.50242 6.19282C6.35153 6.00421 6.15034 5.86589 6.03717 5.65213ZM6.74133 5.33777C6.72876 5.52638 6.72876 5.71499 6.71618 5.90361C6.70361 5.90361 6.69103 5.90361 6.67846 5.91618C6.62816 5.72757 6.56529 5.53895 6.52757 5.35034C6.51499 5.27489 6.56529 5.1743 6.66588 5.1743C6.76648 5.1743 6.75391 5.26232 6.74133 5.33777ZM6.04975 3.91687C6.03717 3.9043 6.04975 3.86658 6.06232 3.85401C6.16292 3.75342 6.66589 3.85401 6.71618 3.99233C6.72876 4.03005 6.72876 4.0552 6.70361 4.08035C6.66589 4.11807 6.62816 4.11806 6.59044 4.09291C6.51499 4.04262 6.42698 4.0049 6.4144 4.11807C6.37668 4.445 6.06232 4.35697 5.87371 4.45757C6.13777 4.33183 6.15034 4.14321 6.04975 3.91687ZM5.82341 5.65213C5.94915 5.72757 6.0246 5.89103 6.11262 6.01677C6.11262 6.07964 6.06232 6.1048 6.0246 6.12994C5.9743 6.16767 5.89886 6.19282 5.87371 6.26826C5.86113 6.31856 5.87371 6.40658 5.77311 6.36886C5.72282 6.34371 5.64737 6.31855 5.67252 6.24311C5.69767 6.14251 5.64737 6.11737 5.55935 6.11737C5.29529 6.12994 5.40846 6.01678 5.48391 5.91618C5.50906 5.89104 5.52163 5.86588 5.54678 5.84073C5.6348 5.76529 5.74796 5.60183 5.82341 5.65213ZM5.76054 6.85925C5.79826 6.89698 5.78569 6.95985 5.74797 6.99757C5.65995 7.08559 5.54678 7.16104 5.39589 7.22391C5.42103 7.03529 5.55935 6.97242 5.6348 6.8844C5.65995 6.84667 5.71024 6.79638 5.76054 6.85925ZM5.37074 4.33183C5.35816 4.25638 5.43361 4.19351 5.50905 4.16837C5.5845 4.14322 5.62222 4.20608 5.65995 4.23123C5.76054 4.30668 5.68509 4.35698 5.64737 4.41985C5.60965 4.48272 5.54678 4.55817 5.54678 4.62104C5.62222 5.03599 5.25757 5.06114 4.98094 5.19945C4.98094 5.06114 5.21985 4.88509 4.85519 4.82222C5.1947 4.7342 5.43361 4.65876 5.37074 4.33183ZM4.11331 5.32519C4.12589 5.28747 4.17618 5.27489 4.18876 5.30004C4.27678 5.43836 4.52826 5.40064 4.56599 5.62697C4.59113 5.79044 4.72945 5.91618 4.95579 5.91618C4.81747 5.96648 4.74203 6.28083 4.52826 5.99163C4.50312 5.9539 4.32708 6.02935 4.21391 6.02935C4.07559 6.02935 4.02529 6.01678 4.10074 5.87846C4.13846 5.81559 4.21391 5.75272 4.12589 5.67727C4.05044 5.6144 4.00015 5.715 3.9247 5.68985C3.91213 5.53896 4.08817 5.46351 4.11331 5.32519ZM4.16361 7.33707C4.2642 7.29935 4.3648 7.23648 4.30193 7.13589C4.12589 6.80896 4.3145 6.68321 4.60371 6.60776C4.7546 7.03529 4.7546 7.03529 5.10668 6.9347C5.00608 7.09816 4.86777 7.24905 4.81747 7.41251C4.74203 7.62628 4.86777 7.76459 5.0941 7.77717C5.01866 8.06637 5.01866 8.07895 5.15698 8.28014C5.28272 8.22984 5.25757 8.04123 5.40846 8.0035C5.55935 8.39331 5.71024 8.79568 5.86113 9.18549C5.84856 9.19806 5.82341 9.22321 5.81084 9.23578C5.5342 8.97173 5.18212 8.82084 4.84262 8.65737C4.76717 8.61965 4.76717 8.55677 4.74203 8.4939C4.7043 8.41845 4.65401 8.34302 4.54084 8.39331C4.45282 8.43103 4.40252 8.40588 4.3648 8.33044C4.30193 8.21727 4.42767 8.22985 4.47797 8.2047C4.61628 8.11668 4.71688 8.00351 4.79232 7.87776C4.81747 7.82747 4.85519 7.77717 4.8049 7.7143C4.7546 7.65143 4.69173 7.67658 4.64143 7.70172C4.51569 7.75202 4.35222 7.85262 4.40252 7.57598C4.4151 7.51311 4.3648 7.45024 4.28935 7.46281C4.17618 7.48796 4.10074 7.56341 4.08816 7.664C4.08816 7.73945 4.11331 7.82747 4.12589 7.91548C3.79896 7.68915 3.8241 7.48796 4.16361 7.33707ZM4.07559 8.4436C3.975 8.61964 3.73609 8.63222 3.5349 8.68251C3.69836 8.5442 3.81153 8.38073 3.83668 8.1544C3.96242 8.24242 4.11331 8.38073 4.07559 8.4436ZM3.77381 5.75271C3.81153 5.76529 3.81153 5.81559 3.77381 5.82817C3.71094 5.86589 3.66064 5.89104 3.59777 5.91618C3.56005 5.92876 3.5349 5.89103 3.54747 5.85331C3.57262 5.75272 3.50975 5.67727 3.45945 5.57667C3.62292 5.57667 3.67321 5.71499 3.77381 5.75271ZM3.15767 8.04123C3.18282 8.15439 3.29599 8.28014 3.10737 8.35558C3.06965 8.36816 3.00678 8.3933 2.9942 8.35558C2.91876 8.19212 3.0948 8.14182 3.15767 8.04123ZM2.49124 9.95252C2.52896 9.95252 2.55411 9.95251 2.64213 9.93994C2.59183 10.0028 2.56668 10.0405 2.54153 10.0657C2.49124 10.1286 2.49124 10.2543 2.35292 10.2292C2.30262 10.2166 2.29005 10.1914 2.3152 10.1537C2.35292 10.0783 2.35292 9.96509 2.49124 9.95252ZM1.90025 12.2033C1.98827 12.153 1.88767 11.9644 2.06371 12.0273C2.12658 12.0524 2.29005 12.0147 2.25232 12.1153C2.2146 12.2662 2.05114 12.2285 1.90025 12.2033ZM2.49124 12.6308C2.45351 12.6057 2.36549 12.5931 2.39064 12.5428C2.45351 12.4296 2.45351 12.2787 2.6044 12.2285C2.66727 12.2159 2.66727 12.2662 2.67985 12.329C2.62955 12.4296 2.56668 12.5302 2.49124 12.6308ZM2.03856 11.4614C2.23975 11.3734 2.47866 11.3608 2.40322 11.0968C2.40322 11.0842 2.40322 11.0716 2.40322 11.0716C2.64213 10.971 2.6547 10.7447 2.67985 10.5309C2.67985 10.7321 2.79302 10.9082 2.76787 11.0716C2.71757 11.4237 2.49124 11.5494 2.03856 11.4614ZM3.20797 8.74539C3.24569 8.74539 3.27084 8.78311 3.25826 8.82083C3.17025 8.97172 3.01935 8.97172 2.80559 8.98429C2.91876 8.80825 3.05708 8.75796 3.20797 8.74539ZM3.22054 10.0908C3.23312 10.1789 3.10737 10.1411 3.05708 10.1286C2.95648 10.1034 2.93133 10.0028 2.9942 9.93994C3.08222 9.85192 3.08222 9.75133 3.11995 9.62558C3.29599 9.7639 3.18282 9.93994 3.22054 10.0908ZM3.11995 11.5243C3.35886 11.474 3.47203 11.2477 3.42173 11.0087C3.39658 10.8956 3.28341 10.9333 3.18282 10.8327C3.47203 10.8327 3.68579 10.7824 3.83668 10.5812C3.91212 10.4932 3.98757 10.5687 3.975 10.6567C3.94985 10.8579 4.06302 11.0465 3.975 11.2477C3.94985 11.298 3.975 11.3608 4.01272 11.4111C4.27678 11.7381 4.54084 12.0776 4.8049 12.4045C4.84262 12.4548 4.93064 12.4548 4.95579 12.5302C4.89292 12.5931 4.8049 12.568 4.72945 12.5805C4.54084 12.6057 4.38995 12.6057 4.44024 12.3416C4.46539 12.2033 4.44024 12.0147 4.17618 12.1153C4.08816 12.153 3.86183 11.8387 3.89955 11.7381C3.975 11.4991 3.88698 11.298 3.76123 11.0968C3.72351 11.0339 3.67322 11.0213 3.61034 11.0339C3.56005 11.0465 3.50975 11.0842 3.52232 11.1345C3.61034 11.5872 3.17024 11.562 2.93133 11.7884C2.90619 11.6249 2.96906 11.562 3.11995 11.5243ZM3.11995 12.2536C3.27084 12.2662 3.27084 12.4171 3.28341 12.5051C3.29599 12.6308 3.27084 12.6937 3.1451 12.6937C2.95648 12.6937 2.94391 12.5428 2.93133 12.4422C2.91876 12.3416 3.03193 12.241 3.11995 12.2536ZM2.95648 14.7433C2.95648 14.6176 3.01935 14.5295 3.15767 14.5295C3.30856 14.5295 3.27084 14.6553 3.28341 14.7307C3.30856 14.8313 3.24569 14.869 3.13252 14.8439C3.08222 14.8062 2.95648 14.8816 2.95648 14.7433ZM3.32114 15.4223C3.33371 15.46 3.33371 15.5355 3.25826 15.5355C3.18282 15.5355 3.1451 15.46 3.18282 15.4097C3.23312 15.3217 3.19539 15.1834 3.34628 15.1583C3.40916 15.2588 3.28341 15.3343 3.32114 15.4223ZM3.40915 13.9511C3.34628 13.9888 3.27084 13.9511 3.23312 13.838C3.42173 13.8505 3.58519 13.8505 3.73609 13.7625C3.81153 13.7122 4.03787 13.8883 4.03787 13.9763C4.03787 14.0391 3.98757 14.0643 3.94985 14.0894C3.91212 14.1272 3.86183 14.1146 3.83668 14.0769C3.72351 13.926 3.59777 13.8505 3.40915 13.9511ZM4.08816 15.4852C3.93727 15.4726 3.96242 15.2714 3.77381 15.2337C3.67321 15.2085 3.77381 14.8188 3.91213 14.6804C4.03787 14.5673 4.16361 14.4667 4.30193 14.6679C4.07559 14.7685 4.03787 14.9068 4.17618 15.1583C4.22648 15.2463 4.2642 15.3343 4.42767 15.3972C4.27678 15.4475 4.17618 15.4978 4.08816 15.4852ZM4.98094 14.9068C4.95579 14.9193 4.93064 14.9445 4.91806 14.9319C4.71688 14.8816 4.51569 14.8187 4.3145 14.7559C4.27678 14.7433 4.28935 14.7056 4.3145 14.6679C4.57856 14.8062 4.81747 14.5924 5.08153 14.6176C5.16955 14.6301 5.25757 14.5924 5.43361 14.5673C5.23242 14.7182 5.10668 14.8187 4.98094 14.9068ZM7.44549 14.9571C7.54608 14.9822 7.47064 15.0702 7.40776 15.0828C7.25687 15.108 7.11856 15.1457 7.01796 15.2714C6.99282 15.3091 6.87965 15.3343 6.84193 15.3091C6.67846 15.2086 6.59044 15.2086 6.4647 15.3972C6.38925 15.5103 6.16292 15.3594 5.99945 15.3594C5.94915 15.3594 5.88628 15.3091 5.83598 15.2966C5.69767 15.2588 5.72282 15.1834 5.81084 15.1205C5.99945 14.9696 6.33895 14.9696 6.57786 15.108C6.62816 15.1331 6.66589 15.1205 6.70361 15.108C6.87965 15.0199 7.04311 14.9193 7.13113 14.7559C7.16886 14.6804 7.194 14.5924 7.09341 14.5421C6.99281 14.4918 6.94252 14.5547 6.91737 14.6301C6.86707 14.7559 6.77905 14.781 6.66588 14.7307C6.51499 14.6804 6.35153 14.7559 6.17549 14.7433C6.31381 14.605 6.4647 14.5421 6.60301 14.4667C6.72876 14.3912 6.81677 14.3158 6.65331 14.2152C6.57786 14.1649 6.57787 14.1146 6.64074 14.0769C6.8042 13.9763 6.92995 13.8128 7.15628 13.7877C7.194 14.0769 6.70361 14.1146 6.8545 14.4667C7.03054 14.4038 7.18143 14.3032 7.2946 14.1397C7.33232 14.0894 7.37004 14.0266 7.43291 14.0391C7.52093 14.0643 7.48321 14.1523 7.48321 14.2026C7.47064 14.3283 7.40777 14.4289 7.35747 14.5421C7.26945 14.6679 7.09341 14.869 7.44549 14.9571ZM7.33232 13.4985C7.25687 13.5362 7.23173 13.4733 7.194 13.4104C7.11856 13.2973 7.04311 13.1087 6.84193 13.3224C6.77905 13.3853 6.66589 13.4481 6.51499 13.335C6.27608 13.1589 5.93658 13.2721 5.86113 13.5362C5.82341 13.6745 5.74796 13.7499 5.60965 13.7877C5.47133 13.8128 5.35816 13.8883 5.28272 13.9888C5.20727 13.9386 5.20727 13.8757 5.20727 13.8254C5.1947 13.7374 5.18212 13.6619 5.08153 13.6242C4.96836 13.5865 4.95579 13.6745 4.93064 13.7374C4.93064 13.7499 4.90549 13.7751 4.89292 13.7751C4.38995 13.7122 4.7043 14.0517 4.65401 14.2152C4.65401 14.2278 4.64143 14.2278 4.62886 14.2529C4.57856 14.1649 4.51569 14.0769 4.37737 14.1272C4.28935 14.1649 4.17618 14.1272 4.20133 14.0266C4.22648 13.9385 4.25163 13.7625 4.38995 13.7877C4.54084 13.8128 4.55341 13.7625 4.57856 13.6619C4.59113 13.6116 4.62886 13.5487 4.64143 13.4985C4.76717 13.1464 4.61628 12.9326 4.18876 12.8823C4.3145 12.744 4.47797 12.7566 4.61628 12.744C4.7043 12.7314 4.72945 12.7817 4.72945 12.8446C4.71688 13.0081 4.86777 13.1086 4.88034 13.2595C4.89292 13.3727 5.13183 13.3476 5.23242 13.2218C5.29529 13.1464 5.29529 13.0458 5.40846 13.0081C5.42103 13.0081 5.44618 13.0081 5.44618 13.0206C5.49648 13.0961 5.50905 13.2344 5.62222 13.1967C5.69767 13.1715 5.67252 13.0584 5.67252 12.9703C5.67252 12.8572 5.68509 12.7566 5.60965 12.6308C6.47727 12.9075 7.37004 13.0206 8.25024 13.2595C7.93588 13.3224 7.62153 13.3476 7.33232 13.4985ZM8.36341 13.4985C8.33826 13.599 8.26281 13.5739 8.19994 13.5739C8.1245 13.5739 8.01133 13.5487 7.97361 13.6116C7.84786 13.8254 7.78499 13.6368 7.6341 13.5739C7.92331 13.511 8.13707 13.4607 8.36341 13.4985ZM8.26281 16.0887C8.23767 16.1516 8.17479 16.139 8.1245 16.1139C7.97361 16.0385 7.81014 16.0007 7.6341 15.9756C7.84786 15.7115 8.03648 15.9127 8.22509 15.963C8.27539 15.9756 8.28796 16.0384 8.26281 16.0887ZM8.23766 14.2529C8.04905 14.3409 7.84786 14.4164 7.74727 14.6176C7.7347 14.6301 7.69697 14.6427 7.6844 14.6427C7.59638 14.6176 7.65925 14.5673 7.67183 14.5044C7.60895 14.3912 7.72212 14.3661 7.78499 14.2906C7.92331 14.1523 8.14965 14.1146 8.23766 13.9385C8.25024 13.9134 8.30054 13.9008 8.32569 13.926C8.35084 13.9511 8.37598 13.9888 8.36341 14.0014C8.33826 14.0894 8.36341 14.2026 8.23766 14.2529ZM8.52687 13.4985C9.04242 13.3727 9.36935 13.6745 9.77172 13.8883C9.54539 13.9385 9.50767 13.9385 9.26875 13.8505C9.13044 13.8002 9.0047 13.7122 8.84123 13.7877C8.79093 13.8128 8.74063 13.8002 8.75321 13.7374C8.77836 13.5739 8.60232 13.5865 8.52687 13.4985ZM8.86638 15.0577C8.79093 15.0954 8.71549 15.1834 8.64004 15.0577C8.58975 14.9571 8.69034 14.9193 8.75321 14.8942C9.08014 14.8187 8.9041 14.5547 8.97955 14.3786C9.00469 14.3158 8.87895 14.3284 8.81608 14.3032C9.10529 13.9511 9.19331 13.9385 9.74657 14.2026C9.65855 14.2529 9.57054 14.2655 9.46994 14.2655C9.33163 14.2655 9.26876 14.3535 9.2939 14.4541C9.30648 14.5924 9.43222 14.517 9.49509 14.5044C9.67113 14.4667 9.85974 14.4541 10.0106 14.3409C10.1238 14.2529 10.237 14.3409 10.325 14.4164C10.0484 14.4415 9.7843 14.4918 9.62083 14.7685C9.55796 14.869 9.31905 14.9445 9.18073 14.9193C9.01727 14.9193 8.9544 15.0074 8.86638 15.0577ZM10.5136 15.108C10.2244 15.3217 10.0232 15.6235 9.69628 15.8121C9.70885 15.787 9.70885 15.7492 9.72143 15.7241C9.74658 15.6361 9.83459 15.5229 9.734 15.4475C9.63341 15.3594 9.54539 15.4475 9.45737 15.4978C9.33162 15.5606 9.33162 15.5481 9.30648 15.3972C9.2436 15.1205 9.41965 15.0828 9.60826 15.0577C9.87232 15.0199 10.1489 14.9445 10.4256 14.9948C10.4885 14.9948 10.6268 15.0199 10.5136 15.108ZM10.5136 14.5924C10.5136 14.517 10.3376 14.5547 10.3501 14.4415C10.5513 14.4541 10.6771 14.5673 10.7777 14.7056C10.6896 14.6679 10.4885 14.8816 10.5136 14.5924ZM10.2998 13.9888C9.99806 13.7877 9.70885 13.599 9.40707 13.4104C9.33163 13.3601 9.24361 13.3098 9.14301 13.2973C8.35083 13.1212 7.5838 12.8446 6.77905 12.7566C6.62816 12.744 6.47727 12.6685 6.32638 12.6182C5.9743 12.4925 5.62222 12.3919 5.23242 12.4422C5.04381 12.4674 5.06896 12.2536 4.96836 12.1656C4.89292 12.0901 4.98094 12.0524 5.01866 12.0147C5.0941 11.9392 5.16955 11.8512 5.25757 11.7758C5.32044 11.7129 5.35816 11.65 5.43361 11.7884C5.49648 11.9267 5.5845 11.8638 5.62222 11.7506C5.67252 11.6123 5.74797 11.4866 5.86113 11.3986C5.89886 11.3608 5.98688 11.3105 6.04975 11.386C6.08747 11.4363 6.06232 11.4992 6.01203 11.5369C5.98688 11.562 5.94915 11.5746 5.93658 11.5997C5.91143 11.6752 5.84856 11.7632 5.924 11.8261C6.01202 11.9015 6.01202 11.7506 6.06232 11.7506C6.35153 11.7381 6.33895 11.5243 6.3641 11.3357C6.38925 11.0968 6.61559 11.1722 6.75391 11.1219C6.89222 11.0716 6.91737 11.1848 6.92994 11.298C6.94252 11.3986 6.92994 11.4991 7.01796 11.5872C7.11856 11.4991 7.16886 11.3734 7.13113 11.2728C7.05569 11.0842 7.194 11.0968 7.2946 11.0968C7.42034 11.0968 7.54608 11.1219 7.6341 11.2099C7.81014 11.3608 7.98618 11.5117 8.16222 11.6626C8.32569 11.8135 8.38856 11.9518 8.19994 12.1279C8.1245 12.2033 8.18737 12.6183 8.28796 12.6685C8.36341 12.7063 8.41371 12.6811 8.42628 12.6057C8.43885 12.5302 8.43885 12.4548 8.43885 12.3793C8.43885 12.2788 8.5143 12.2536 8.58974 12.2285C8.66519 12.2033 8.70291 12.241 8.74064 12.2913C9.19331 12.8194 9.75915 13.2595 10.2244 13.7877C10.3501 13.926 10.5262 14.014 10.6896 14.1146C10.8028 14.1775 10.9034 14.2529 10.9914 14.4289C10.7148 14.2655 10.5136 14.1272 10.2998 13.9888ZM9.62083 12.5805C9.72143 12.5554 9.80945 12.5302 9.89747 12.5931C10.0987 12.7314 10.2118 12.6434 10.2998 12.4548C10.3376 12.3668 10.325 12.2536 10.4759 12.153C10.7902 12.92 11.0291 13.6996 11.3812 14.4289C10.8028 13.8002 9.98549 13.3979 9.62083 12.5805ZM11.1926 13.1087C10.9663 12.4674 10.5513 11.9392 10.0735 11.4363C9.84717 11.1974 9.72142 10.8956 9.74657 10.5687C9.79687 9.95251 9.77172 9.33638 9.98549 8.74539C10.0735 8.50648 10.1741 8.26757 10.2873 7.97836C10.325 8.07895 10.3376 8.11668 10.3627 8.16698C10.4256 8.30529 10.501 8.28014 10.5513 8.16698C10.6268 8.00351 10.7148 7.82747 10.7651 7.65143C10.828 7.41252 10.4759 7.12331 10.2495 7.21133C10.1112 7.26163 10.0987 7.06044 9.97291 7.14846C9.94776 7.08558 9.96034 7.02272 9.97291 6.98499C10.0609 6.82153 10.1364 6.64549 10.237 6.4946C10.6142 5.97905 10.8657 5.40064 11.1423 4.8348C11.2555 4.94797 11.1297 5.22459 11.3561 5.21202C11.5195 5.19945 11.6327 4.99826 11.5824 4.7845C11.7333 5.11143 11.9596 5.38807 11.9974 5.74015C12.0099 5.90361 11.9848 6.06707 12.0099 6.24311C12.0225 6.394 11.9093 6.45688 11.8088 6.50718C11.7333 6.5449 11.6327 6.53231 11.6579 6.41915C11.7207 6.20538 11.6327 6.0545 11.4441 5.95391C11.3812 5.91618 11.3812 5.87846 11.4064 5.82817C11.4315 5.75272 11.4441 5.6647 11.3435 5.63955C11.2555 5.6144 11.1675 5.6647 11.1423 5.74015C11.1046 5.86589 11.004 5.90361 10.8908 5.96648C10.7274 6.0545 10.7525 6.23054 10.8028 6.36886C10.8531 6.50717 10.9411 6.41915 11.0291 6.38143C11.1675 6.31855 11.2178 6.4443 11.2429 6.5449C11.2932 6.77123 11.3309 6.98499 11.6327 7.04786C11.7082 7.06043 11.6956 7.13588 11.6956 7.19875C11.683 7.39994 11.6704 7.61371 11.4944 7.7646C11.3938 7.85262 11.3812 7.95321 11.4064 8.06638C11.4315 8.24242 11.3812 8.33043 11.1675 8.30528C11.0291 8.28013 10.8908 8.29271 10.9286 8.4939C10.9663 8.64479 10.8531 8.8837 11.18 8.85855C11.2303 8.85855 11.3058 8.80826 11.3435 8.88371C11.3687 8.92143 11.3561 8.94658 11.3309 8.97173C11.2806 9.02202 11.2178 8.99687 11.1549 8.97173C11.0166 8.934 10.8657 8.90885 10.7399 8.82083C10.6519 8.75796 10.589 8.77053 10.589 8.90885C10.589 9.07232 10.5639 9.22321 10.7274 9.33638C10.828 9.39925 10.7777 9.49984 10.7902 9.58786C10.8154 9.7136 10.7651 9.86449 10.9789 9.92736C11.1046 9.95251 10.9914 10.0783 11.004 10.204C10.8531 10.0154 10.6519 9.92737 10.501 9.77648C10.4004 10.0908 10.5513 10.3926 10.5639 10.707C10.5639 10.7573 10.6016 10.8201 10.6519 10.8076C10.9286 10.7447 10.8783 10.9459 10.8783 11.0716C10.8154 12.0147 11.3184 12.7817 11.6704 13.599C11.7962 13.8883 11.8842 14.1775 11.9471 14.4792C11.7082 14.014 11.3687 13.599 11.1926 13.1087Z" fill="#020303"/>
<path d="M1.92546 15.3343C1.86258 15.1708 1.69912 15.0576 1.53565 14.9948C1.44763 14.957 1.43506 15.0576 1.43506 15.1331C1.43506 15.3343 1.5608 15.46 1.76199 15.46C1.82486 15.4349 1.96318 15.4349 1.92546 15.3343Z" fill="#020303"/>
<path d="M10.2245 9.36159C10.1365 9.48733 10.1616 9.66337 10.2371 9.78911C10.3125 9.92743 10.4257 9.82684 10.5137 9.75139C10.4886 9.6508 10.4634 9.55021 10.4383 9.44961C10.4131 9.34902 10.2748 9.29872 10.2245 9.36159Z" fill="#020303"/>
<path d="M10.6394 6.53234C10.5137 6.55748 10.5514 6.65807 10.5388 6.73352C10.564 6.79639 10.5137 6.89699 10.6017 6.89699C10.7526 6.88442 10.6897 6.72095 10.74 6.63293C10.7777 6.57006 10.7149 6.51976 10.6394 6.53234Z" fill="#020303"/>
<path d="M9.44484 8.51912C9.50771 8.41852 9.49514 8.29277 9.52029 8.17961C9.54544 8.07901 9.60831 7.92812 9.46999 7.90297C9.3694 7.8904 9.2688 8.01614 9.23108 8.12931C9.2185 8.19218 9.21851 8.25505 9.21851 8.31792C9.21851 8.3808 9.21851 8.43109 9.21851 8.49396C9.23108 8.56941 9.21851 8.65743 9.3191 8.67C9.4197 8.67 9.41969 8.56941 9.44484 8.51912Z" fill="#020303"/>
<path d="M9.10545 8.88367C9.09288 8.83338 9.06773 8.78308 9.00486 8.79566C8.94199 8.80823 8.91684 8.87109 8.92941 8.94654C8.99228 9.05971 8.91684 9.23575 9.06773 9.34892C9.10545 9.37406 9.15575 9.42436 9.20605 9.39921C9.25634 9.37407 9.25634 9.31119 9.24377 9.2609C9.19347 9.13515 9.14317 9.00942 9.10545 8.88367Z" fill="#020303"/>
<path d="M7.47099 12.3793C7.39554 12.3667 7.3704 12.4422 7.38297 12.5051C7.39554 12.5931 7.38297 12.7314 7.49614 12.744C7.59673 12.7565 7.57158 12.6308 7.59673 12.5679C7.59673 12.4673 7.58416 12.3793 7.47099 12.3793Z" fill="#020303"/>
<path d="M18.7877 11.4866C18.6871 11.4991 18.5865 11.5243 18.5614 11.6249C18.5236 11.7758 18.5111 11.9518 18.6368 12.0524C18.8003 12.2033 18.838 12.4045 18.8128 12.568C18.7625 12.8194 18.8757 13.0206 18.9009 13.247C18.9134 13.3978 19.0015 13.4859 19.1649 13.4607C19.2404 13.4859 19.3158 13.4859 19.3535 13.4356C19.5044 13.2218 19.5924 12.9955 19.5799 12.744C19.5421 12.2913 19.1649 11.9895 19.0015 11.5997C18.9637 11.5117 18.8883 11.4866 18.7877 11.4866Z" fill="#020303"/>
<path d="M16.3733 11.7129C16.3482 11.6375 16.2979 11.6375 16.2224 11.6375C15.9207 11.6249 15.8452 11.7004 15.8201 12.1279C15.9961 12.0273 16.147 11.9519 16.2979 11.8638C16.3608 11.8261 16.3859 11.7758 16.3733 11.7129Z" fill="#020303"/>
<path d="M17.0272 7.42511C17.0901 7.42511 17.1278 7.34967 17.1278 7.29937C17.1278 7.2365 17.0524 7.21135 16.9895 7.19877C16.9266 7.1862 16.8763 7.17363 16.7883 7.16105C16.9769 6.97244 16.8386 6.82155 16.8009 6.65808C16.6626 6.68323 16.6374 6.7964 16.562 6.85927C16.2853 7.09818 16.2979 7.16105 16.6752 7.52571C16.826 7.6766 16.9015 7.43768 17.0272 7.42511Z" fill="#020303"/>
<path d="M16.2977 8.59453C16.2474 8.72027 16.1468 8.82087 16.1971 8.97176C16.1971 8.98433 16.2348 8.9969 16.2474 9.00948C16.3605 9.00948 16.6497 8.6574 16.6246 8.5568C16.612 8.49393 16.5617 8.49394 16.5114 8.48136C16.3982 8.46879 16.3354 8.50651 16.2977 8.59453Z" fill="#020303"/>
<path d="M38.303 14.0265C37.1085 13.9008 36.1905 13.687 35.5618 13.3852C34.9331 13.0834 34.493 12.7188 34.2541 12.2913C34.0152 11.8637 33.902 11.4362 33.902 10.971C33.902 10.0656 34.2793 9.39918 35.0463 8.95908C35.8133 8.51899 36.7564 8.3178 37.8881 8.33037C38.5293 8.33037 39.0952 8.41839 39.5604 8.59443C40.0257 8.77047 40.4532 9.00938 40.8053 9.31116C41.1574 9.61294 41.4592 9.99017 41.6981 10.4303C41.8615 10.7195 42.113 10.9207 42.4525 11.0213C42.792 11.1344 43.1064 11.0841 43.3956 10.9081C43.6596 10.7446 43.8105 10.5057 43.8483 10.2039C43.886 9.90215 43.798 9.58779 43.5842 9.24829C43.207 8.61957 42.7543 8.07889 42.2262 7.61364C41.7106 7.16097 41.0945 6.79631 40.4029 6.53225C39.7113 6.2682 38.894 6.14246 37.9635 6.14246C36.769 6.14246 35.6876 6.33106 34.7194 6.69572C33.7511 7.06037 32.9841 7.60106 32.4183 8.30522C31.8524 9.00938 31.5758 9.86443 31.5758 10.8704C31.5758 12.241 32.1165 13.3978 33.1979 14.3283C34.2793 15.2588 35.7756 15.8246 37.6743 16.0007C39.1329 16.1516 40.164 16.5539 40.8053 17.1952C41.434 17.8365 41.7609 18.5658 41.7609 19.3706C41.7609 20.0118 41.5723 20.5525 41.1825 20.9926C40.8053 21.4327 40.3023 21.7597 39.6862 21.986C39.07 22.2123 38.391 22.3255 37.6617 22.3255C37.0079 22.3255 36.3792 22.2249 35.7756 22.0237C35.1846 21.8225 34.6691 21.5585 34.2541 21.2441C33.8392 20.9172 33.5374 20.5651 33.3488 20.1879C33.2104 19.8987 33.0093 19.6849 32.7452 19.534C32.4811 19.3831 32.2045 19.3454 31.9279 19.4083C31.5506 19.4837 31.274 19.6598 31.1105 19.9364C30.9471 20.213 30.9471 20.5148 31.098 20.8292C31.3998 21.5459 31.8901 22.1872 32.544 22.7279C33.1979 23.2811 33.9775 23.7087 34.8577 24.0105C35.7379 24.3122 36.6809 24.4757 37.6617 24.4757C38.4916 24.4757 39.2838 24.3625 40.0634 24.1488C40.843 23.935 41.522 23.6081 42.1256 23.168C42.7291 22.7279 43.207 22.1872 43.5716 21.5459C43.9363 20.9046 44.1123 20.1502 44.1123 19.27C44.1123 17.7611 43.5968 16.5414 42.5908 15.6109C41.5849 14.6804 40.1137 14.2025 38.303 14.0265Z" fill="#020303"/>
<path d="M56.3976 12.5051C55.4545 11.9518 54.3732 11.6626 53.1912 11.6626C52.0092 11.6626 50.9278 11.9392 49.9722 12.5051C49.0165 13.0583 48.2621 13.8254 47.6962 14.781C47.143 15.7492 46.8538 16.8306 46.8538 18.0377C46.8538 19.2449 47.1052 20.3263 47.6208 21.2819C48.1363 22.2375 48.8279 22.992 49.7207 23.5578C50.6135 24.1111 51.6068 24.4003 52.7259 24.4003C53.845 24.4003 54.8384 24.1237 55.7312 23.5578C56.2844 23.2183 56.7497 22.7782 57.1521 22.2878V23.1555C57.1521 23.495 57.2652 23.7716 57.479 23.9979C57.7053 24.2243 57.982 24.3249 58.3215 24.3249C58.661 24.3249 58.9376 24.2117 59.1639 23.9979C59.3903 23.7716 59.4909 23.495 59.4909 23.1555V18.0377C59.4909 16.8306 59.2142 15.7492 58.6484 14.781C58.0951 13.8128 57.3407 13.0583 56.3976 12.5051ZM56.712 20.2257C56.3599 20.8795 55.8821 21.3825 55.2659 21.7597C54.6498 22.1369 53.9582 22.3256 53.1786 22.3256C52.4116 22.3256 51.72 22.1369 51.1039 21.7597C50.4877 21.3825 49.9973 20.8669 49.6327 20.2257C49.268 19.5718 49.092 18.8425 49.092 18.0377C49.092 17.2078 49.268 16.4785 49.6327 15.8247C49.9973 15.1708 50.4877 14.6678 51.1039 14.2906C51.72 13.9134 52.4116 13.7248 53.1786 13.7248C53.9582 13.7248 54.6498 13.9134 55.2659 14.2906C55.8821 14.6678 56.3599 15.1834 56.712 15.8247C57.064 16.4785 57.2401 17.2078 57.2401 18.0377C57.2401 18.8551 57.064 19.5844 56.712 20.2257Z" fill="#020303"/>
<path d="M78.4776 12.2159C77.7985 11.8386 77.0315 11.6375 76.1639 11.6375C75.1705 11.6375 74.2903 11.8512 73.5107 12.2787C72.9575 12.5931 72.5174 13.0206 72.1401 13.4984C71.7881 12.9703 71.3731 12.5176 70.845 12.2159C70.166 11.8386 69.3989 11.6375 68.5313 11.6375C67.626 11.6375 66.8212 11.8512 66.1171 12.2787C65.8153 12.4674 65.5512 12.6937 65.3123 12.9326C65.3123 12.5805 65.1991 12.3039 64.998 12.0901C64.7842 11.8764 64.495 11.7632 64.1555 11.7632C63.816 11.7632 63.5393 11.8764 63.313 12.0901C63.0867 12.3039 62.9861 12.5931 62.9861 12.9452V23.1555C62.9861 23.495 63.0992 23.7716 63.313 23.9979C63.5393 24.2243 63.816 24.3249 64.1555 24.3249C64.5076 24.3249 64.7842 24.2117 64.998 23.9979C65.2117 23.7716 65.3123 23.495 65.3123 23.1555V16.6797C65.3123 15.8247 65.5764 15.1205 66.0919 14.5673C66.6075 14.014 67.2739 13.7374 68.0661 13.7374C68.8331 13.7374 69.4492 13.9763 69.9271 14.4415C70.4049 14.9068 70.6438 15.6235 70.6438 16.5917V23.1555C70.6438 23.495 70.757 23.7716 70.9707 23.9979C71.1971 24.2243 71.4737 24.3249 71.8132 24.3249C72.1653 24.3249 72.4419 24.2117 72.6557 23.9979C72.8694 23.7716 72.9826 23.495 72.9826 23.1555V16.6797C72.9826 15.8247 73.2341 15.1205 73.7496 14.5673C74.2652 14.014 74.919 13.7374 75.7112 13.7374C76.4782 13.7374 77.0944 13.9763 77.5722 14.4415C78.05 14.9068 78.2889 15.6235 78.2889 16.5917V23.1555C78.2889 23.495 78.4021 23.7716 78.6159 23.9979C78.8422 24.2243 79.1188 24.3249 79.4583 24.3249C79.8104 24.3249 80.0871 24.2117 80.3008 23.9979C80.5146 23.7716 80.6277 23.495 80.6277 23.1555V16.5917C80.6277 15.5355 80.4391 14.6427 80.0619 13.9008C79.6847 13.1589 79.1566 12.5931 78.4776 12.2159Z" fill="#020303"/>
<path d="M93.4411 12.4799C92.498 11.9392 91.404 11.6626 90.1843 11.6626C88.9521 11.6626 87.8581 11.9392 86.9025 12.4799C85.9468 13.0206 85.2049 13.7751 84.6643 14.7307C84.1236 15.6863 83.8469 16.7929 83.8469 18.0503C83.8469 19.2826 84.0984 20.3891 84.6014 21.3448C85.1043 22.3004 85.7959 23.0549 86.6761 23.5956C87.5563 24.1362 88.5623 24.4129 89.7191 24.4129C90.7753 24.4129 91.7058 24.1488 92.5106 23.5956C93.2147 23.1177 93.7806 22.4764 94.2333 21.6968V22.8537C94.2333 23.847 94.0446 24.6895 93.68 25.3811C93.3153 26.0727 92.8249 26.5882 92.1962 26.9403C91.5801 27.2924 90.9011 27.4684 90.1718 27.4684C89.3796 27.4684 88.6629 27.3175 88.0341 27.0283C87.4054 26.7391 86.8899 26.3367 86.4749 25.8086C86.2863 25.5697 86.0474 25.4062 85.7582 25.3434C85.4564 25.2805 85.1672 25.3434 84.9032 25.532C84.6643 25.6955 84.5134 25.9218 84.4505 26.1984C84.3876 26.4751 84.4631 26.7391 84.6643 27.0032C85.3181 27.8331 86.1229 28.4618 87.0785 28.8893C88.0216 29.3168 89.0401 29.5306 90.134 29.5306C91.3915 29.5306 92.498 29.2414 93.4536 28.663C94.4093 28.0846 95.1512 27.305 95.6919 26.3116C96.2326 25.3308 96.4966 24.2243 96.4966 23.0171V18.0629C96.4966 16.8055 96.22 15.6989 95.6793 14.7433C95.1386 13.7876 94.3841 13.0206 93.4411 12.4799ZM92.2968 21.7723C91.6807 22.1369 90.9765 22.3256 90.1843 22.3256C89.3922 22.3256 88.688 22.1369 88.0719 21.7723C87.4557 21.4076 86.9779 20.9047 86.6258 20.2634C86.2738 19.6221 86.0977 18.8802 86.0977 18.0377C86.0977 17.1953 86.2738 16.4534 86.6258 15.7995C86.9779 15.1457 87.4557 14.6427 88.0719 14.278C88.688 13.9134 89.3922 13.7248 90.1843 13.7248C90.9765 13.7248 91.6807 13.9134 92.2968 14.278C92.913 14.6427 93.3908 15.1582 93.7303 15.7995C94.0698 16.4534 94.2458 17.1953 94.2458 18.0377C94.2458 18.8802 94.0698 19.6221 93.7303 20.2634C93.3908 20.9047 92.9004 21.4076 92.2968 21.7723Z" fill="#555656"/>
<path d="M108.178 12.0649C107.725 11.7631 107.046 11.6122 106.129 11.6122C105.211 11.6122 104.368 11.8259 103.601 12.2535C103.073 12.5427 102.645 12.9451 102.268 13.3726V12.8948C102.268 12.5175 102.168 12.2283 101.979 12.0397C101.79 11.8511 101.501 11.7505 101.124 11.7505C100.759 11.7505 100.47 11.8511 100.282 12.0523C100.093 12.2535 99.9797 12.5301 99.9797 12.8948V23.1428C99.9797 23.52 100.08 23.8092 100.282 23.9978C100.483 24.1864 100.759 24.287 101.124 24.287C101.501 24.287 101.79 24.1864 101.979 23.9852C102.168 23.784 102.268 23.5074 102.268 23.1428V16.4407C102.268 15.7365 102.495 15.1581 102.947 14.6929C103.4 14.2402 104.016 13.9258 104.796 13.7498C105.575 13.5863 106.455 13.5989 107.436 13.8001C107.637 13.8504 107.813 13.8504 107.99 13.8253C108.153 13.8001 108.304 13.7247 108.442 13.6115C108.568 13.4983 108.656 13.3349 108.706 13.1211C108.794 12.7187 108.618 12.3666 108.178 12.0649Z" fill="#555656"/>
<path d="M118.828 12.4548C117.973 11.9267 116.942 11.6626 115.76 11.6626C114.553 11.6626 113.484 11.9392 112.554 12.4799C111.623 13.0206 110.894 13.7751 110.366 14.7307C109.838 15.6863 109.574 16.7929 109.574 18.0503C109.574 19.2826 109.85 20.3891 110.416 21.3448C110.969 22.3004 111.749 23.0549 112.73 23.5956C113.711 24.1362 114.842 24.4129 116.112 24.4129C116.817 24.4129 117.558 24.2871 118.325 24.0231C119.092 23.759 119.746 23.4321 120.262 23.0171C120.526 22.816 120.639 22.577 120.626 22.3004C120.614 22.0238 120.476 21.7723 120.212 21.546C120.01 21.3825 119.784 21.2945 119.507 21.307C119.243 21.3196 118.992 21.4076 118.766 21.5711C118.464 21.7974 118.061 21.9986 117.558 22.1747C117.068 22.3507 116.578 22.4387 116.1 22.4387C115.232 22.4387 114.453 22.2501 113.786 21.8603C113.107 21.4831 112.579 20.955 112.202 20.3011C111.95 19.861 111.787 19.3832 111.699 18.8551H120.413C120.715 18.8551 120.966 18.7545 121.167 18.5659C121.368 18.3772 121.469 18.1383 121.469 17.8491C121.469 16.642 121.243 15.5732 120.79 14.6427C120.337 13.7122 119.683 12.9829 118.828 12.4548ZM113.522 14.2026C114.138 13.8254 114.88 13.6242 115.76 13.6242C116.527 13.6242 117.169 13.8002 117.709 14.1523C118.25 14.5044 118.652 14.9822 118.942 15.5858C119.143 16.0133 119.256 16.4911 119.331 16.9941H111.737C111.812 16.554 111.938 16.139 112.114 15.7618C112.428 15.1079 112.893 14.5924 113.522 14.2026Z" fill="#555656"/>
<path d="M132.61 12.4548C131.755 11.9267 130.723 11.6626 129.542 11.6626C128.334 11.6626 127.266 11.9392 126.335 12.4799C125.405 13.0206 124.675 13.7751 124.147 14.7307C123.619 15.6863 123.355 16.7929 123.355 18.0503C123.355 19.2826 123.632 20.3891 124.197 21.3448C124.751 22.3004 125.53 23.0549 126.511 23.5956C127.492 24.1362 128.624 24.4129 129.894 24.4129C130.598 24.4129 131.34 24.2871 132.107 24.0231C132.874 23.759 133.528 23.4321 134.043 23.0171C134.307 22.816 134.42 22.577 134.408 22.3004C134.395 22.0238 134.257 21.7723 133.993 21.546C133.792 21.3825 133.565 21.2945 133.289 21.307C133.025 21.3196 132.773 21.4076 132.547 21.5711C132.245 21.7974 131.843 21.9986 131.34 22.1747C130.849 22.3507 130.359 22.4387 129.881 22.4387C129.013 22.4387 128.234 22.2501 127.567 21.8603C126.888 21.4831 126.36 20.955 125.983 20.3011C125.732 19.861 125.568 19.3832 125.48 18.8551H134.194C134.496 18.8551 134.747 18.7545 134.948 18.5659C135.15 18.3772 135.25 18.1383 135.25 17.8491C135.25 16.642 135.024 15.5732 134.571 14.6427C134.119 13.7122 133.465 12.9829 132.61 12.4548ZM127.303 14.2026C127.919 13.8254 128.661 13.6242 129.542 13.6242C130.309 13.6242 130.95 13.8002 131.491 14.1523C132.031 14.5044 132.434 14.9822 132.723 15.5858C132.924 16.0133 133.037 16.4911 133.113 16.9941H125.518C125.593 16.554 125.719 16.139 125.895 15.7618C126.209 15.1079 126.687 14.5924 127.303 14.2026Z" fill="#555656"/>
<path d="M149.271 14.3032C148.793 13.4356 148.127 12.7691 147.297 12.3165C146.467 11.8638 145.524 11.6375 144.467 11.6375C143.461 11.6375 142.544 11.8638 141.739 12.3039C141.299 12.5428 140.909 12.8446 140.569 13.1841V12.92C140.569 12.568 140.469 12.2913 140.255 12.0775C140.041 11.8638 139.752 11.7506 139.413 11.7506C139.073 11.7506 138.796 11.8638 138.57 12.0775C138.344 12.2913 138.243 12.5805 138.243 12.92V23.1555C138.243 23.495 138.356 23.7716 138.57 23.9979C138.796 24.2243 139.073 24.3249 139.413 24.3249C139.765 24.3249 140.041 24.2117 140.255 23.9979C140.469 23.7716 140.569 23.495 140.569 23.1555V16.6797C140.569 16.1139 140.72 15.6109 141.035 15.1708C141.349 14.7307 141.751 14.3912 142.267 14.1272C142.782 13.8631 143.373 13.7374 144.015 13.7374C144.719 13.7374 145.335 13.8757 145.888 14.1397C146.442 14.4038 146.869 14.8187 147.183 15.372C147.498 15.9253 147.661 16.6294 147.661 17.5096V23.1555C147.661 23.495 147.774 23.7716 147.988 23.9979C148.215 24.2243 148.491 24.3249 148.831 24.3249C149.17 24.3249 149.447 24.2117 149.673 23.9979C149.899 23.7716 150 23.495 150 23.1555V17.5096C150 16.2396 149.761 15.1708 149.271 14.3032Z" fill="#555656"/>
</g>
<defs>
<clipPath id="clip0_317_694">
<rect width="150" height="30" fill="white"/>
</clipPath>
</defs>
</svg>
