<svg width="161" height="33" viewBox="0 0 161 33" fill="none" xmlns="http://www.w3.org/2000/svg">
<path d="M20.2777 23.3386C20.2777 23.3386 18.8426 23.03 16.6295 23.3386C14.4164 23.647 14.3225 23.6873 13.1154 23.714C13.0483 23.714 12.9947 23.7409 12.941 23.7544C12.8874 23.7409 12.8337 23.7275 12.7666 23.714C11.5462 23.6873 11.4522 23.647 9.25258 23.3386C7.05293 23.03 5.60439 23.3386 5.60439 23.3386L1.20508 23.9019C1.67451 24.6127 1.64769 25.4308 4.31678 25.0285C6.99929 24.6261 7.61626 24.6529 9.33306 25.0554C10.6072 25.3504 12.1899 25.337 12.9276 25.2967C13.6653 25.3235 15.2614 25.3504 16.5222 25.0554C18.239 24.6529 18.8559 24.6127 21.5385 25.0285C24.2209 25.4308 24.1807 24.6261 24.6501 23.9019L20.2777 23.3386Z" fill="#1E1F1F"/>
<path d="M19.2714 26.3966C19.2714 26.3966 18.0508 26.0881 16.1731 26.3966C14.2954 26.7051 14.2149 26.7453 13.1821 26.7722C13.1285 26.7722 13.0883 26.799 13.0346 26.8124C12.981 26.799 12.9407 26.7856 12.8871 26.7722C11.8542 26.7453 11.7738 26.7051 9.89605 26.3966C8.01829 26.0881 6.79776 26.3966 6.79776 26.3966L3.05566 26.9599C3.45804 27.6708 3.43122 28.489 5.71134 28.0866C7.99148 27.6842 8.51456 27.7111 9.97652 28.1134C10.1643 28.1671 10.3789 28.194 10.5801 28.2342C10.5667 28.2342 10.5264 28.2342 10.5264 28.2342C10.5264 28.2342 12.8066 28.7975 15.6366 28.2342C15.9853 28.1671 16.1731 28.1134 16.2267 28.0732C17.5814 27.7111 18.1581 27.6842 20.3578 28.0732C22.6379 28.4756 22.6111 27.6708 23.0135 26.9465L19.2714 26.3966Z" fill="#1E1F1F"/>
<path d="M5.83203 29.8838C5.83203 29.8838 12.5785 35.0075 20.1566 29.8838C20.1566 29.8838 19.4994 28.8377 17.246 29.8838C15.0061 30.93 10.057 30.4338 8.75595 29.8034C7.45494 29.173 6.85138 29.3876 5.83203 29.8838Z" fill="#1E1F1F"/>
<path d="M14.5101 20.5218C14.5101 20.4548 14.5101 20.4012 14.4967 20.3341C14.3625 19.5427 14.3625 18.7513 14.3491 17.9601C14.3491 17.732 14.3357 17.504 14.4832 17.2894C14.8588 16.7663 15.3684 16.3774 15.905 16.0152C16.0659 15.9079 16.3475 15.9884 16.3208 16.1493C16.2671 16.4712 16.75 16.6993 16.4548 17.048C16.3878 17.1285 16.5219 17.2357 16.6292 17.276C16.75 17.3163 16.8841 17.3163 17.0182 17.3028C17.1121 17.2894 17.1926 17.3028 17.2864 17.3297C17.6352 17.4503 17.8497 17.3833 18.0643 17.1016C18.1449 16.9943 18.2522 16.9541 18.3326 17.0614C18.4668 17.2224 18.6411 17.2894 18.8423 17.343C18.963 17.3699 19.0167 17.5845 18.9362 17.6515C18.735 17.8393 18.7484 17.9734 18.9899 18.1344C19.0837 18.0673 18.963 17.9198 19.0703 17.8528C19.1911 17.9332 19.2313 18.1613 19.4057 18.0807C19.5665 18.0003 19.4459 17.8259 19.3922 17.6918C19.3788 17.6649 19.3653 17.6515 19.352 17.6247C19.3386 17.5845 19.352 17.5309 19.3922 17.504C19.4324 17.4907 19.4459 17.5174 19.4727 17.5443C19.6738 17.7723 19.7007 17.5711 19.7409 17.4503C19.7678 17.3833 19.7007 17.3028 19.7811 17.2089C19.808 17.3028 19.8348 17.3699 19.8617 17.437C19.9288 17.5576 19.9421 17.7723 20.1299 17.732C20.264 17.7052 20.2372 17.504 20.2372 17.3833C20.2372 17.1419 20.0628 16.9407 19.8617 17.0212C19.6738 17.1016 19.6202 17.0212 19.58 16.887C19.5129 16.6859 19.3922 16.659 19.1642 16.6456C19.0301 16.6456 18.963 16.3505 18.735 16.3774C18.7216 16.3774 18.7216 16.3774 18.7082 16.3774C18.1583 16.4712 17.662 16.3505 17.1791 16.0957C17.045 16.0152 16.8975 15.9616 16.75 15.8811C16.6695 15.8408 16.5487 15.8543 16.5487 15.7202C16.5487 15.5726 16.7366 15.6397 16.7633 15.5458C16.9108 15.6397 17.1658 15.3178 17.2596 15.6531C17.2864 15.7872 17.3401 15.9079 17.5145 15.8677C17.6754 15.8275 17.6889 15.7068 17.6754 15.5726C17.662 15.4787 17.6486 15.3848 17.7827 15.3714C17.89 15.3581 18.0376 15.2775 18.0778 15.4787C18.0912 15.5324 18.1449 15.5726 18.1985 15.5592C18.2655 15.5458 18.279 15.4922 18.2924 15.4385C18.3058 15.3983 18.279 15.3312 18.346 15.3043C18.7886 15.5056 19.2849 15.586 19.7141 15.8006C19.9019 15.8945 19.9421 15.975 19.8751 16.1493C19.7946 16.1628 19.7409 16.0823 19.7007 16.0823C19.5532 16.0823 19.3788 16.0018 19.2715 16.1091C19.1911 16.203 19.2849 16.3372 19.3251 16.431C19.4057 16.6188 19.5665 16.5651 19.7007 16.4981C19.8482 16.4176 19.969 16.3372 20.0896 16.5115C20.1031 16.5383 20.1567 16.5518 20.1969 16.5518C20.3713 16.5383 20.4517 16.6054 20.4786 16.7663C20.5054 16.8603 20.5859 16.9272 20.72 16.9005C20.7871 16.887 20.8408 16.8603 20.8542 16.7797C20.8675 16.6724 20.8005 16.6188 20.7469 16.5383C20.72 16.4981 20.6261 16.4445 20.7335 16.3908C20.8005 16.3639 20.8675 16.3639 20.8944 16.431C20.9346 16.5115 20.9883 16.5785 21.0688 16.6322C21.3236 16.7529 21.4979 17.048 21.8601 16.887C21.8735 16.887 21.9137 16.9139 21.9272 16.9272C22.0613 17.048 22.2089 17.0078 22.3429 16.9272C22.4637 16.8468 22.5173 16.8468 22.5844 16.9943C22.638 17.1016 22.7856 17.276 22.9063 17.1419C23.0538 16.9676 23.2147 16.7663 23.2416 16.5249C23.2551 16.4042 23.1209 16.3505 23.0136 16.3237C22.8929 16.3103 22.8929 16.3908 22.8795 16.4847C22.866 16.6456 22.7856 16.6724 22.6649 16.5786C22.5576 16.4981 22.4771 16.431 22.4637 16.2835C22.4503 16.1762 22.4637 16.0287 22.3162 15.9482C22.2625 15.9214 22.2222 15.8812 22.1552 15.9214C22.1016 15.9616 22.1418 16.0018 22.1418 16.042C22.182 16.2164 22.2356 16.3908 22.3966 16.5115C22.0881 16.6859 22.1016 16.6859 22.0747 16.3639C22.0613 16.203 22.0077 16.0555 21.7796 16.0957C21.6991 16.1091 21.6187 16.1091 21.5248 16.0957C21.4443 16.0823 21.3773 16.1091 21.4041 16.1896C21.4309 16.2701 21.4175 16.3237 21.337 16.3639C21.2968 16.3774 21.27 16.3639 21.2431 16.3372C21.1627 16.2566 21.2297 16.203 21.2833 16.1226C21.3906 15.9347 21.2565 15.7068 21.0688 15.7604C20.8542 15.8275 20.7469 15.747 20.6261 15.5995C20.4652 15.4251 20.2238 15.4519 20.0226 15.4385C19.8884 15.4251 20.0494 15.6129 19.9288 15.6799C19.58 15.5056 19.2044 15.3581 18.7886 15.2508C18.8826 15.1435 18.9764 15.1702 19.0569 15.1702C19.419 15.1702 19.7946 15.1568 20.1567 15.1568C20.3579 15.1568 20.5188 15.0362 20.7603 15.1031C21.1627 15.2104 21.4979 15.4251 21.8333 15.6129C22.1552 15.8006 22.4368 15.6262 22.7453 15.7202C22.3162 15.5592 22.5173 15.2239 22.4771 14.9691C22.8124 15.3312 22.7587 15.8274 22.9868 16.3103C23.0807 15.975 23.2551 15.9482 23.5099 16.0152C23.6842 16.0555 23.8855 16.0152 24.0732 15.9884C24.1805 15.975 24.328 15.9214 24.2878 15.8006C24.2609 15.7068 24.1403 15.6129 24.0061 15.6129C23.5635 15.6129 23.5635 15.6262 23.6172 15.2508C23.6172 15.1971 23.5903 15.13 23.6708 15.1166C23.7245 15.1031 23.7513 15.1568 23.7647 15.1971C23.8318 15.3446 23.9793 15.4251 24.1 15.5056C24.2744 15.6129 24.4621 15.5726 24.6365 15.4787C24.7707 15.4116 24.6634 15.2775 24.6499 15.1971C24.5963 14.9556 24.3817 15.13 24.2341 15.0898C24.2609 15.0495 24.2744 15.0362 24.3012 15.0093C24.3548 14.9556 24.5024 14.9556 24.4621 14.835C24.4219 14.7142 24.3012 14.7277 24.1939 14.7277C24.0732 14.741 23.9524 14.741 23.8318 14.7544C23.7915 14.7544 23.7245 14.7813 23.7111 14.7142C23.6976 14.6471 23.7513 14.6204 23.8049 14.6069C23.8318 14.6069 23.8586 14.6069 23.8855 14.5935C23.9391 14.58 24.033 14.6069 24.033 14.5131C24.033 14.4192 23.939 14.4192 23.8586 14.4058C23.8184 14.4058 23.7781 14.4058 23.7513 14.3923C23.6574 14.3655 23.5367 14.3387 23.5232 14.2314C23.5099 14.124 23.6305 14.0973 23.7245 14.0704C23.8853 14.0034 24.0597 13.9498 24.2073 13.8424C24.3146 13.7619 24.4084 13.6948 24.5561 13.7619C24.6901 13.8156 24.7438 13.7217 24.7304 13.601C24.6901 13.3596 24.6499 13.1315 24.3817 13.0109C24.1939 12.9303 24.3817 12.7559 24.2744 12.6487C24.3817 12.5951 24.328 12.4072 24.5292 12.4072C24.8242 12.4072 24.8779 12.3268 24.7707 12.072C24.6767 11.8707 24.7974 11.7501 24.9048 11.6695C25.0255 11.5757 25.2132 11.5757 25.3473 11.4818C25.401 11.4416 25.5888 11.5489 25.6022 11.3745C25.6156 11.2538 25.6156 11.1197 25.5754 11.0124C25.5352 10.9185 25.3876 10.8246 25.334 10.9856C25.2669 11.1733 25.1596 11.066 25.0657 11.0795C24.9718 11.0795 25.0121 11.0124 25.0255 10.9587C25.0523 10.8649 25.0657 10.771 25.2267 10.8112C25.3876 10.8514 25.4144 10.771 25.3742 10.6234C25.3205 10.3954 25.2267 10.2613 24.945 10.2613C24.7975 10.2613 24.6499 10.2076 24.5157 10.1406C24.3951 10.0869 23.9927 10.1808 24.2609 9.83206C24.2609 9.81865 24.2476 9.80525 24.2476 9.77842C24.1805 9.63088 24.1403 9.48334 24.033 9.34921C24.0061 9.30898 23.8855 9.28215 23.9659 9.20167C24.0463 9.1212 24.0732 9.21509 24.1134 9.25533C24.1671 9.32239 24.2341 9.33581 24.3146 9.30898C24.4219 9.26874 24.3951 9.17486 24.3951 9.10779C24.3951 8.97366 24.3817 8.82612 24.2744 8.75906C24.1536 8.67859 23.9659 8.71883 23.8318 8.61152C23.6842 8.78589 23.5367 8.59811 23.3757 8.59811C23.5099 8.55787 23.5367 8.39693 23.6574 8.34327C23.8049 8.26281 23.8586 8.07502 23.8318 7.92748C23.8184 7.79335 23.6574 7.8336 23.5635 7.80677C23.3891 7.75312 23.2953 7.59217 23.3355 7.41781C23.3891 7.20321 23.3087 7.14957 23.1074 7.20321C22.9197 7.25686 22.732 7.2971 22.5441 7.17639C22.5844 7.09591 22.6514 7.09592 22.7051 7.09592C22.9466 7.05568 22.9063 6.84107 22.9331 6.69354C22.9599 6.53259 22.7989 6.53259 22.6649 6.55942C22.4503 6.59965 22.4637 6.45211 22.4905 6.3314C22.5173 6.21069 22.5576 6.08997 22.5978 5.96926C22.6783 5.72783 22.5308 5.52665 22.2491 5.55348C22.021 5.56688 21.8064 5.66077 21.7125 5.32546C21.6858 5.23158 21.5785 5.16452 21.6456 5.0438C21.6723 4.99015 21.7125 4.9499 21.7796 4.96332C21.9137 5.00356 21.8601 5.12427 21.9004 5.21816C21.9272 5.29864 21.9272 5.41934 22.0613 5.39252C22.1685 5.37911 22.1685 5.2584 22.1552 5.19134C22.0881 4.86944 22.1016 4.52071 21.7796 4.30611C21.7394 4.27928 21.726 4.25246 21.7394 4.21222C21.8199 3.90374 21.5919 3.85009 21.3504 3.78302C21.1895 3.74279 21.0956 3.50136 21.2163 3.40747C21.4577 3.20629 21.6052 3.04534 21.1358 2.97828C21.0821 2.96486 21.0554 2.85755 20.9883 2.89779C20.9079 2.93803 20.9346 3.04533 20.9346 3.1124C20.9346 3.24652 21.0419 3.36723 20.9481 3.52818C20.7871 3.2331 20.6798 2.95144 20.4652 2.71001C20.3444 2.56248 20.2775 2.56248 20.2238 2.72343C20.1701 2.88438 20.0763 2.83073 19.9957 2.76367C19.9287 2.71002 19.8751 2.62954 19.8215 2.56248C19.7275 2.45517 19.6605 2.45519 19.5934 2.58931C19.5665 2.64296 19.6068 2.71002 19.5263 2.75027C19.3788 2.69661 19.3922 2.49542 19.2044 2.41495C19.1642 2.6832 18.9362 2.83073 18.9094 3.09898C18.8289 3.04533 18.7349 2.97827 18.6545 3.09898C18.6143 3.13922 18.5607 3.16605 18.507 3.12581C18.4668 3.09898 18.4668 3.04533 18.4936 3.00509C18.5741 2.88438 18.5607 2.76367 18.507 2.62954C18.4668 2.52225 18.4801 2.40153 18.5874 2.29424C18.6813 2.21376 18.802 2.02599 18.7618 1.98575C18.6411 1.81139 18.7886 1.74432 18.8691 1.63702C18.9362 1.55655 18.9899 1.44925 18.8423 1.39559C18.5338 1.26147 18.2119 1.38218 18.051 1.67726C17.9705 1.81138 17.89 1.95892 17.6754 1.86503C17.7559 1.73091 17.7827 1.61019 17.662 1.47607C17.6083 1.40901 17.662 1.35536 17.7022 1.31512C17.7291 1.2883 17.7693 1.24805 17.823 1.27488C17.8766 1.31511 17.8497 1.36877 17.8632 1.42242C17.8766 1.47607 17.8364 1.54313 17.9168 1.61019C18.0643 1.51631 18.2253 1.35536 18.1851 1.22122C18.1314 1.07369 17.9034 1.03346 17.7022 1.00663C17.8364 0.765207 17.7559 0.698139 17.2462 0.550602C17.1255 0.510364 17.045 0.564015 16.9645 0.604253C16.7366 0.711553 16.817 0.939565 16.7768 1.12734C16.5085 1.04687 16.2537 0.966396 16.0256 1.15417C15.9854 1.181 15.9452 1.22123 15.905 1.16758C15.7171 0.952986 15.6769 1.15417 15.6367 1.26147C15.5831 1.42242 15.5562 1.54313 15.355 1.35536C15.2611 1.26147 15.1002 1.30171 15.0465 1.44925C14.9259 1.73091 14.9259 1.73091 14.6307 1.74433C14.671 1.66385 14.671 1.56996 14.7515 1.5029C14.8186 1.44925 14.8454 1.38218 14.7917 1.31512C14.7246 1.22123 14.6442 1.30171 14.5638 1.31512C14.4296 1.32854 14.443 1.51631 14.2418 1.51631C14.3894 1.3017 14.3357 1.11393 14.282 0.912746C14.2284 0.738382 14.054 0.711558 13.9736 0.577432C13.9199 0.483545 13.893 0.282354 13.7455 0.322592C13.6114 0.362828 13.6382 0.55061 13.6785 0.684735C13.6785 0.71156 13.6785 0.738382 13.6785 0.765207C13.6785 1.03346 13.6785 1.03346 13.3699 1.00663C13.3566 0.926157 13.437 0.885923 13.4772 0.832273C13.5443 0.751799 13.5712 0.671323 13.5176 0.590847C13.4505 0.510373 13.3699 0.550604 13.2895 0.564016C12.9274 0.590842 13.0347 0.859093 13.0078 1.04687C12.9945 1.12734 13.0481 1.24805 12.9408 1.27488C12.8066 1.3017 12.7262 1.15417 12.7128 1.0737C12.7128 0.765211 12.5653 0.899333 12.4177 0.966397C12.3909 0.979809 12.3506 0.993216 12.297 0.939566C12.4982 0.765203 12.3239 0.590844 12.2568 0.429894C12.2166 0.336006 12.1226 0.322594 12.0689 0.429894C12.0153 0.550606 11.9751 0.523783 11.8678 0.483545C11.7337 0.429895 11.5727 0.429895 11.4252 0.389658C11.3179 0.362833 11.1971 0.38966 11.1435 0.255535C11.0898 0.0945848 10.9155 0.040931 10.8082 0.0945811C10.607 0.175056 10.3253 0.067752 10.2181 0.362827C10.151 0.53719 10.0839 0.724966 9.86932 0.845678C9.7352 0.926154 9.49378 0.952984 9.45353 1.15417C9.4133 1.36878 9.306 1.40901 9.11823 1.3017C9.02434 1.24806 8.93045 1.23464 8.93045 1.35536C8.91703 1.65044 8.59513 1.8382 8.66219 2.16011C8.47442 1.93209 8.30006 1.87845 8.09887 2.11987C8.00499 2.22718 7.88428 2.17351 7.79039 2.13328C7.53555 2.01256 7.46849 2.1601 7.41484 2.34788C7.38801 2.46859 7.44166 2.5759 7.46849 2.6832C7.49531 2.79049 7.49532 2.88438 7.3746 2.96486C7.36118 2.8978 7.36118 2.87097 7.36118 2.84414C7.33436 2.71002 7.40142 2.50884 7.18683 2.49542C6.91857 2.48201 6.6235 2.6966 6.66373 2.87097C6.73079 3.20629 6.55644 3.38065 6.26135 3.50136C6.15406 3.54159 6.10041 3.63548 6.01994 3.70255C5.79193 3.46113 5.79193 3.46113 5.69804 3.74279C5.67121 3.83668 5.60414 3.86349 5.51026 3.86349C5.04082 3.8769 5.04082 3.87691 4.93352 4.31952C4.9067 4.42682 4.86645 4.54753 4.9067 4.65484C4.93352 4.73531 4.94693 4.84261 4.78599 4.81578C4.73233 4.80237 4.67868 4.81578 4.66527 4.86943C4.57138 5.19133 4.26289 5.23157 4.00806 5.35228C3.94099 5.29864 3.99465 5.13769 3.86051 5.16451C3.75322 5.17792 3.79345 5.29864 3.79345 5.3657C3.79345 5.40593 3.79345 5.45959 3.71298 5.44617C3.68616 5.27181 3.68616 5.07062 3.45815 5.01697C3.20331 4.94991 3.27037 5.21816 3.17648 5.29863C3.17648 5.29863 3.16306 5.31205 3.16306 5.32546C2.84117 5.62054 2.65339 5.95584 2.77411 6.39846C2.80093 6.51917 2.7607 6.59965 2.58633 6.51917C2.47903 6.46553 2.37173 6.57282 2.31808 6.66671C2.2376 6.80083 2.29126 6.94837 2.35832 7.06908C2.41197 7.16297 2.54609 7.12273 2.61316 7.0825C2.82776 6.94838 2.89482 7.05567 2.97529 7.21662C2.98871 7.24345 3.01553 7.28369 3.04236 7.2971C3.14966 7.35075 3.2033 7.43123 3.16306 7.53853C3.12283 7.65924 2.98871 7.63242 2.89482 7.63242C2.58633 7.59218 2.31808 7.67265 2.04983 7.77996C1.94253 7.82019 1.83523 7.86043 1.86205 8.00797C1.88888 8.14209 1.86205 8.31645 1.99618 8.3701C2.13031 8.43716 2.2242 8.28963 2.31808 8.19574C2.59975 7.91408 2.59974 7.90067 2.86799 8.11526C2.97529 8.19574 3.02894 8.32986 2.89482 8.41034C2.74728 8.4908 2.80093 8.59811 2.78752 8.70541C2.77411 8.7993 2.85459 8.86637 2.81434 8.96025C2.69364 9.20167 2.78751 9.37604 3.0826 9.46992C2.96188 9.51016 2.8814 9.57723 2.77411 9.49676C2.69364 9.42969 2.58633 9.45651 2.50585 9.51016C2.29126 9.67111 1.92911 9.65769 1.87547 9.99301C1.87547 10.0064 1.79499 10.0198 1.74134 10.0198C1.49992 10.0601 1.39261 10.221 1.45969 10.4356C1.49992 10.5429 1.52675 10.6502 1.56698 10.771C1.58039 10.838 1.59381 10.9051 1.51333 10.9319C1.44627 10.9587 1.41944 10.8916 1.39261 10.8514C1.36579 10.8112 1.35238 10.771 1.29873 10.7843C1.24508 10.7978 1.20484 10.8514 1.21825 10.9051C1.21825 10.9722 1.23167 11.0526 1.25849 11.1062C1.36579 11.3343 1.63404 11.4818 1.62062 11.7634C1.62062 11.7903 1.67428 11.8574 1.71451 11.8574C1.91571 11.8707 1.9023 12.0183 1.91571 12.139C1.92911 12.2061 1.96936 12.2732 1.99618 12.3268C2.00959 12.367 2.07666 12.3938 2.03642 12.4341C2.00959 12.4609 1.94253 12.4878 1.91571 12.4743C1.63404 12.3268 1.59381 12.5146 1.55356 12.7024C1.51333 12.8632 1.44627 12.8499 1.3658 12.7292C1.28532 12.6219 1.23167 12.6621 1.17802 12.7426C1.11095 12.823 1.04389 12.8901 1.04389 12.9974C1.04389 13.0913 1.04389 13.1315 0.896355 13.1182C0.748817 13.1047 0.520804 13.145 0.547629 13.3998C0.574455 13.6278 0.72199 13.6948 0.950003 13.6815C0.990241 13.6815 1.03048 13.668 1.0573 13.668C1.12437 13.6546 1.20484 13.5876 1.24508 13.6948C1.27191 13.7754 1.21825 13.829 1.15119 13.8692C0.990241 13.9631 0.829292 14.0704 0.654929 14.1509C0.426917 14.2582 0.520804 14.4192 0.561042 14.5667C0.614692 14.7544 0.762228 14.674 0.842704 14.6069C0.963416 14.5131 1.01707 14.6471 1.12437 14.6337C0.950005 14.8215 0.950003 14.9423 1.1646 15.0629C1.36579 15.1837 1.58039 15.2373 1.80841 15.2239C1.92911 15.2239 2.11689 15.2373 2.10348 14.9958C2.09006 14.8752 2.33149 14.8081 2.42538 14.9288C2.53268 15.0629 2.66681 15.1031 2.81434 15.1031C3.0826 15.1031 3.06918 15.291 3.00212 15.4116C2.92165 15.5592 2.89482 15.7068 2.90823 15.8677C2.90823 16.0287 2.80093 16.1091 2.65339 16.0689C2.51927 16.0287 2.50585 16.0555 2.49244 16.1762C2.46562 16.6322 2.53268 16.6859 3.02894 16.6993C3.2972 16.6993 3.55203 16.6993 3.57886 17.0749C3.60568 17.3565 4.22266 17.4772 4.41043 17.2357C4.54456 17.0749 4.73233 17.0346 4.89328 16.9272C5.00058 17.0614 5.05423 17.2224 5.08106 17.3699C5.09447 17.437 5.13471 17.4907 5.21518 17.4907C5.29566 17.504 5.33589 17.4503 5.36272 17.3833C5.38955 17.2894 5.47002 17.1955 5.44319 17.0749C5.41637 16.9541 5.48344 16.8736 5.59073 16.8066C5.64438 16.9943 5.71145 17.1285 5.93946 17.0749C6.00652 17.0614 6.04676 17.0882 6.087 17.1284C6.23453 17.2894 6.27477 17.1687 6.31501 17.048C6.34183 16.9676 6.34183 16.8066 6.43572 16.8066C6.6235 16.8066 6.79786 16.8199 6.98563 16.8066C7.05269 16.8066 7.09294 16.8334 7.10635 16.9005C7.11976 16.9676 7.07952 17.0078 7.02588 17.0212C6.95882 17.0345 6.87833 17.048 6.79785 17.0345C6.65032 17.0212 6.59667 17.0749 6.6235 17.1955C6.63691 17.2894 6.65032 17.3967 6.67715 17.4907C6.73079 17.6918 6.90516 17.7857 7.07952 17.6649C7.44166 17.4236 7.79039 17.1419 8.15252 16.8736C8.15252 17.1016 8.16594 17.343 8.27323 17.5845C8.31347 17.6649 8.31347 17.7723 8.42078 17.7991C8.51466 17.8125 8.51466 17.6918 8.54148 17.6382C8.60855 17.5174 8.70244 17.5443 8.80974 17.5443C8.94386 17.5443 8.90362 17.6382 8.93045 17.7186C8.95728 17.8528 8.90362 18.0673 9.06457 18.0942C9.25235 18.1209 9.23894 17.8796 9.31941 17.7588C9.39989 17.6247 9.42672 17.4101 9.69496 17.504C9.58767 17.6784 9.33283 17.7588 9.37306 18.0137C9.39989 18.1344 9.34624 18.3222 9.49378 18.3356C9.65473 18.3624 9.69496 18.1613 9.70838 18.0405C9.7352 17.7991 9.89616 17.7186 10.1107 17.7052C10.3388 17.6918 10.5131 17.6382 10.5802 17.3967C10.7948 17.7186 10.8484 17.7186 11.0496 17.4236C11.1167 17.3163 11.1301 17.2089 11.1033 17.0882C11.0898 16.9943 11.0094 16.9005 11.1033 16.7932C11.224 16.9005 11.1435 17.1553 11.3045 17.1284C11.4252 17.1151 11.4654 16.8736 11.4252 16.7261C11.3447 16.4445 11.5593 16.3639 11.7337 16.2566C11.8946 16.1493 12.0689 16.1493 12.2568 16.2566C12.6189 16.4712 12.6993 16.8066 12.7128 17.1687C12.7128 17.3028 12.7128 17.4236 12.7397 17.5576C12.8335 18.0136 12.9005 18.4697 12.8469 18.9257C12.8201 19.1538 12.8201 19.3817 12.8469 19.6232C12.8737 19.8781 12.8201 20.106 12.6993 20.3206C12.686 20.3608 12.6726 20.4012 12.6726 20.4414H0.198903C0.198903 20.4414 0.105016 21.9838 1.33897 21.9838C2.57292 21.9838 24.5694 21.9838 24.5694 21.9838C24.5694 21.9838 25.7631 21.9168 25.7631 20.4414H14.5101V20.5218ZM16.8706 16.1628C16.9512 16.2164 17.0852 16.2164 17.0852 16.3505C17.0852 16.3908 17.0718 16.4712 17.045 16.4578C16.9512 16.4042 16.817 16.3774 16.7902 16.2433C16.7768 16.2164 16.8035 16.1762 16.8706 16.1628ZM12.686 9.88572C12.7128 10.0601 12.7397 10.1808 12.753 10.2881C12.7664 10.3283 12.7664 10.382 12.7128 10.3954C12.6726 10.4088 12.592 10.3954 12.5787 10.382C12.525 10.2747 12.4714 10.154 12.4714 10.0333C12.4714 9.91254 12.6189 9.95278 12.686 9.88572ZM12.6726 9.61746C12.7262 9.0139 12.9408 8.45058 13.0347 7.86043C13.0213 8.46399 13.0615 9.08096 12.6726 9.61746ZM12.5518 10.9319C12.7933 10.8246 12.8335 10.9185 12.8737 11.1331C12.9676 11.6428 13.0749 12.1524 13.2091 12.6621C13.303 13.0242 13.2224 13.44 13.2224 13.8692C12.7664 13.3194 12.3775 12.7963 12.2433 12.139C12.1629 11.7768 11.9885 11.4147 12.136 11.0258C12.1762 10.9185 12.1897 10.8514 12.3372 10.9185C12.4043 10.9587 12.4982 10.9587 12.5518 10.9319ZM13.5443 5.39252C13.5443 5.27181 13.5443 5.17792 13.7455 5.13769C13.6651 5.39253 13.9199 5.62054 13.8261 5.82172C13.7322 6.0229 13.7455 6.19728 13.759 6.38505C13.7724 6.66671 13.5846 6.78743 13.3163 6.69354C13.2493 6.66671 13.2359 6.61307 13.2761 6.57282C13.5846 6.2241 13.5309 5.79489 13.5443 5.39252ZM13.3699 3.80984C13.3699 3.7562 13.4103 3.70254 13.4639 3.68914C13.5443 3.67572 13.5443 3.7562 13.5443 3.79644C13.5578 3.91715 13.5578 4.05127 13.5712 4.17198C13.4505 4.06469 13.3699 3.95738 13.3699 3.80984ZM13.9467 14.8618C13.987 14.4192 14.0809 14.0302 14.2418 13.668C14.2955 13.5473 14.443 13.668 14.5101 13.5339C14.5905 13.3596 14.6307 13.1852 14.6442 12.9974C14.6442 12.9169 14.604 12.8499 14.5101 12.8767C14.3894 12.9036 14.3625 12.8499 14.3894 12.7426C14.4832 12.1793 14.6844 11.6428 14.8454 11.0928C14.9124 11.1331 14.8856 11.2001 14.9124 11.2672C14.9661 11.4282 15.0332 11.5891 15.2611 11.5355C15.4758 11.4818 15.5025 11.2941 15.4221 11.1733C15.3014 10.9989 15.355 10.6905 15.0063 10.6905C15.0867 10.5027 15.1538 10.3149 15.2344 10.1271C15.2344 10.1137 15.2477 10.1137 15.2477 10.1003C15.3148 9.93937 15.3684 9.72477 15.1807 9.67111C14.9929 9.60405 14.9661 9.85889 14.9259 9.9662C14.7783 10.3552 14.6442 10.7441 14.4564 11.1331C14.1479 11.7232 14.0003 12.367 13.9467 13.0242C13.9334 13.1584 13.8797 13.2925 13.8394 13.4936C13.5846 12.3805 13.2895 11.3343 13.4505 10.2344C13.4907 9.93936 13.5309 9.65771 13.3699 9.34921C13.2761 9.16144 13.3566 8.89318 13.3699 8.66517C13.3834 8.32987 13.4103 8.00797 13.3297 7.67265C13.2493 7.37758 13.4236 7.17639 13.6919 6.98861C13.6249 7.33733 13.7724 7.59217 13.9601 7.8336C14.1211 8.03478 14.2552 8.26279 14.4161 8.46399C14.7113 8.85295 14.5636 9.24192 14.5503 9.63088C14.5503 9.79183 14.4028 9.79183 14.2955 9.83206C14.0272 9.92595 13.9065 10.2076 14.0138 10.449C14.054 10.5563 14.1211 10.5698 14.2015 10.4893C14.4967 10.2076 14.7783 9.92595 14.9929 9.57722C15.0867 9.4431 14.9527 9.37604 14.8856 9.21509C15.2075 9.30898 15.355 9.51016 15.5026 9.71135C15.6233 9.8723 15.7306 10.0333 15.8915 10.1674C15.972 10.221 15.9854 10.3149 16.0123 10.4088C16.0256 10.4625 16.0659 10.5429 15.9854 10.5697C15.9318 10.5966 15.8648 10.5832 15.8244 10.5429C15.5965 10.3552 15.5965 10.5429 15.5965 10.6771C15.6098 10.9453 15.5696 11.2404 15.8915 11.4013C15.9854 11.4549 15.9452 11.522 15.9183 11.5891C15.7171 12.0049 15.516 12.4072 15.1271 12.7024C15.1002 12.7292 15.06 12.7559 15.06 12.7828C15.0734 13.1717 14.7917 13.4267 14.6173 13.7485C14.3894 14.0973 14.282 14.4996 13.9467 14.8618ZM16.2939 7.0825C16.2269 7.04226 16.1866 7.0825 16.1464 7.12273C16.0123 7.21662 15.905 7.45805 15.7708 7.39099C15.6367 7.32393 15.7575 7.09591 15.7575 6.93496C15.7575 6.66671 15.744 6.38506 15.9183 6.10339C15.9452 6.26434 15.9854 6.37164 15.905 6.50576C15.8379 6.59965 15.8244 6.7606 15.9452 6.84107C16.0391 6.90814 16.1196 6.78742 16.2135 6.73377C16.3073 6.68012 16.3879 6.59965 16.5085 6.59965C16.5487 6.73377 16.4012 6.92155 16.6695 6.94837C16.6292 7.05567 16.6292 7.17639 16.6427 7.28369C16.6695 7.44464 16.8706 7.57876 16.7768 7.77996C16.6829 7.98114 16.4414 7.90066 16.2806 7.98113C16.1866 8.03478 16.1329 8.10186 16.1464 8.19574C16.1732 8.31645 16.1062 8.50422 16.2671 8.55788C16.4414 8.61152 16.5354 8.46399 16.589 8.30304C16.7097 8.35669 16.6427 8.54447 16.7902 8.54447C16.9243 8.54447 16.8841 8.39692 16.9377 8.31645C17.0718 8.53105 17.0585 8.51764 16.9243 8.73224C16.8035 8.93343 16.7366 9.16144 16.656 9.37604C16.6158 9.49674 16.5622 9.5504 16.4414 9.42968C16.2806 9.26873 16.2135 9.38945 16.1732 9.52357C16.1329 9.65771 16.1196 9.77842 16.0793 9.92595C15.9318 9.91254 15.8781 9.80524 15.8111 9.72477C15.5562 9.38945 15.3282 9.08097 15.5696 8.62494C15.7038 8.35669 15.6233 8.00797 15.8781 7.76654C15.9318 7.75313 15.9318 7.80677 15.9318 7.8336C15.9452 7.90066 15.9586 7.99455 16.0391 7.99455C16.1329 7.99455 16.1464 7.90066 16.1732 7.84701C16.2402 7.64582 16.2939 7.44464 16.3475 7.23004C16.361 7.17639 16.3475 7.12273 16.2939 7.0825ZM16.7097 5.12427C16.6695 5.08404 16.6158 5.05722 16.589 5.00357C16.5622 4.94991 16.5756 4.86944 16.656 4.85603C16.7902 4.84262 17.0316 5.17792 16.9914 5.29863C16.9108 5.54006 16.8439 5.78149 17.0182 6.00951C17.0852 6.08998 17.0585 6.19728 17.045 6.29117C17.0316 6.34481 16.9779 6.38505 16.9243 6.38505C16.8304 6.37164 16.9108 6.31799 16.8975 6.27775C16.8841 6.15704 16.8304 6.15704 16.7231 6.18386C16.6024 6.2241 16.4951 6.25092 16.3475 6.29117C16.3475 6.07657 16.5085 5.95584 16.5756 5.78149C16.6024 5.72783 16.656 5.67419 16.5756 5.62054C16.5085 5.5803 16.4414 5.62054 16.4012 5.64736C16.3475 5.6876 16.3073 5.74124 16.2537 5.78149C16.1329 5.86195 15.9854 5.83514 15.9854 5.71442C15.972 5.41935 15.9988 5.11085 16.0123 4.81578C16.0123 4.78895 16.0391 4.77555 16.0927 4.68166C16.0793 4.97673 16.3475 5.07062 16.3475 5.31205C16.3475 5.39253 16.4683 5.45959 16.5622 5.44617C16.6427 5.43276 16.7366 5.41935 16.7633 5.32546C16.8036 5.2584 16.7768 5.17792 16.7097 5.12427ZM17.0987 7.04226C16.9779 6.98861 16.8304 6.96178 16.8975 6.80083C16.9108 6.7606 16.9512 6.72036 17.0048 6.74718C17.1523 6.80083 17.0718 6.93497 17.0987 7.04226ZM17.823 8.1555C17.6754 8.0482 17.5816 8.1555 17.4743 8.22256C17.367 7.88724 17.4474 7.59217 17.6754 7.32393C17.7022 7.2971 17.7291 7.21662 17.7291 7.21662C17.4876 7.05567 17.7156 6.90814 17.7424 6.7606C17.7559 6.66671 17.7693 6.55942 17.6754 6.51917C17.5412 6.47894 17.5949 6.62648 17.5547 6.68013C17.501 6.73378 17.4474 6.80083 17.367 6.89472C17.273 6.6533 17.2999 6.50576 17.5145 6.38505C17.7022 6.27775 17.9168 6.21069 18.0376 5.98267C18.118 6.85449 18.6009 7.57876 18.668 8.42375C18.4534 8.24939 18.3863 8.41034 18.3192 8.57128C18.2119 8.82612 18.0778 9.06755 18.0107 9.3358C17.957 9.56382 17.7559 9.71135 17.6352 9.91254C17.5547 10.0467 17.6218 10.2613 17.4206 10.3552C17.4206 10.2479 17.4339 10.154 17.4206 10.0601C17.3937 9.83206 17.0316 9.80524 17.045 9.53699C17.045 9.52358 16.9243 9.57722 16.8572 9.51016C16.9779 9.25533 17.0048 8.96026 17.3535 8.82613C17.5279 8.75907 17.4743 8.54447 17.501 8.38351C17.5949 8.50422 17.5279 8.70541 17.7156 8.74564C17.8095 8.75906 17.8364 8.67858 17.8364 8.59811C17.8497 8.46398 18.0241 8.31646 17.823 8.1555ZM19.5397 7.8336C19.7141 7.82018 19.7678 7.68607 19.7544 7.53853C19.7409 7.47147 19.808 7.43122 19.8215 7.37758C20.036 7.35075 20.1433 7.40441 20.036 7.63242C19.8751 8.00797 19.6605 8.35669 19.3117 8.63836C19.2447 8.692 19.1911 8.75907 19.0971 8.73224C19.0301 8.71883 18.9496 8.74565 18.9228 8.67859C18.8959 8.61153 18.9362 8.55788 18.9764 8.51763C19.1105 8.38351 19.1776 8.22257 19.2715 8.06162C19.3251 7.96773 19.2715 7.8336 19.1776 7.88724C18.7886 8.06161 18.8155 7.69947 18.7886 7.59217C18.7618 7.39099 18.802 7.18979 18.7484 6.97519C18.7484 6.94837 18.7886 6.92155 18.8155 6.89472C18.9093 7.14956 18.9764 7.43122 19.0971 7.67265C19.1642 7.8336 19.3788 7.84701 19.5397 7.8336ZM19.5129 7.14957C19.5263 7.10932 19.5532 7.04226 19.5934 7.06908C19.7007 7.13615 19.8884 7.17638 19.8215 7.36416C19.7946 7.36416 19.7678 7.36417 19.7409 7.35075C19.6605 7.2971 19.4727 7.33734 19.5129 7.14957ZM20.72 5.91561C20.814 6.06314 20.8542 6.21068 21.0419 6.15703C21.1627 6.13021 21.1492 6.2241 21.1492 6.29117C21.1492 6.39847 21.1492 6.51917 21.1492 6.63988C21.1492 6.70695 21.1492 6.77401 21.0419 6.73377C20.9883 6.70695 20.9079 6.72036 20.9615 6.61306C21.0821 6.41187 21.0285 6.26433 20.7737 6.21068C20.6396 6.17044 20.6664 6.06314 20.72 5.91561ZM20.7603 5.33888C20.8675 5.32546 21.0152 5.41935 20.9481 5.56688C20.9346 5.59371 20.7603 5.51323 20.6798 5.64736C20.6798 5.51323 20.653 5.35229 20.7603 5.33888ZM19.1911 12.0853C19.4459 11.7903 19.6336 11.4684 19.7007 11.0526C19.7275 10.8514 19.8617 10.5832 20.2238 10.6234C20.3444 10.6368 20.4786 10.5563 20.5859 10.5027C20.7871 10.3954 20.9748 10.2613 21.1895 10.1137C20.9748 11.2135 20.264 11.8172 19.1911 12.0853ZM20.9079 11.3611C21.1358 11.5086 21.3504 11.4416 21.5919 11.2806C21.6052 11.5622 21.6589 11.7768 21.9137 11.8976C21.5383 11.9512 21.1895 12.0586 20.8408 11.8305C20.7335 11.7635 20.5054 11.8708 20.3177 11.8976C20.4921 11.7099 20.653 11.5489 20.8005 11.3879C20.8273 11.3611 20.8542 11.3343 20.9079 11.3611ZM19.0838 11.6964C18.9362 11.4549 18.9496 11.4416 19.419 11.1464C19.3653 11.3879 19.2178 11.5355 19.0838 11.6964ZM20.7067 9.69794C20.5323 9.60405 20.3177 9.79183 20.1433 9.6443C20.2372 9.53699 20.3579 9.42968 20.2372 9.28215C20.2238 9.26874 20.2372 9.20167 20.2506 9.18827C20.4652 9.05413 20.7067 8.97366 20.9079 8.82613C20.9481 8.79931 21.0152 8.87977 21.0017 8.94684C20.9748 9.09438 21.0017 9.24191 20.8273 9.3358C20.6664 9.40287 20.6932 9.55041 20.7067 9.69794ZM20.72 10.1942C20.653 10.1942 20.6261 10.2076 20.5859 10.1137C20.5054 9.92595 20.5725 9.81865 20.7067 9.71135C20.7335 9.83206 20.7603 9.95278 20.814 10.0735C20.8675 10.154 20.814 10.1808 20.72 10.1942ZM19.9019 8.89318C20.1299 8.81271 20.3042 8.75906 20.4786 8.70541C20.4384 8.96024 20.2775 9.0139 19.9019 8.89318ZM20.7067 7.17639C20.7737 7.21662 20.8273 7.27027 20.8944 7.31051C20.881 7.33733 20.881 7.36416 20.8675 7.39099C20.5994 7.35075 20.5859 7.67265 20.3311 7.68607C20.3311 7.41781 20.653 7.39099 20.7067 7.17639ZM20.4115 6.10339C20.3713 6.30458 20.3981 6.49234 20.3713 6.69354C20.1031 6.29116 20.2775 5.88878 20.3848 5.4864C20.3981 5.70101 20.4517 5.91562 20.4115 6.10339ZM20.3848 8.20915C20.425 8.19574 20.3981 8.32987 20.425 8.39693C20.4652 8.50423 20.3981 8.54446 20.3042 8.57128C20.0494 8.66517 19.808 8.77248 19.4592 8.82613C19.6738 8.5847 19.9019 8.45057 20.0226 8.22256C20.1031 8.08844 20.2506 8.27621 20.3848 8.20915ZM19.0971 9.16144C19.1776 9.14803 19.2849 9.06755 19.3117 9.16144C19.3386 9.25533 19.352 9.37604 19.2849 9.46992C19.2313 9.52357 19.124 9.56381 19.0569 9.51016C18.6545 9.21508 18.8155 9.59063 18.7484 9.75158C18.5204 9.59063 18.5204 9.45651 18.7216 9.3358C18.8423 9.26874 18.963 9.17486 19.0971 9.16144ZM16.5085 11.4818C16.4951 11.5489 16.5354 11.6293 16.4414 11.6562C16.3341 11.6293 16.2939 11.5622 16.3342 11.4818C16.4951 11.1197 16.589 10.7441 16.6963 10.3686C16.7231 10.2881 16.7633 10.221 16.8706 10.2344C16.9779 10.2478 16.9377 10.3417 16.9779 10.3954C17.1791 10.6502 17.0316 10.8246 16.8706 11.0258C16.7902 11.1331 16.817 11.3208 16.5622 11.2672C16.4817 11.2538 16.5219 11.4147 16.5085 11.4818ZM16.0525 12.4609C15.6233 12.8767 15.5562 13.4936 15.1136 13.8961C15.3417 13.1986 15.6904 12.5682 16.1329 11.9244C16.2 12.1524 16.1732 12.3402 16.0525 12.4609ZM15.5965 15.3312C15.6769 15.4251 15.5965 15.4653 15.5294 15.4787C15.355 15.5056 15.194 15.586 14.9795 15.5324C15.4087 15.0495 15.5025 14.4325 15.8648 13.9229C16.0927 13.601 16.3341 13.3059 16.4414 12.9303C16.4548 12.8901 16.4683 12.7963 16.5354 12.8499C16.656 12.9572 16.7231 12.8632 16.75 12.7963C16.8035 12.689 16.8706 12.5682 16.817 12.4475C16.7902 12.367 16.6963 12.4341 16.6427 12.3805C16.6427 12.2866 16.7366 12.2597 16.8035 12.2597C17.0852 12.2195 17.1791 12.0049 17.2999 11.8037C17.3401 11.7366 17.3803 11.6695 17.3133 11.6159C17.1121 11.4416 17.2731 11.3343 17.3937 11.2672C17.662 11.1331 17.8364 10.8649 18.1449 10.771C18.279 10.7307 18.346 10.5966 18.3863 10.449C18.4936 10.5295 18.4936 10.61 18.4534 10.6368C18.2387 10.8514 18.3192 11.0391 18.4534 11.2538C18.507 11.3477 18.6009 11.4684 18.4534 11.5489C18.346 11.6026 18.2253 11.7501 18.0912 11.5355C18.0376 11.4416 17.8364 11.3745 17.7156 11.4684C17.5816 11.5757 17.5681 11.7501 17.5547 11.911C17.5547 11.9244 17.5681 11.9378 17.5816 11.9512C17.9034 12.1524 17.9303 12.2463 17.8766 12.6219C17.8766 12.6353 17.89 12.6487 17.9034 12.689C18.051 12.5548 18.3326 12.5682 18.279 12.2597C18.2655 12.2061 18.4399 12.0988 18.5338 12.0451C18.668 11.9647 18.8155 11.911 18.963 11.8439C18.9362 12.0988 18.9228 12.0988 18.6813 12.1122C18.507 12.1122 18.4399 12.233 18.3863 12.3536C18.2253 12.7426 18.0376 13.1047 17.662 13.3461C17.6486 13.3461 17.6486 13.3596 17.6486 13.3596C17.045 13.5205 16.9914 14.0973 16.6963 14.4862C16.6024 14.6069 16.5487 14.6606 16.3879 14.58C16.1464 14.4728 15.8781 14.5533 15.7038 14.7008C15.4892 14.835 15.3684 15.0764 15.5965 15.3312ZM15.8781 15.2508C15.7842 15.2104 15.8513 15.1166 15.8244 15.0629C15.7842 14.9691 15.8513 14.9154 15.9452 14.902C16.0525 14.8752 16.1598 14.8483 16.2939 14.8081C16.3878 14.8215 16.3744 14.8752 16.3208 14.9288C16.2537 15.0093 16.1732 15.0898 16.0927 15.1568C16.0391 15.2104 15.972 15.291 15.8781 15.2508ZM16.2135 15.3714C16.4414 15.1031 16.6695 14.8618 17.0182 14.7813C16.7366 14.9556 16.6292 15.3044 16.2135 15.3714ZM16.9108 14.4594C16.9914 14.3252 17.045 14.2179 17.2596 14.2046C17.4743 14.1911 17.5816 13.9765 17.6083 13.7888C17.6218 13.668 17.6486 13.5876 17.7693 13.5071C17.8632 13.7754 17.9168 14.0167 17.9437 14.285C17.957 14.4325 17.9168 14.5131 17.7559 14.5533C17.5949 14.5935 17.3803 14.7142 17.2864 14.6606C17.1791 14.5667 17.045 14.5398 16.9108 14.4594ZM21.8333 15.3446C21.6723 15.3446 21.565 15.2508 21.4309 15.1971C21.4443 15.1702 21.4577 15.1568 21.4577 15.1568C21.6052 15.1568 21.7528 15.13 21.8467 15.2775C21.8467 15.291 21.8333 15.3446 21.8333 15.3446ZM22.2893 15.1031C22.3162 15.1971 22.2222 15.2104 22.1418 15.1837C22.0479 15.1568 21.954 15.1166 21.8333 15.0764C21.9808 14.9422 22.1954 14.8886 22.3162 14.7277C22.3162 14.8483 22.2491 14.9691 22.2893 15.1031ZM22.571 13.668C22.4235 13.7083 22.4235 13.8021 22.4503 13.9229C22.5308 14.2716 22.3429 14.4727 22.0479 14.6337C21.6858 14.835 21.3236 15.0093 20.8005 14.835C21.27 14.6337 21.3639 14.1106 21.8869 14.0167C22.1685 13.9631 22.3429 13.7217 22.5576 13.5473C22.6112 13.5071 22.638 13.4534 22.571 13.3863C22.4905 13.3194 22.4235 13.3194 22.3564 13.3998C22.1954 13.5742 22.0345 13.7485 21.7796 13.8156C21.726 13.601 21.8467 13.44 21.9272 13.279C21.9406 13.2388 22.0077 13.1584 22.0479 13.1986C22.2356 13.3863 22.5441 13.1181 22.6783 13.3461C22.7185 13.4267 22.732 13.6144 22.571 13.668ZM22.732 12.233C22.638 12.1793 22.5978 12.2463 22.5844 12.3268C22.5308 12.5146 22.2089 12.689 22.0881 12.5682C21.9004 12.3938 21.6723 12.5011 21.4846 12.3938C21.4443 12.367 21.3773 12.3805 21.3236 12.3536C21.0017 12.2195 21.0017 12.2195 21.0017 12.5682C21.0017 12.6755 21.0152 12.7828 21.0285 12.8901C21.0419 13.0109 21.0688 13.1315 21.1895 13.1852C21.3102 13.2388 21.337 13.1047 21.4041 13.0376C21.7125 12.7694 21.7125 12.7694 21.7662 12.5146C21.9943 13.0645 21.5785 13.4534 21.5114 13.9363C21.3639 13.829 21.4175 13.7217 21.4175 13.6278C21.4175 13.5607 21.4041 13.4669 21.3102 13.4669C21.2163 13.4669 21.1492 13.534 21.1492 13.6144C21.1492 13.7217 21.1627 13.829 21.1761 13.9363C21.2431 14.2716 20.9481 14.6471 20.5859 14.741C19.8215 14.9288 19.0434 14.8618 18.2655 14.9288C18.0376 14.9422 17.823 15.0495 17.5949 15.0898C17.5145 15.1031 17.367 15.1702 17.3266 15.0495C17.273 14.9154 17.4206 14.8618 17.5145 14.8215C17.823 14.7142 18.1449 14.6204 18.4936 14.7142C18.8155 14.8081 19.0032 14.7142 19.124 14.4058C19.1776 14.2582 19.2984 14.2179 19.419 14.2046C19.5263 14.1911 19.4995 14.3119 19.4995 14.3655C19.5129 14.4728 19.5397 14.58 19.6605 14.6337C19.7275 14.6606 19.7678 14.6069 19.7946 14.5533C19.8617 14.4325 19.8884 14.2716 19.808 14.2046C19.5934 14.057 19.7678 14.0167 19.8617 13.9363C19.9153 13.8961 19.9823 13.8424 20.0494 13.8156C20.1299 13.7619 20.1836 13.7083 20.1299 13.6278C20.0628 13.5205 19.9823 13.601 19.9153 13.6412C19.7007 13.7754 19.4995 13.9094 19.2849 14.0436C19.1776 14.1106 19.0569 14.1509 18.9094 14.0436C19.0301 13.9363 19.1374 13.8156 19.3117 13.829C19.5263 13.829 19.58 13.601 19.7544 13.5339C20.0226 13.44 19.8617 13.2388 19.8617 13.0779C19.8617 12.9974 19.8482 12.9169 19.8617 12.8365C19.8884 12.7157 19.8617 12.5816 19.7141 12.5548C19.5665 12.528 19.4459 12.6219 19.4324 12.756C19.419 12.9572 19.2849 13.0242 19.1374 13.1182C18.9899 13.212 18.7753 13.2254 18.7484 13.44C18.735 13.4803 18.6411 13.534 18.5607 13.5205C18.5741 13.3059 18.4265 13.1986 18.1047 13.1852C18.2655 13.0109 18.4131 12.8365 18.6545 12.7694C19.0301 12.6621 19.3251 12.4072 19.6471 12.2732C20.036 12.1122 20.5188 11.911 21.0017 12.072C21.2833 12.1659 21.565 12.1659 21.8601 12.1122C22.2089 12.0451 22.5978 12.2195 22.9331 11.978C22.9063 12.1256 23.1074 12.4207 22.732 12.233ZM22.9331 14.6606C23.3355 14.5131 23.3757 14.4996 23.6172 14.6606C23.3891 14.5667 23.1745 14.8752 22.9331 14.6606ZM23.8318 13.1717C23.6976 13.1717 23.4964 13.1182 23.5367 13.0242C23.5635 12.9303 23.5903 12.7157 23.7915 12.7157C23.9659 12.7157 23.9659 12.823 23.939 12.9572C23.9122 13.0242 24.0463 13.1717 23.8318 13.1717ZM24.1403 12.1524C23.9524 12.2061 23.7647 12.1524 23.7111 12.0451C23.5367 11.7232 23.0538 11.7099 22.9599 11.3343C22.9466 11.2941 22.8795 11.2672 22.8124 11.2672C22.6514 11.2941 22.5978 11.2001 22.5844 11.0795C22.5978 11.066 22.6112 11.0526 22.6247 11.0526C22.7587 11.0526 22.9331 11.0928 22.9466 10.9319C22.9599 10.7978 22.8929 10.6368 22.6916 10.5966C22.6783 10.5966 22.6514 10.5832 22.638 10.5832C22.3295 10.449 22.3295 10.449 22.3429 10.7575C22.3564 11.0124 22.2356 11.0928 21.9004 10.9722C21.7528 10.9185 21.6723 10.9453 21.5516 10.9856C21.3906 11.0391 21.2029 11.0526 21.0017 11.0928C21.1627 10.8649 21.2968 10.6636 21.4443 10.4625C21.4846 10.4088 21.5383 10.3283 21.6187 10.3552C21.954 10.4625 22.2893 10.3283 22.6247 10.4088C22.6649 10.4222 22.7051 10.4356 22.732 10.4222C23.0136 10.3015 23.2147 10.4759 23.4964 10.6636C23.1611 10.6368 23.0538 10.7307 23.0941 10.9856C23.1343 11.3209 23.3624 11.2672 23.6172 11.2001C23.5769 11.3745 23.5903 11.5086 23.6172 11.6428C23.6305 11.7366 23.6708 11.8305 23.7647 11.8574C23.9524 11.8707 24.0195 12.0049 24.1403 12.1524ZM21.2431 9.67111C21.4175 9.60405 21.5785 9.48334 21.7796 9.49676C21.8199 9.49676 21.8467 9.57723 21.8869 9.63088C21.7662 9.71135 21.6723 9.83206 21.5516 9.87231C21.4577 9.91254 21.337 9.84548 21.2431 9.765C21.2163 9.73817 21.1895 9.69794 21.2431 9.67111ZM23.2551 9.71135C23.4697 9.59063 23.644 9.60405 23.8318 9.80524C23.4964 9.89912 23.1477 9.87231 22.8526 10.0198C22.7185 10.0869 22.638 9.95278 22.5441 9.87231C22.5039 9.83206 22.4771 9.75159 22.3966 9.79183C22.3429 9.81865 22.3295 9.87231 22.3295 9.92595C22.3295 9.99302 22.3564 10.0735 22.2356 10.0869C22.1552 10.0869 22.0881 10.0333 22.0479 9.9796C21.9808 9.88572 22.115 9.87231 22.1552 9.83206C22.2759 9.68453 22.3966 9.63088 22.5978 9.765C22.7989 9.8723 23.0538 9.81865 23.2551 9.71135ZM21.6321 6.62648C21.8467 6.6533 21.6589 6.88131 21.7796 6.93496C21.7931 7.02884 21.7796 7.09592 21.6858 7.0825C21.565 7.05567 21.3906 7.05567 21.3773 6.89472C21.3504 6.72036 21.4712 6.61307 21.6321 6.62648ZM21.4577 9.06755C21.8333 8.92002 22.2893 8.93343 22.5978 8.5847C22.7856 8.87978 22.7856 8.87978 22.7051 9.26874C22.5844 9.28214 22.5978 9.16144 22.5441 9.1212C22.4368 9.05414 22.3027 8.98707 22.2759 9.17485C22.2491 9.41628 21.9943 9.37604 21.954 9.3358C21.8064 9.20167 21.6187 9.25533 21.4577 9.20167C21.4041 9.18827 21.337 9.18827 21.337 9.1212C21.337 9.04073 21.4175 9.08097 21.4577 9.06755ZM20.9748 4.65484C21.0285 4.81579 21.1492 4.80237 21.3102 4.80237C21.109 4.88285 21.109 4.88285 20.7469 4.65484C20.8408 4.64142 20.9212 4.48047 20.9748 4.65484ZM20.036 3.80984C20.0763 3.8769 20.1567 4.03786 20.3177 3.9708C20.4517 3.91715 20.4115 3.79643 20.3981 3.68914C20.3981 3.6489 20.3848 3.59524 20.4384 3.56842C20.5323 3.62206 20.4786 3.7562 20.6127 3.79644C20.8273 3.8635 20.6932 4.05127 20.6798 4.15858C20.653 4.26587 20.5188 4.1854 20.4517 4.13175C20.3311 4.03786 20.2104 4.15858 20.0896 4.13175C19.808 4.09151 19.6738 3.93056 19.5263 3.74279C19.7275 3.66231 19.9019 3.54159 20.036 3.80984ZM19.2447 4.0781C19.3386 4.19881 19.5934 3.95738 19.6202 4.25245C19.6336 4.42682 19.6336 4.77555 20.036 4.57435C20.0763 4.56094 20.1165 4.57436 20.1165 4.6146C20.1165 4.85603 20.3042 5.0438 20.3177 5.28523C20.3177 5.32546 20.3311 5.3657 20.2775 5.3657C20.2506 5.3657 20.2104 5.3657 20.1969 5.35228C20.1433 5.20475 19.8884 5.1511 20.0226 4.92309C20.1031 4.80237 19.9555 4.80237 19.8617 4.80237C19.4593 4.81579 19.4727 4.81578 19.3654 4.44023C19.352 4.38659 19.3251 4.31952 19.2984 4.26587C19.258 4.19881 19.0971 4.22564 19.1374 4.09151C19.1642 4.05128 19.2313 4.05127 19.2447 4.0781ZM19.1776 5.20475C19.1776 5.1511 19.1776 5.09745 19.258 5.09745C19.3117 5.09745 19.3251 5.15111 19.3386 5.19134C19.352 5.24498 19.3654 5.29864 19.3922 5.33888C19.4324 5.41935 19.5129 5.55346 19.419 5.58029C19.2849 5.62053 19.2044 5.76807 19.0435 5.72783C18.9764 5.71442 18.8557 5.54006 18.8155 5.74125C18.7886 5.9022 18.8155 6.1168 19.0435 6.13021C19.2178 6.14362 19.2984 6.17045 19.4057 6.31799C19.4995 6.45211 19.6738 6.31799 19.7678 6.2241C19.9287 6.07656 19.9957 6.13021 19.9957 6.30457C19.9957 6.42528 20.0896 6.54601 20.0494 6.68013C19.9555 6.72036 19.8751 6.66671 19.8348 6.61306C19.5263 6.31799 19.1507 6.47894 18.8155 6.49234C18.6813 6.49234 18.7484 6.7606 18.8155 6.89472C18.3997 6.78743 18.1985 6.4387 18.3595 6.07656C18.3997 5.98267 18.4131 5.88878 18.4131 5.79489C18.4131 5.75466 18.4265 5.68761 18.4399 5.67419C18.8826 5.5803 18.6411 5.24498 18.6545 5.0438C18.6813 4.76214 18.6143 4.76214 18.9228 4.49388C18.802 4.77555 18.802 4.97674 18.8557 5.19134C18.8826 5.28523 18.8826 5.40593 19.0301 5.40593C19.1507 5.40593 19.1776 5.29863 19.1776 5.20475ZM19.0167 3.36724C19.1105 3.59525 19.0569 3.79643 18.8959 3.98421C18.8155 3.93057 18.9094 3.78302 18.7618 3.76961C18.7484 3.76961 18.7484 3.76961 18.735 3.78302C18.735 3.78302 18.735 3.79644 18.7216 3.79644C18.735 3.52819 18.7618 3.50136 19.0167 3.36724ZM18.4668 3.46113C18.4801 3.62207 18.4936 3.79643 18.7216 3.80984C18.5874 3.99762 18.4936 4.19881 18.4668 4.42683C18.4534 4.57436 18.3595 4.70848 18.3058 4.84261C17.9168 4.42682 17.9839 3.74279 18.4668 3.46113ZM18.1314 2.97828C18.1449 3.12581 18.1851 3.24652 18.0107 3.27335C17.9303 3.28676 17.823 3.24652 17.823 3.2197C17.8364 3.07217 18.0107 3.07217 18.1314 2.97828ZM17.4339 4.52072C17.4474 4.61461 17.5145 4.58777 17.5816 4.54754C17.662 4.48047 17.6888 4.35976 17.8095 4.30611C17.8766 4.5073 17.9437 4.68166 18.0107 4.86943C18.0241 4.89626 18.0376 4.9499 18.0241 4.96332C17.7424 5.19133 17.7961 5.49982 17.8095 5.79489C17.8095 5.9022 17.7693 5.94243 17.6754 5.95585C17.5145 5.98268 17.4474 5.75466 17.2731 5.82172C17.2731 5.66077 17.206 5.49982 17.3535 5.3657C17.4608 5.27181 17.5547 5.1511 17.662 5.0438C17.7693 4.94991 17.7156 4.81578 17.7022 4.72189C17.6889 4.64142 17.5547 4.66825 17.4743 4.68166C17.367 4.69507 17.2864 4.69508 17.2864 4.56095C17.2864 4.5073 17.2462 4.46707 17.1658 4.46707C17.0987 4.48047 17.0316 4.52072 17.0048 4.42683C16.9779 4.34635 17.0718 4.33293 17.1121 4.2927C17.2596 4.10492 17.4474 3.94397 17.6754 3.76961C17.6754 3.90373 17.6083 3.9708 17.5412 4.01103C17.3266 4.17198 17.4206 4.35976 17.4339 4.52072ZM16.75 1.74433C16.8304 1.67727 16.9243 1.67726 16.9914 1.75772C17.0718 1.85161 17.1523 1.95892 17.0987 2.10646C16.9914 2.09304 17.0316 1.86504 16.8706 1.98575C16.8035 2.0394 16.7231 2.13328 16.6829 2.03939C16.6695 1.97233 16.6695 1.8248 16.75 1.74433ZM16.2806 2.54907C16.4951 2.97828 16.817 3.12581 17.2864 2.96486C17.5145 2.88438 17.5279 2.96486 17.5145 3.13922C17.4743 3.50135 17.3803 3.60866 17.1121 3.62206C17.1121 3.59525 17.1121 3.56842 17.1255 3.55501C17.1523 3.46113 17.3133 3.35382 17.1791 3.28676C17.0852 3.2331 16.9243 3.27335 16.8035 3.36724C16.7097 3.4343 16.6963 3.58184 16.5354 3.60867C16.5756 3.36724 16.5354 3.16604 16.2402 3.05875C16.2806 3.56842 16.2806 3.56842 15.972 4.11833C15.8513 3.87691 15.8244 3.63548 15.7842 3.39405C15.7842 3.35382 15.7842 3.28676 15.7977 3.27335C16.0391 3.08557 16.1732 2.84415 16.2806 2.54907ZM15.7977 2.1467C15.9452 2.1467 16.0123 2.17352 15.9988 2.254C15.972 2.3613 15.8781 2.40153 15.7708 2.40153C15.7306 2.40153 15.6635 2.40153 15.6769 2.33447C15.7038 2.25399 15.7306 2.1467 15.7977 2.1467ZM15.4892 4.05127C15.4892 3.98421 15.6233 3.95739 15.6635 4.09151C15.7038 4.22564 15.7575 4.35976 15.7708 4.5073C15.7842 4.60119 15.8648 4.77556 15.6098 4.70848C15.516 4.68167 15.4623 4.80237 15.449 4.89626C15.449 5.01697 15.3684 5.16451 15.5026 5.24498C15.6098 5.31205 15.6635 5.16452 15.7842 5.12427C15.8379 5.29864 15.7977 5.41935 15.6098 5.47301C15.516 5.49982 15.4221 5.52665 15.355 5.58029C15.2209 5.66077 15.0063 5.74125 14.9259 5.6876C14.7917 5.59371 14.8856 5.37911 14.8319 5.21816C14.8319 5.20475 14.8454 5.1511 14.8588 5.1511C15.2611 5.08404 15.1538 4.73531 15.2477 4.5073C15.288 4.31952 15.4758 4.23904 15.4892 4.05127ZM15.3282 2.38812C15.1404 2.56248 14.9392 2.6832 14.6576 2.66978C14.7917 2.33447 15.0734 2.40153 15.3282 2.38812ZM14.8186 7.02884C14.8722 6.7606 15.0063 6.53259 15.2075 6.34481C15.3819 6.18386 15.5965 6.02291 15.6098 5.74125C15.6098 5.71442 15.6769 5.6876 15.7306 5.70102C15.7708 5.76808 15.7575 5.83514 15.7306 5.9022C15.6098 6.14363 15.5562 6.38505 15.5562 6.6533C15.5562 6.74719 15.5428 6.97519 15.3417 6.73377C15.2611 6.62647 15.2075 6.69354 15.1807 6.80083C15.1807 6.81425 15.1807 6.81424 15.1807 6.82766C15.2746 7.21662 15.2209 7.63242 15.3953 8.00797C15.449 8.14209 15.3148 8.89318 15.2075 8.98707C15.1404 9.04072 15.1002 9.00049 15.06 8.97366C14.9392 8.89319 14.8588 8.79931 14.7917 8.67859C14.6442 8.42375 14.4967 8.16892 14.3357 7.91408C14.215 7.71289 14.282 7.17639 14.4564 7.04226C14.5101 7.16298 14.4161 7.39099 14.5905 7.4044C14.7917 7.39099 14.7917 7.16298 14.8186 7.02884ZM14.5503 4.73531C14.604 5.17792 14.6844 5.63394 14.6173 6.07656C14.5905 6.23751 14.5369 6.38505 14.4296 6.51917C14.1882 6.78743 13.9601 7.05568 14.0809 7.48488C13.826 7.33734 13.8663 7.16298 13.893 7.00203C14.0003 6.45211 14.0138 5.88879 13.9736 5.33888C13.9601 5.21817 13.8663 5.11086 13.8797 4.97674C13.8797 4.85603 13.9199 4.77555 14.0003 4.69508C14.1076 4.70848 14.054 4.88285 14.1747 4.85603C14.2686 4.84262 14.2686 4.73531 14.2955 4.65484C14.3491 4.5073 14.5101 4.37317 14.2955 4.21222C14.604 4.33293 14.5234 4.57436 14.5503 4.73531ZM14.2552 3.19287C14.0407 3.40747 14.0407 3.56842 14.2686 3.7562C14.3223 3.79644 14.3491 3.83668 14.3223 3.89032C14.2955 3.95739 14.2418 3.94397 14.1747 3.94397C13.9334 3.94397 13.9334 3.94397 13.7724 4.11833C13.7455 3.98421 13.7321 3.87691 13.7187 3.76961C13.6919 3.60866 13.7187 3.48794 13.893 3.39405C14.1076 3.28676 14.2552 3.08556 14.443 2.89779C14.4698 3.07216 14.3357 3.12581 14.2552 3.19287ZM13.5578 1.6236C13.5176 1.56996 13.8528 1.27489 13.9334 1.3017C14.1211 1.35536 14.0809 1.5029 14.054 1.63702C14.0003 1.97234 13.826 2.09304 13.437 2.06623C13.4907 1.89186 13.7321 1.81138 13.5578 1.6236ZM13.598 3.03192C13.8663 3.1124 13.8797 2.92462 13.9601 2.7905C14.0272 2.6832 14.0809 2.54906 14.2418 2.52225C14.3223 2.50883 14.3759 2.50884 14.3625 2.60273C14.3223 2.77708 14.1613 2.87097 14.054 3.00509C13.9334 3.15264 13.7321 3.2197 13.6651 3.40747C13.6516 3.46113 13.5712 3.50136 13.5309 3.4343C13.4773 3.36723 13.3297 3.39406 13.3432 3.27335C13.3699 3.13923 13.4772 2.99169 13.598 3.03192ZM13.303 5.88878C13.2224 5.72783 12.981 5.74125 13.0213 5.62054C13.0481 5.54007 13.1822 5.41935 13.3163 5.31205C13.3432 5.51324 13.3297 5.67419 13.303 5.88878ZM12.9005 5.44617C12.7932 5.19133 12.6323 5.00356 12.8872 4.8292C12.9408 4.78896 13.0078 4.73531 13.0749 4.80237C13.142 4.86943 13.1018 4.92309 13.0481 4.96332C12.9005 5.05721 12.9542 5.23157 12.9005 5.44617ZM13.142 3.38065C13.0347 3.68913 13.2224 3.93055 13.2895 4.21222C13.1822 4.14516 13.0883 4.06469 12.981 3.99763C12.9274 3.95739 12.8737 3.91715 12.8066 3.94397C12.7128 3.98422 12.753 4.06469 12.753 4.13175C12.7664 4.41341 12.7664 4.4134 12.4311 4.53412C12.4445 4.17198 12.6189 3.89032 12.8201 3.62206C12.8872 3.52818 13.0078 3.4343 12.8603 3.30017C12.8066 3.25993 12.8335 3.19287 12.8737 3.15264C12.9408 3.09898 12.9676 3.17946 13.0078 3.20629C13.0883 3.24652 13.1554 3.31358 13.142 3.38065ZM12.3641 3.55501C12.3104 3.42089 12.525 2.96485 12.686 2.89779C12.6993 3.13922 12.525 3.327 12.5116 3.55501C12.5116 3.59525 12.4714 3.62206 12.4445 3.62206C12.4043 3.62206 12.3775 3.58184 12.3641 3.55501ZM12.2702 2.05281C12.3238 2.01257 12.3774 2.0394 12.4043 2.10646C12.4714 2.41495 12.6726 2.40153 12.9139 2.29424C12.9408 2.28082 12.9676 2.29424 13.0749 2.29424C12.8201 2.45519 12.592 2.50884 12.3641 2.54907C12.2702 2.56248 12.1897 2.49542 12.1897 2.41495C12.2031 2.28083 12.1629 2.1467 12.2702 2.05281ZM11.6398 2.49542C11.5593 2.7905 11.9349 2.8978 11.9214 3.16604C11.9214 3.20629 11.9751 3.2331 12.0287 3.19287C12.297 3.03192 12.2299 3.19288 12.1897 3.327C12.1495 3.46113 12.136 3.60866 12.0422 3.74279C11.5056 2.97828 11.3983 2.62954 11.6398 2.49542ZM10.0437 12.1793C9.88274 12.1659 9.68155 12.1524 9.6279 12.0451C9.49378 11.8037 9.27918 11.6026 9.21211 11.3343C9.1987 11.3074 9.23894 11.2404 9.22552 11.2404C8.90362 11.0124 9.21211 10.9051 9.33283 10.7843C9.52059 10.5966 9.61449 10.1808 9.50719 9.93936C9.49378 9.91253 9.45353 9.8723 9.46695 9.84547C9.58767 9.57722 9.49378 9.28215 9.60107 8.97366C9.78885 9.2285 9.85591 9.06755 9.89614 8.92002C9.9498 8.75907 9.97662 8.59811 10.0169 8.42375C10.0437 8.31645 10.0303 8.24939 9.90956 8.19574C9.78885 8.14209 9.68155 8.00797 9.72179 7.87385C9.77544 7.64582 9.69496 7.40441 9.76202 7.1898C9.77544 7.13615 9.81568 7.06909 9.74861 7.01545C9.68155 6.96179 9.61449 7.01544 9.57425 7.05568C9.44012 7.20321 9.22552 7.10932 9.07799 7.1898C8.9841 7.24345 8.83656 7.24345 8.82315 7.37758C8.79633 7.73971 8.64879 8.07503 8.60855 8.43716C8.59513 8.54447 8.58173 8.692 8.72927 8.73224C8.8768 8.77248 8.93045 8.62494 8.99751 8.53105C9.0914 8.39693 9.17188 8.26279 9.26577 8.12867C9.29258 8.08844 9.29258 8.03478 9.34624 8.03478C9.4133 8.03478 9.45353 8.10185 9.45353 8.14209C9.44012 8.24939 9.66813 8.43716 9.33283 8.46399C9.25235 8.46399 9.25235 8.59811 9.23894 8.67859C9.13163 9.20167 8.93045 9.69794 8.75608 10.2076C8.74267 10.2479 8.70244 10.2881 8.66219 10.3552C8.38053 9.92595 8.24641 9.48334 8.20617 9.01391C8.19275 8.77248 8.20617 8.55788 8.35371 8.35669C8.43418 8.2494 8.46101 8.11526 8.51466 7.99455C8.54149 7.9409 8.5549 7.87385 8.48784 7.82019C8.43418 7.77996 8.38053 7.82019 8.3403 7.86043C8.30006 7.88725 8.27323 7.9543 8.20617 7.92748C8.13911 7.88724 8.15252 7.82018 8.15252 7.75312C8.19277 7.16298 8.19275 6.58624 8.19275 5.99609C8.19275 5.67419 8.3403 5.58029 8.66219 5.63394C8.89022 5.67418 8.99751 5.54006 9.0914 5.3657C9.19869 5.1511 9.18529 4.89626 9.42671 4.70848C9.48036 4.94991 9.48036 5.1511 9.27918 5.31205C9.21211 5.3657 9.13163 5.43276 9.15846 5.51324C9.22552 5.76808 9.06457 5.9022 8.8768 6.03632C8.72926 6.14363 8.67561 6.29116 8.75608 6.46553C8.82314 6.61306 8.97068 6.63988 9.11823 6.66671C9.27917 6.69354 9.44012 6.70695 9.58766 6.73377C9.6279 6.74718 9.68155 6.7606 9.72179 6.78743C9.9498 6.94837 10.0705 7.20321 10.3253 7.36416C10.607 7.53852 10.5131 7.84701 10.4729 8.12867C10.4327 8.42374 10.4729 8.71883 10.4595 9.00049C10.4326 9.53699 10.2449 10.0332 10.2046 10.5697C10.1376 11.2538 10.2315 11.8574 10.7009 12.3938C10.7546 12.4609 10.8082 12.528 10.835 12.5951C10.8887 12.7559 10.8619 12.9036 10.6472 12.8901C10.4326 12.8632 10.2315 12.7694 10.0035 12.8499C10.0839 12.7292 10.218 12.7292 10.2583 12.5951C10.3254 12.3268 10.2717 12.1926 10.0437 12.1793ZM10.4997 7.17639C10.4729 7.14956 10.4461 7.12274 10.4192 7.09592C10.2315 6.9752 10.0169 6.90814 10.2315 6.61306C10.4192 6.35822 10.218 6.10338 10.0705 5.88878C9.88274 5.62054 9.9498 5.28523 9.81568 5.00357C9.81568 4.99015 9.8425 4.96333 9.85591 4.94991C9.92297 4.94991 9.93639 4.99015 9.9498 5.0438C10.0705 5.6876 10.4461 6.23752 10.6607 6.85449C10.6875 6.93497 10.7277 7.00203 10.7277 7.0825C10.7411 7.14956 10.7009 7.23003 10.6204 7.25685C10.54 7.28368 10.5265 7.20321 10.4997 7.17639ZM10.6875 4.05127C10.6204 4.06468 10.3522 3.66231 10.3924 3.60867C10.4461 3.52819 10.54 3.56842 10.6741 3.55501C10.8618 3.60867 10.9692 3.80984 11.1033 3.95738C11.1569 4.01103 11.1704 4.09151 11.2642 4.11833C11.3313 4.13175 11.4118 4.19881 11.3983 4.26587C11.385 4.34635 11.2777 4.34635 11.2106 4.35976C11.1301 4.38659 11.0362 4.33293 10.996 4.44023C10.9558 4.53412 10.9021 4.49388 10.8484 4.45365C10.7948 4.41341 10.768 4.37317 10.8216 4.30611C10.9558 4.14516 10.996 4.01103 10.6875 4.05127ZM10.5668 5.74125C10.4327 5.60712 10.4729 5.44618 10.5668 5.32546C10.6338 5.23158 10.6204 5.0438 10.8752 5.12427C11.0229 5.16452 11.0496 4.93649 11.1837 4.8292C11.3313 5.13769 11.5056 5.00357 11.7605 4.80237C11.7739 5.51324 11.3581 5.98267 11.1301 6.59965C10.9423 6.21068 10.7814 5.95584 10.5668 5.74125ZM11.6398 4.15858C11.5458 4.19881 11.452 4.06469 11.4654 4.01103C11.5191 3.89032 11.5727 3.71596 11.6935 3.70255C11.841 3.68914 11.7739 3.89033 11.8275 3.94397C11.8946 4.15858 11.7068 4.11833 11.6398 4.15858ZM11.4922 3.52818C11.4252 3.56842 11.3179 3.6489 11.2777 3.55501C11.224 3.42089 11.4252 3.38065 11.4654 3.24652C11.5995 3.36723 11.6398 3.46111 11.4922 3.52818ZM11.4118 1.91868C11.4252 1.97234 11.4252 2.05281 11.3313 2.05281C11.1704 2.06622 11.0898 1.99915 11.0764 1.79797C11.1837 1.93209 11.3581 1.69067 11.4118 1.91868ZM10.9021 1.03345C11.0898 1.03345 11.0898 1.18099 11.0898 1.23464C11.1033 1.409 10.8752 1.32853 10.8082 1.42242C10.6741 1.43583 10.6741 1.32853 10.6875 1.27488C10.7009 1.16758 10.7009 1.03345 10.9021 1.03345ZM10.6607 2.16011C10.7546 2.1467 10.7814 2.22717 10.8082 2.29424C10.835 2.40153 10.8619 2.52225 10.8887 2.62954C10.9021 2.6966 10.9155 2.7905 11.0094 2.7905C11.0898 2.80391 11.1033 2.72343 11.1301 2.66978C11.1435 2.62954 11.1704 2.58931 11.224 2.58931C11.291 2.58931 11.291 2.64296 11.291 2.6832C11.291 2.80391 11.5056 2.92462 11.3179 3.03192C11.1704 3.1124 10.996 3.2331 10.8216 3.04533C10.7948 3.0185 10.7143 3.01851 10.6472 2.99169C10.768 2.83074 10.8082 2.69661 10.5265 2.65638C10.4729 2.64296 10.3924 2.58931 10.4461 2.52225C10.6875 2.1467 10.379 2.29423 10.2046 2.28082C10.1912 2.28082 10.1778 2.26741 10.151 2.254C10.3119 2.1467 10.4997 2.18693 10.6607 2.16011ZM9.66813 4.69508C9.48036 4.42682 9.48036 4.42682 9.07799 4.65484C9.21211 4.5073 9.22552 4.2927 9.34624 4.0781C9.48036 4.45365 9.6279 4.25246 9.7352 4.11833C9.8425 3.99763 9.99004 3.94396 10.1376 3.80984C10.1107 4.21222 9.90956 4.46707 9.66813 4.69508ZM10.0839 2.95144C10.0839 3.09898 9.9498 3.09898 9.76202 3.05875C9.7352 3.04533 9.58767 3.12581 9.57425 2.97828C9.57425 2.8978 9.68155 2.77708 9.78885 2.83074C9.89614 2.88438 10.0705 2.79049 10.0839 2.95144ZM9.60107 1.95892C9.69496 1.93209 9.69496 2.01257 9.69496 2.07963C9.72179 2.24058 9.6279 2.28082 9.48036 2.28082C9.37306 2.28082 9.23894 2.25399 9.26577 2.1467C9.29258 2.01257 9.46695 1.99915 9.60107 1.95892ZM8.93045 2.75027C8.95728 2.62955 8.97068 2.50884 8.99751 2.32106C9.06457 2.49543 9.10481 2.58931 9.15846 2.6832C9.18529 2.73685 9.27917 2.79049 9.18529 2.85755C9.13163 2.89779 9.03775 2.96486 8.99751 2.95144C8.8768 2.92461 8.91703 2.83074 8.93045 2.75027ZM8.83656 3.63548C8.90362 3.64889 8.97068 3.67572 9.05116 3.68914C9.10481 3.70254 9.15846 3.70254 9.15846 3.78302C9.14505 3.86349 9.0914 3.83668 9.03775 3.85009C8.79633 3.93056 8.71585 4.15858 8.56831 4.33294C8.51466 4.4 8.56832 4.57436 8.40736 4.53412C8.27323 4.50729 8.36712 4.37318 8.35371 4.27929C8.35371 4.22564 8.35371 4.17198 8.36712 4.10492C8.63538 4.18539 8.67561 4.13175 8.83656 3.63548ZM8.63537 2.60273C8.79633 3.01851 8.50125 3.07216 8.16594 3.09898C8.233 2.85755 8.36712 2.6832 8.63537 2.60273ZM8.21958 3.60867C8.233 3.85009 8.08546 3.9708 7.81721 4.01103C7.88428 3.80984 8.07205 3.72937 8.21958 3.60867ZM7.72333 4.6146C7.85745 4.64142 7.92451 4.70848 7.93793 4.81578C7.95134 4.88284 7.88428 4.90968 7.81721 4.89626C7.6965 4.86943 7.65625 4.77555 7.64285 4.68166C7.64285 4.628 7.68308 4.60119 7.72333 4.6146ZM7.54896 7.05568C7.54896 6.6399 7.5892 6.21068 7.61602 5.78149C7.81721 5.83513 7.89768 5.92902 7.89768 6.11679C7.87086 6.68012 7.85745 7.23004 7.85745 7.79336C7.85745 7.9409 7.88428 8.08844 7.89768 8.23598C7.88428 8.23598 7.87086 8.24939 7.84404 8.24939C7.75015 8.07503 7.65626 7.88725 7.54896 7.71289C7.41484 7.48488 7.54896 7.27027 7.54896 7.05568ZM7.53555 8.22256C7.56238 8.27621 7.61602 8.34327 7.54896 8.39693C7.4819 8.46399 7.42824 8.38352 7.3746 8.35669C7.26729 8.31646 7.10635 8.19574 7.0527 8.30304C6.95882 8.49082 6.67715 8.57128 6.70397 8.81271C6.71739 8.92001 6.69056 9.14803 6.97222 8.97366C7.02588 8.93343 7.21364 8.85295 7.32095 8.9066C7.45507 8.97366 7.58919 8.96026 7.75014 8.97366C7.52213 9.16144 7.45507 9.3358 7.72333 9.52357C7.76356 9.5504 7.76356 9.6577 7.76356 9.72477C7.77697 9.80524 7.8038 9.92595 7.87086 9.92595C8.09887 9.91254 8.12569 10.0735 8.19275 10.2076C8.58173 10.9587 9.07798 11.6428 9.42671 12.4207C9.45353 12.4743 9.50719 12.528 9.45353 12.5682C9.39989 12.6219 9.306 12.5951 9.25235 12.5548C9.01092 12.367 8.7695 12.1793 8.5549 11.978C8.16594 11.6159 7.83062 11.2135 7.49532 10.7978C7.28071 10.5429 7.03928 10.3015 6.81127 10.0467C6.55644 9.77841 6.55644 9.40287 6.34183 9.10779C6.54302 8.85295 6.15406 8.53105 6.44913 8.27621C6.48938 8.24939 6.51619 8.14209 6.55644 8.19574C6.81127 8.46399 6.86492 8.14209 6.98563 8.06162C7.09294 7.99455 7.14658 7.87384 7.26729 7.73971C7.3746 7.90066 7.46849 8.06161 7.53555 8.22256ZM6.19429 11.5086C6.03334 11.4684 6.16747 11.4013 6.20771 11.3477C6.39549 11.0795 6.66373 10.9989 6.98563 11.0391C7.40142 11.1062 7.73673 11.2806 7.93793 11.683C7.76356 11.6428 7.52213 11.8037 7.49532 11.4818C7.49532 11.4147 7.41484 11.4014 7.36118 11.4147C7.06611 11.4416 6.74421 11.4147 6.61009 11.7501C6.56984 11.8439 6.46255 11.8842 6.34183 11.8976C6.39549 11.7232 6.46255 11.5622 6.19429 11.5086ZM5.57732 12.1926C5.57732 12.2865 5.72485 12.3938 5.51026 12.4207C5.33589 12.4475 5.2286 12.3805 5.17495 12.2195C5.16153 12.1926 5.17495 12.1524 5.17495 12.1122C5.25541 11.8574 5.16154 11.7366 4.87987 11.7099C4.6921 11.683 4.73233 11.5086 4.70551 11.3879C4.6921 11.2538 4.82622 11.2806 4.9067 11.2538C4.94693 11.2404 5.014 11.227 5.04082 11.2404C5.29566 11.3611 5.52367 11.3208 5.72486 11.066C5.7651 11.3343 5.7651 11.5086 5.59073 11.6695C5.4432 11.8305 5.57732 12.0317 5.57732 12.1926ZM5.32249 10.7307C5.25543 10.7307 5.21518 10.7173 5.16154 10.6502C5.04082 10.4893 4.86645 10.5161 4.77257 10.6771C4.67868 10.838 4.32995 10.8916 4.169 10.7843C4.03488 10.6905 4.12877 10.6234 4.19583 10.5697C4.28972 10.4893 4.42384 10.4088 4.41043 10.2747C4.38361 10.0064 4.59821 9.89912 4.75916 9.72477C4.93352 9.5504 5.05423 9.55041 5.24201 9.68453C5.36272 9.77842 5.52367 9.84547 5.65779 9.89912C5.8858 9.99301 6.087 10.0869 6.06017 10.3686C6.04676 10.4759 6.15406 10.5832 6.26135 10.5161C6.5162 10.3551 6.6235 10.5697 6.77103 10.6771C6.27477 10.5832 5.80533 10.6905 5.32249 10.7307ZM7.18683 7.5117C7.17341 7.619 7.05269 7.619 6.97222 7.64582C6.91857 7.65923 6.8381 7.57876 6.79785 7.65923C6.77104 7.7263 6.75762 7.84701 6.66373 7.8336C6.54302 7.80677 6.6235 7.68606 6.63691 7.60559C6.66373 7.4044 6.46255 7.33733 6.34183 7.12273C6.61008 7.18979 6.81127 7.24345 7.01246 7.28369C7.14658 7.31052 7.20023 7.4044 7.18683 7.5117ZM6.63691 6.10339C6.58326 5.99609 6.6235 5.94243 6.71739 5.94243C6.81127 5.92903 6.9454 5.78149 6.99905 5.95585C7.05269 6.18386 7.07952 6.4387 7.13317 6.68013C6.97222 6.47895 6.75762 6.3314 6.63691 6.10339ZM7.38801 5.76808C7.3746 5.96926 7.3746 6.17045 7.36118 6.37164C7.34777 6.37164 7.33436 6.37164 7.32095 6.38505C7.26729 6.18386 7.20023 5.98267 7.16 5.78149C7.14658 5.70101 7.20023 5.59371 7.30753 5.59371C7.41484 5.59371 7.40143 5.6876 7.38801 5.76808ZM6.65032 4.25245C6.63691 4.23904 6.65032 4.19881 6.66373 4.1854C6.77104 4.07811 7.30754 4.1854 7.36118 4.33294C7.3746 4.37318 7.3746 4.4 7.34777 4.42683C7.30754 4.46707 7.26729 4.46705 7.22706 4.44023C7.14658 4.38659 7.0527 4.34635 7.03928 4.46707C6.99905 4.81579 6.66373 4.72189 6.46255 4.8292C6.74421 4.69508 6.75762 4.49388 6.65032 4.25245ZM6.4089 6.10339C6.54302 6.18386 6.6235 6.35822 6.71739 6.49234C6.71739 6.5594 6.66373 6.58624 6.6235 6.61306C6.56984 6.6533 6.48938 6.68013 6.46255 6.7606C6.44913 6.81425 6.46255 6.90814 6.35524 6.86791C6.3016 6.84108 6.22112 6.81424 6.24795 6.73377C6.27477 6.62647 6.22112 6.59965 6.12723 6.59965C5.84557 6.61306 5.96628 6.49235 6.04676 6.38505C6.07359 6.35823 6.087 6.33139 6.11382 6.30457C6.20771 6.2241 6.32842 6.04974 6.4089 6.10339ZM6.34183 7.39099C6.38207 7.43123 6.36866 7.49829 6.32843 7.53853C6.23454 7.63242 6.11382 7.7129 5.95288 7.77996C5.97969 7.57876 6.12723 7.5117 6.20771 7.41781C6.23454 7.37757 6.28818 7.32393 6.34183 7.39099ZM5.92605 4.69508C5.91263 4.6146 5.99311 4.54753 6.07358 4.52072C6.15406 4.49389 6.19429 4.56094 6.23454 4.58777C6.34183 4.66825 6.26135 4.7219 6.22112 4.78896C6.18089 4.85603 6.11382 4.93651 6.11382 5.00357C6.19429 5.44618 5.80533 5.47301 5.51026 5.62054C5.51026 5.47301 5.7651 5.28522 5.37613 5.21816C5.73827 5.12427 5.99311 5.0438 5.92605 4.69508ZM4.58479 5.75466C4.59821 5.71442 4.65185 5.70101 4.66527 5.72783C4.75916 5.87537 5.0274 5.83514 5.06765 6.07656C5.09447 6.25092 5.24201 6.38505 5.48344 6.38505C5.33589 6.4387 5.25543 6.77401 5.0274 6.46553C5.00059 6.42528 4.81281 6.50576 4.6921 6.50576C4.54456 6.50576 4.4909 6.49235 4.57138 6.34481C4.61162 6.27775 4.6921 6.21069 4.59821 6.13021C4.51773 6.06315 4.46409 6.17046 4.38361 6.14363C4.3702 5.98268 4.55798 5.9022 4.58479 5.75466ZM4.63844 7.90066C4.74574 7.86043 4.85305 7.79337 4.78599 7.68607C4.59821 7.33735 4.79939 7.20321 5.10788 7.12273C5.26883 7.57876 5.26883 7.57876 5.64438 7.47147C5.53708 7.64582 5.38955 7.80677 5.33589 7.98113C5.25543 8.20915 5.38955 8.35668 5.63097 8.3701C5.5505 8.67858 5.5505 8.692 5.69804 8.9066C5.83216 8.85295 5.80533 8.65176 5.96628 8.61152C6.12723 9.02732 6.28818 9.45651 6.44913 9.87231C6.43572 9.88571 6.4089 9.91254 6.39549 9.92595C6.10041 9.6443 5.72485 9.48335 5.36272 9.30898C5.28224 9.26874 5.28224 9.20167 5.25543 9.13461C5.21518 9.05413 5.16154 8.97367 5.04082 9.02732C4.94693 9.06755 4.89328 9.04072 4.85305 8.96025C4.78599 8.83954 4.92011 8.85296 4.97376 8.82613C5.12129 8.73225 5.2286 8.61153 5.30907 8.4774C5.33589 8.42375 5.37613 8.3701 5.32249 8.30304C5.26883 8.23598 5.20177 8.26281 5.14812 8.28962C5.014 8.34327 4.83963 8.45058 4.89328 8.1555C4.9067 8.08844 4.85305 8.02138 4.77257 8.03478C4.65185 8.06161 4.57138 8.14209 4.55796 8.24939C4.55796 8.32987 4.58479 8.42375 4.59821 8.51763C4.24948 8.27621 4.2763 8.06161 4.63844 7.90066ZM4.54456 9.08096C4.43726 9.26873 4.18242 9.28215 3.96782 9.3358C4.14218 9.18827 4.26289 9.0139 4.28972 8.77248C4.42384 8.86637 4.58479 9.0139 4.54456 9.08096ZM4.22266 6.21068C4.26289 6.2241 4.26289 6.27775 4.22266 6.29117C4.1556 6.3314 4.10194 6.35823 4.03488 6.38505C3.99465 6.39847 3.96782 6.35822 3.98123 6.31799C4.00806 6.21069 3.94099 6.13021 3.88734 6.0229C4.06171 6.0229 4.11535 6.17044 4.22266 6.21068ZM3.56544 8.65177C3.59227 8.77247 3.71298 8.9066 3.51179 8.98707C3.47155 9.00049 3.40449 9.02731 3.39108 8.98707C3.31061 8.81271 3.49838 8.75906 3.56544 8.65177ZM2.85459 10.6905C2.89482 10.6905 2.92165 10.6905 3.01553 10.6771C2.96188 10.7441 2.93505 10.7843 2.90823 10.8112C2.85459 10.8783 2.85459 11.0124 2.70704 10.9856C2.65339 10.9722 2.63998 10.9453 2.66681 10.9051C2.70704 10.8246 2.70704 10.7039 2.85459 10.6905ZM2.2242 13.0913C2.31808 13.0376 2.21078 12.8365 2.39855 12.9036C2.46561 12.9303 2.63998 12.8901 2.59974 12.9974C2.5595 13.1584 2.38515 13.1182 2.2242 13.0913ZM2.85459 13.5473C2.81434 13.5205 2.72045 13.5071 2.74728 13.4534C2.81434 13.3327 2.81434 13.1717 2.97529 13.1182C3.04235 13.1047 3.04235 13.1584 3.05577 13.2254C3.00212 13.3327 2.93505 13.44 2.85459 13.5473ZM2.37173 12.2999C2.58633 12.2061 2.84117 12.1926 2.7607 11.911C2.7607 11.8976 2.7607 11.8842 2.7607 11.8842C3.01553 11.7768 3.02894 11.5355 3.05577 11.3074C3.05577 11.522 3.17648 11.7099 3.14966 11.8842C3.096 12.2597 2.85459 12.3938 2.37173 12.2999ZM3.6191 9.40287C3.65933 9.40287 3.68616 9.4431 3.67274 9.48334C3.57886 9.64429 3.4179 9.64429 3.18989 9.65769C3.31061 9.46992 3.45815 9.41628 3.6191 9.40287ZM3.6325 10.838C3.64592 10.9319 3.51179 10.8916 3.45815 10.8783C3.35084 10.8514 3.32401 10.7441 3.39108 10.6771C3.48496 10.5832 3.48496 10.4759 3.52521 10.3417C3.71298 10.4893 3.59227 10.6771 3.6325 10.838ZM3.52521 12.367C3.78005 12.3134 3.90076 12.072 3.84711 11.8171C3.82028 11.6964 3.69957 11.7366 3.59227 11.6293C3.90076 11.6293 4.12877 11.5757 4.28972 11.3611C4.37019 11.2672 4.45067 11.3477 4.43726 11.4416C4.41043 11.6562 4.53115 11.8574 4.43726 12.072C4.41043 12.1256 4.43726 12.1926 4.4775 12.2463C4.75916 12.5951 5.04082 12.9572 5.32249 13.3059C5.36272 13.3596 5.45661 13.3596 5.48344 13.44C5.41637 13.5071 5.32249 13.4803 5.24201 13.4936C5.04082 13.5205 4.87987 13.5205 4.93352 13.2388C4.96034 13.0913 4.93352 12.8901 4.65185 12.9974C4.55796 13.0376 4.31655 12.7024 4.35678 12.5951C4.43726 12.3402 4.34337 12.1256 4.20924 11.911C4.169 11.8439 4.11536 11.8305 4.04829 11.8439C3.99465 11.8574 3.94099 11.8976 3.9544 11.9512C4.04829 12.4341 3.57885 12.4072 3.32401 12.6487C3.2972 12.4743 3.36426 12.4072 3.52521 12.367ZM3.52521 13.145C3.68616 13.1584 3.68616 13.3194 3.69957 13.4132C3.71298 13.5473 3.68616 13.6144 3.55204 13.6144C3.35084 13.6144 3.33743 13.4534 3.32401 13.3461C3.31061 13.2388 3.43132 13.1315 3.52521 13.145ZM3.35084 15.8006C3.35084 15.6666 3.4179 15.5726 3.56544 15.5726C3.72639 15.5726 3.68616 15.7068 3.69957 15.7872C3.72639 15.8945 3.65933 15.9347 3.53862 15.9079C3.48496 15.8677 3.35084 15.9482 3.35084 15.8006ZM3.73981 16.5249C3.75322 16.5651 3.75322 16.6456 3.67274 16.6456C3.59227 16.6456 3.55204 16.5651 3.59227 16.5115C3.64592 16.4176 3.60568 16.2701 3.76663 16.2433C3.8337 16.3505 3.69957 16.431 3.73981 16.5249ZM3.83369 14.9556C3.76663 14.9958 3.68616 14.9556 3.64592 14.835C3.84711 14.8483 4.02146 14.8483 4.18242 14.7544C4.26289 14.7008 4.50432 14.8886 4.50432 14.9825C4.50432 15.0495 4.45067 15.0764 4.41043 15.1031C4.37019 15.1435 4.31655 15.13 4.28972 15.0898C4.169 14.9288 4.03488 14.8483 3.83369 14.9556ZM4.55796 16.592C4.39702 16.5786 4.42384 16.3639 4.22266 16.3237C4.11535 16.2968 4.22266 15.8812 4.3702 15.7335C4.50432 15.6129 4.63844 15.5056 4.78599 15.7202C4.54456 15.8275 4.50432 15.975 4.65185 16.2433C4.70551 16.3372 4.74574 16.431 4.92011 16.4981C4.75916 16.5518 4.65185 16.6054 4.55796 16.592ZM5.51026 15.975C5.48344 15.9884 5.45661 16.0152 5.44319 16.0018C5.2286 15.9482 5.014 15.8811 4.79939 15.8141C4.75916 15.8006 4.77257 15.7604 4.79939 15.7202C5.08106 15.8677 5.33589 15.6397 5.61756 15.6666C5.71145 15.6799 5.80533 15.6397 5.99311 15.6129C5.77851 15.7739 5.64438 15.8811 5.51026 15.975ZM8.13911 16.0287C8.24641 16.0555 8.16594 16.1493 8.09887 16.1628C7.93792 16.1896 7.79039 16.2299 7.68308 16.3639C7.65626 16.4042 7.53555 16.431 7.49532 16.4042C7.32095 16.297 7.22706 16.297 7.09294 16.4981C7.01246 16.6188 6.77104 16.4578 6.59667 16.4578C6.54302 16.4578 6.47596 16.4042 6.4223 16.3908C6.27477 16.3505 6.3016 16.2701 6.39549 16.203C6.59667 16.042 6.9588 16.042 7.21364 16.1896C7.26729 16.2164 7.30754 16.203 7.34777 16.1896C7.53555 16.0957 7.70991 15.9884 7.8038 15.8141C7.84404 15.7335 7.87086 15.6397 7.76356 15.586C7.65625 15.5324 7.60261 15.5995 7.57578 15.6799C7.52213 15.8141 7.42824 15.8408 7.30753 15.7872C7.14658 15.7335 6.97222 15.8141 6.78445 15.8006C6.93199 15.6531 7.09294 15.586 7.24047 15.5056C7.3746 15.4251 7.46848 15.3446 7.29412 15.2373C7.21364 15.1837 7.21365 15.13 7.28071 15.0898C7.45507 14.9825 7.5892 14.8081 7.83062 14.7813C7.87086 15.0898 7.34777 15.13 7.50872 15.5056C7.6965 15.4385 7.85745 15.3312 7.97816 15.1568C8.0184 15.1031 8.05863 15.0362 8.12569 15.0495C8.21958 15.0764 8.17935 15.1702 8.17935 15.2239C8.16594 15.358 8.09888 15.4653 8.04522 15.586C7.95134 15.7202 7.76356 15.9347 8.13911 16.0287ZM8.0184 14.4728C7.93792 14.5131 7.9111 14.446 7.87086 14.3789C7.79039 14.2582 7.70991 14.0571 7.49532 14.285C7.42824 14.3521 7.30754 14.4191 7.14658 14.2984C6.89174 14.1106 6.52961 14.2314 6.44913 14.5131C6.4089 14.6606 6.32842 14.741 6.18089 14.7813C6.03334 14.8081 5.91263 14.8886 5.83216 14.9958C5.75168 14.9423 5.75168 14.8752 5.75168 14.8215C5.73827 14.7277 5.72485 14.6471 5.61756 14.6069C5.49684 14.5667 5.48344 14.6606 5.45661 14.7277C5.45661 14.741 5.42978 14.7679 5.41637 14.7679C4.87987 14.7008 5.21518 15.0629 5.16154 15.2373C5.16154 15.2508 5.14812 15.2508 5.13471 15.2775C5.08106 15.1837 5.014 15.0898 4.86645 15.1435C4.77257 15.1837 4.65185 15.1435 4.67868 15.0362C4.70551 14.9422 4.73233 14.7544 4.87987 14.7813C5.04082 14.8081 5.05423 14.7544 5.08106 14.6471C5.09447 14.5935 5.13471 14.5264 5.14812 14.4728C5.28224 14.0973 5.12129 13.8692 4.66527 13.8156C4.79939 13.668 4.97376 13.6815 5.12129 13.668C5.21518 13.6546 5.24201 13.7083 5.24201 13.7754C5.2286 13.9498 5.38955 14.057 5.40296 14.2179C5.41637 14.3387 5.67121 14.3119 5.77851 14.1777C5.84557 14.0973 5.84557 13.99 5.96628 13.9498C5.97969 13.9498 6.00652 13.9498 6.00652 13.9631C6.06017 14.0436 6.07358 14.1911 6.19429 14.1509C6.27477 14.124 6.24795 14.0034 6.24795 13.9094C6.24795 13.7888 6.26135 13.6815 6.18089 13.5473C7.10635 13.8424 8.05863 13.9631 8.99751 14.2179C8.66219 14.285 8.32689 14.3119 8.0184 14.4728ZM9.11823 14.4728C9.0914 14.58 9.01092 14.5533 8.94386 14.5533C8.86339 14.5533 8.74267 14.5264 8.70244 14.5935C8.56831 14.8215 8.50125 14.6204 8.3403 14.5533C8.64879 14.4862 8.8768 14.4325 9.11823 14.4728ZM9.01092 17.2357C8.9841 17.3028 8.91703 17.2894 8.86339 17.2626C8.70244 17.1822 8.52807 17.1419 8.3403 17.1151C8.56831 16.8334 8.7695 17.048 8.97068 17.1016C9.02434 17.1151 9.03775 17.1821 9.01092 17.2357ZM8.98409 15.2775C8.78291 15.3714 8.56831 15.4519 8.46101 15.6666C8.4476 15.6799 8.40736 15.6933 8.39395 15.6933C8.30006 15.6666 8.36712 15.6129 8.38054 15.5458C8.31347 15.4251 8.43418 15.3983 8.50125 15.3178C8.64879 15.1702 8.89022 15.13 8.98409 14.9422C8.99751 14.9154 9.05116 14.902 9.07799 14.9288C9.10482 14.9556 9.13163 14.9958 9.11823 15.0093C9.0914 15.1031 9.11823 15.2239 8.98409 15.2775ZM9.29258 14.4728C9.8425 14.3387 10.1912 14.6606 10.6204 14.8886C10.379 14.9422 10.3388 14.9422 10.0839 14.8483C9.93639 14.7947 9.80227 14.7008 9.6279 14.7813C9.57425 14.8081 9.52059 14.7947 9.53401 14.7277C9.56084 14.5533 9.37306 14.5667 9.29258 14.4728ZM9.65473 16.136C9.57425 16.1762 9.49378 16.2701 9.4133 16.136C9.35966 16.0287 9.46695 15.9884 9.53401 15.9616C9.88274 15.8811 9.69496 15.5995 9.77544 15.4116C9.80226 15.3446 9.66813 15.3581 9.60107 15.3312C9.90956 14.9556 10.0035 14.9422 10.5936 15.2239C10.4997 15.2775 10.4058 15.291 10.2985 15.291C10.151 15.291 10.0839 15.3848 10.1107 15.4922C10.1242 15.6397 10.2583 15.5592 10.3253 15.5458C10.5131 15.5056 10.7143 15.4922 10.8752 15.3714C10.996 15.2775 11.1167 15.3714 11.2106 15.4519C10.9155 15.4787 10.6338 15.5324 10.4595 15.8275C10.3924 15.9347 10.1376 16.0152 9.99003 15.9884C9.81568 15.9884 9.74861 16.0823 9.65473 16.136ZM11.4118 16.1896C11.1033 16.4176 10.8887 16.7395 10.54 16.9407C10.5534 16.9139 10.5534 16.8736 10.5668 16.8468C10.5936 16.753 10.6875 16.6322 10.5802 16.5518C10.4729 16.4578 10.379 16.5518 10.2851 16.6054C10.151 16.6724 10.151 16.6591 10.1242 16.4981C10.0571 16.203 10.2449 16.1628 10.4461 16.136C10.7277 16.0957 11.0227 16.0152 11.3179 16.0689C11.385 16.0689 11.5325 16.0957 11.4118 16.1896ZM11.4118 15.6397C11.4118 15.5592 11.224 15.5995 11.2374 15.4787C11.452 15.4922 11.5862 15.6129 11.6935 15.7604C11.5995 15.7202 11.385 15.9482 11.4118 15.6397ZM11.1837 14.9958C10.8619 14.7813 10.5534 14.58 10.2315 14.3789C10.151 14.3252 10.0571 14.2716 9.9498 14.2582C9.10481 14.0704 8.28664 13.7754 7.42824 13.6815C7.26729 13.668 7.10635 13.5875 6.9454 13.5339C6.56984 13.3998 6.19429 13.2925 5.77851 13.3461C5.57732 13.373 5.60415 13.145 5.49684 13.0511C5.41637 12.9706 5.51026 12.9303 5.5505 12.8901C5.63097 12.8096 5.71145 12.7157 5.80533 12.6353C5.87239 12.5682 5.91263 12.5011 5.99311 12.6487C6.06017 12.7963 6.15406 12.7292 6.19429 12.6084C6.24795 12.4609 6.32843 12.3268 6.44913 12.233C6.48938 12.1926 6.58326 12.139 6.65032 12.2195C6.69056 12.2732 6.66373 12.3403 6.61009 12.3805C6.58326 12.4072 6.54302 12.4207 6.52961 12.4475C6.50278 12.528 6.43572 12.6219 6.51619 12.689C6.61008 12.7694 6.61008 12.6084 6.66373 12.6084C6.97222 12.5951 6.9588 12.367 6.98563 12.1659C7.01246 11.911 7.25389 11.9915 7.40143 11.9378C7.54896 11.8842 7.57579 12.0049 7.58919 12.1256C7.60261 12.233 7.58919 12.3402 7.68308 12.4341C7.79039 12.3402 7.84404 12.2061 7.8038 12.0988C7.72333 11.8976 7.87086 11.911 7.97816 11.911C8.11229 11.911 8.24641 11.9378 8.3403 12.0317C8.52807 12.1926 8.71585 12.3536 8.90362 12.5146C9.07799 12.6755 9.14505 12.823 8.94386 13.0109C8.86339 13.0913 8.93045 13.534 9.03775 13.5875C9.11823 13.6278 9.17188 13.601 9.18529 13.5205C9.1987 13.44 9.1987 13.3596 9.1987 13.279C9.1987 13.1718 9.27917 13.145 9.35964 13.1182C9.44012 13.0913 9.48036 13.1315 9.5206 13.1852C10.0035 13.7485 10.607 14.2179 11.1033 14.7813C11.2374 14.9288 11.4252 15.0227 11.5995 15.13C11.7202 15.1971 11.8275 15.2775 11.9214 15.4653C11.6264 15.291 11.4118 15.1435 11.1837 14.9958ZM10.4595 13.4936C10.5668 13.4669 10.6607 13.44 10.7546 13.5071C10.9692 13.6546 11.0898 13.5607 11.1837 13.3596C11.224 13.2657 11.2106 13.145 11.3715 13.0376C11.7068 13.8558 11.9616 14.6874 12.3372 15.4653C11.7202 14.7947 10.8484 14.3655 10.4595 13.4936ZM12.136 14.0571C11.8946 13.373 11.452 12.8096 10.9423 12.2732C10.7009 12.0183 10.5668 11.6964 10.5936 11.3477C10.6472 10.6905 10.6204 10.0333 10.8484 9.40287C10.9423 9.14803 11.0496 8.89319 11.1704 8.5847C11.2106 8.692 11.224 8.73224 11.2508 8.7859C11.3179 8.93343 11.3983 8.9066 11.452 8.7859C11.5325 8.61153 11.6264 8.42375 11.68 8.23598C11.7471 7.98114 11.3715 7.67265 11.1301 7.76654C10.9825 7.82019 10.9692 7.60559 10.835 7.69948C10.8082 7.63241 10.8216 7.56536 10.835 7.52511C10.9289 7.35075 11.0094 7.16298 11.1167 7.00203C11.5191 6.45211 11.7873 5.83514 12.0824 5.23158C12.2031 5.35229 12.0689 5.64735 12.3104 5.63394C12.4847 5.62054 12.6055 5.40593 12.5518 5.17792C12.7128 5.52665 12.9542 5.82173 12.9945 6.19728C13.0078 6.37164 12.981 6.546 13.0078 6.73377C13.0213 6.89472 12.9005 6.96179 12.7933 7.01545C12.7128 7.05568 12.6055 7.04225 12.6323 6.92155C12.6993 6.69353 12.6055 6.53259 12.4043 6.42529C12.3372 6.38505 12.3372 6.34481 12.3641 6.29117C12.3909 6.21069 12.4043 6.1168 12.297 6.08998C12.2031 6.06315 12.1093 6.1168 12.0824 6.19728C12.0422 6.3314 11.9349 6.37164 11.8141 6.4387C11.6398 6.53259 11.6666 6.72036 11.7202 6.86791C11.7739 7.01544 11.8678 6.92155 11.9616 6.88131C12.1093 6.81424 12.1629 6.94837 12.1897 7.05568C12.2433 7.2971 12.2835 7.52511 12.6055 7.59217C12.686 7.60558 12.6726 7.68606 12.6726 7.75312C12.6591 7.96772 12.6457 8.19574 12.4579 8.35669C12.3506 8.45058 12.3372 8.55788 12.3641 8.67859C12.3909 8.86637 12.3372 8.96024 12.1093 8.93342C11.9616 8.90659 11.8141 8.92001 11.8544 9.13461C11.8946 9.29556 11.7739 9.5504 12.1226 9.52357C12.1762 9.52357 12.2568 9.46993 12.297 9.55041C12.3239 9.59064 12.3104 9.61747 12.2835 9.6443C12.2299 9.69794 12.1629 9.67111 12.0958 9.6443C11.9483 9.60405 11.7873 9.57723 11.6531 9.48334C11.5593 9.41628 11.4922 9.42968 11.4922 9.57722C11.4922 9.75159 11.4654 9.91254 11.6398 10.0333C11.7471 10.1003 11.6935 10.2076 11.7068 10.3015C11.7337 10.4356 11.68 10.5966 11.9081 10.6636C12.0422 10.6905 11.9214 10.8246 11.9349 10.9587C11.7739 10.7575 11.5593 10.6636 11.3983 10.5027C11.291 10.838 11.452 11.1599 11.4654 11.4952C11.4654 11.5489 11.5056 11.6159 11.5593 11.6026C11.8544 11.5355 11.8008 11.7501 11.8008 11.8842C11.7337 12.8901 12.2702 13.7083 12.6457 14.58C12.7799 14.8886 12.8737 15.1971 12.9408 15.5189C12.686 15.0227 12.3239 14.58 12.136 14.0571Z" fill="#1E1F1F"/>
<path d="M2.25161 16.431C2.18454 16.2566 2.01018 16.1358 1.83581 16.0688C1.74192 16.0285 1.72852 16.1358 1.72852 16.2163C1.72852 16.431 1.86264 16.565 2.07724 16.565C2.1443 16.5383 2.29184 16.5383 2.25161 16.431Z" fill="#1E1F1F"/>
<path d="M11.1035 10.0601C11.0096 10.1942 11.0364 10.382 11.1169 10.5161C11.1973 10.6637 11.3181 10.5564 11.412 10.4759C11.3852 10.3686 11.3583 10.2613 11.3315 10.154C11.3047 10.0467 11.1571 9.99303 11.1035 10.0601Z" fill="#1E1F1F"/>
<path d="M11.5458 7.04235C11.4117 7.06917 11.4519 7.17647 11.4385 7.25695C11.4654 7.32401 11.4117 7.43131 11.5056 7.43131C11.6665 7.41791 11.5994 7.24354 11.6531 7.14965C11.6933 7.08259 11.6263 7.02894 11.5458 7.04235Z" fill="#1E1F1F"/>
<path d="M10.2717 9.16157C10.3388 9.05427 10.3253 8.92013 10.3522 8.79943C10.379 8.69212 10.4461 8.53117 10.2985 8.50435C10.1912 8.49094 10.0839 8.62506 10.0437 8.74578C10.0303 8.81284 10.0303 8.8799 10.0303 8.94696C10.0303 9.01403 10.0303 9.06768 10.0303 9.13474C10.0437 9.21522 10.0303 9.3091 10.1376 9.32251C10.2449 9.32251 10.2449 9.21522 10.2717 9.16157Z" fill="#1E1F1F"/>
<path d="M9.90988 9.55031C9.89647 9.49667 9.86964 9.44301 9.80258 9.45643C9.73552 9.46984 9.70869 9.53689 9.7221 9.61737C9.78916 9.73808 9.70869 9.92586 9.86964 10.0466C9.90988 10.0734 9.96353 10.127 10.0172 10.1002C10.0708 10.0734 10.0708 10.0063 10.0574 9.95269C10.0038 9.81855 9.95011 9.68444 9.90988 9.55031Z" fill="#1E1F1F"/>
<path d="M8.16652 13.2791C8.08604 13.2656 8.05922 13.3462 8.07263 13.4133C8.08604 13.5071 8.07263 13.6546 8.19334 13.6681C8.30064 13.6814 8.27381 13.5473 8.30064 13.4802C8.30064 13.3729 8.28723 13.2791 8.16652 13.2791Z" fill="#1E1F1F"/>
<path d="M20.2379 12.3269C20.1306 12.3402 20.0232 12.3671 19.9965 12.4744C19.9562 12.6354 19.9428 12.8231 20.0769 12.9304C20.2513 13.0914 20.2915 13.306 20.2646 13.4804C20.211 13.7486 20.3317 13.9632 20.3586 14.2047C20.3719 14.3655 20.4659 14.4595 20.6402 14.4326C20.7207 14.4595 20.8012 14.4595 20.8414 14.4058C21.0023 14.1778 21.0962 13.9364 21.0829 13.6681C21.0426 13.1852 20.6402 12.8633 20.4659 12.4475C20.4256 12.3537 20.3452 12.3269 20.2379 12.3269Z" fill="#1E1F1F"/>
<path d="M17.6623 12.5681C17.6356 12.4877 17.5819 12.4877 17.5014 12.4877C17.1796 12.4742 17.099 12.5548 17.0723 13.0108C17.26 12.9035 17.421 12.823 17.5819 12.7291C17.649 12.6889 17.6758 12.6352 17.6623 12.5681Z" fill="#1E1F1F"/>
<path d="M18.36 7.99468C18.4271 7.99468 18.4673 7.91421 18.4673 7.86056C18.4673 7.79349 18.3869 7.76667 18.3198 7.75325C18.2527 7.73984 18.1991 7.72643 18.1052 7.71301C18.3064 7.51183 18.1589 7.35088 18.1186 7.17651C17.9711 7.20334 17.9442 7.32405 17.8638 7.39112C17.5687 7.64595 17.5821 7.71301 17.9846 8.10199C18.1454 8.26293 18.2259 8.00809 18.36 7.99468Z" fill="#1E1F1F"/>
<path d="M17.5819 9.24188C17.5282 9.376 17.4209 9.48331 17.4746 9.64426C17.4746 9.65767 17.5148 9.67107 17.5282 9.68449C17.6489 9.68449 17.9574 9.30894 17.9306 9.20163C17.9171 9.13457 17.8635 9.13458 17.8098 9.12117C17.6891 9.10776 17.6221 9.14799 17.5819 9.24188Z" fill="#1E1F1F"/>
<path d="M41.0535 15.0361C39.7793 14.902 38.8001 14.674 38.1295 14.352C37.4589 14.0301 36.9895 13.6412 36.7346 13.1852C36.4798 12.7291 36.3591 12.2731 36.3591 11.7769C36.3591 10.8111 36.7615 10.1003 37.5796 9.63086C38.3978 9.16143 39.4037 8.94682 40.6109 8.96023C41.2948 8.96023 41.8985 9.05412 42.3947 9.2419C42.891 9.42967 43.347 9.68451 43.7226 10.0064C44.0981 10.3283 44.4201 10.7307 44.6749 11.2002C44.8492 11.5086 45.1174 11.7232 45.4796 11.8306C45.8417 11.9512 46.1771 11.8975 46.4855 11.7098C46.7671 11.5354 46.9281 11.2806 46.9684 10.9587C47.0086 10.6368 46.9148 10.3015 46.6867 9.93935C46.2844 9.26871 45.8015 8.69199 45.2382 8.19572C44.6882 7.71287 44.031 7.3239 43.2933 7.04224C42.5556 6.76059 41.6838 6.62646 40.6913 6.62646C39.4172 6.62646 38.2637 6.82764 37.2309 7.21661C36.1981 7.60557 35.38 8.1823 34.7764 8.93341C34.1728 9.68451 33.8778 10.5966 33.8778 11.6696C33.8778 13.1316 34.4545 14.3655 35.608 15.358C36.7615 16.3506 38.3576 16.9541 40.3828 17.1419C41.9387 17.3029 43.0385 17.732 43.7226 18.416C44.3932 19.1001 44.7419 19.878 44.7419 20.7365C44.7419 21.4204 44.5407 21.9972 44.1249 22.4666C43.7226 22.936 43.186 23.2848 42.5289 23.5262C41.8716 23.7676 41.1473 23.8884 40.3694 23.8884C39.672 23.8884 39.0014 23.781 38.3576 23.5664C37.7272 23.3518 37.1773 23.0702 36.7346 22.7349C36.2921 22.3862 35.9702 22.0106 35.769 21.6083C35.6214 21.2998 35.4068 21.0717 35.1251 20.9108C34.8434 20.7498 34.5484 20.7096 34.2534 20.7767C33.8509 20.8571 33.5559 21.0449 33.3815 21.34C33.2072 21.635 33.2072 21.9569 33.3681 22.2923C33.69 23.0568 34.213 23.7408 34.9105 24.3176C35.608 24.9077 36.4396 25.3638 37.3785 25.6857C38.3173 26.0075 39.3232 26.1819 40.3694 26.1819C41.2546 26.1819 42.0996 26.0612 42.9312 25.8332C43.7628 25.6052 44.487 25.2565 45.1309 24.787C45.7746 24.3176 46.2844 23.7408 46.6733 23.0568C47.0623 22.3727 47.25 21.568 47.25 20.6292C47.25 19.0197 46.7002 17.7187 45.6271 16.7261C44.5541 15.7336 42.9849 15.2238 41.0535 15.0361Z" fill="#1E1F1F"/>
<path d="M60.3548 13.4133C59.3489 12.8231 58.1955 12.5146 56.9347 12.5146C55.6739 12.5146 54.5204 12.8097 53.5011 13.4133C52.4817 14.0034 51.677 14.8216 51.0734 15.8409C50.4833 16.8737 50.1748 18.0272 50.1748 19.3147C50.1748 20.6024 50.443 21.7559 50.9929 22.7752C51.5428 23.7945 52.2805 24.5993 53.2328 25.2028C54.1851 25.793 55.2447 26.1015 56.4384 26.1015C57.6321 26.1015 58.6917 25.8065 59.644 25.2028C60.2341 24.8407 60.7304 24.3713 61.1596 23.8482V24.7737C61.1596 25.1359 61.2803 25.4309 61.5083 25.6723C61.7497 25.9138 62.0449 26.0211 62.407 26.0211C62.7691 26.0211 63.0642 25.9003 63.3056 25.6723C63.5471 25.4309 63.6544 25.1359 63.6544 24.7737V19.3147C63.6544 18.0272 63.3592 16.8737 62.7557 15.8409C62.1655 14.8082 61.3608 14.0034 60.3548 13.4133ZM60.6902 21.6486C60.3146 22.346 59.805 22.8825 59.1477 23.2849C58.4905 23.6872 57.7528 23.8885 56.9212 23.8885C56.1031 23.8885 55.3654 23.6872 54.7082 23.2849C54.051 22.8825 53.5279 22.3326 53.139 21.6486C52.7499 20.9511 52.5622 20.1732 52.5622 19.3147C52.5622 18.4295 52.7499 17.6516 53.139 16.9542C53.5279 16.2567 54.051 15.7202 54.7082 15.3178C55.3654 14.9155 56.1031 14.7143 56.9212 14.7143C57.7528 14.7143 58.4905 14.9155 59.1477 15.3178C59.805 15.7202 60.3146 16.2702 60.6902 16.9542C61.0657 17.6516 61.2535 18.4295 61.2535 19.3147C61.2535 20.1866 61.0657 20.9646 60.6902 21.6486Z" fill="#1E1F1F"/>
<path d="M83.9061 13.1048C83.1817 12.7023 82.3636 12.4878 81.4381 12.4878C80.3785 12.4878 79.4396 12.7157 78.6081 13.1717C78.018 13.5071 77.5485 13.9631 77.1461 14.4728C76.7706 13.9094 76.328 13.4266 75.7647 13.1048C75.0404 12.7023 74.2222 12.4878 73.2967 12.4878C72.3311 12.4878 71.4726 12.7157 70.7216 13.1717C70.3997 13.373 70.1179 13.6144 69.8631 13.8692C69.8631 13.4937 69.7424 13.1986 69.5279 12.9706C69.2998 12.7426 68.9913 12.6219 68.6292 12.6219C68.2671 12.6219 67.9719 12.7426 67.7305 12.9706C67.4891 13.1986 67.3818 13.5071 67.3818 13.8827V24.7736C67.3818 25.1358 67.5025 25.4308 67.7305 25.6722C67.9719 25.9137 68.2671 26.021 68.6292 26.021C69.0048 26.021 69.2998 25.9003 69.5279 25.6722C69.7558 25.4308 69.8631 25.1358 69.8631 24.7736V17.8661C69.8631 16.9541 70.1448 16.203 70.6947 15.6129C71.2447 15.0227 71.9555 14.7277 72.8005 14.7277C73.6186 14.7277 74.2758 14.9825 74.7856 15.4787C75.2952 15.975 75.55 16.7395 75.55 17.7723V24.7736C75.55 25.1358 75.6708 25.4308 75.8987 25.6722C76.1402 25.9137 76.4353 26.021 76.7974 26.021C77.173 26.021 77.468 25.9003 77.6961 25.6722C77.924 25.4308 78.0448 25.1358 78.0448 24.7736V17.8661C78.0448 16.9541 78.313 16.203 78.8629 15.6129C79.4129 15.0227 80.1102 14.7277 80.9553 14.7277C81.7734 14.7277 82.4307 14.9825 82.9403 15.4787C83.45 15.975 83.7048 16.7395 83.7048 17.7723V24.7736C83.7048 25.1358 83.8256 25.4308 84.0536 25.6722C84.295 25.9137 84.59 26.021 84.9522 26.021C85.3277 26.021 85.6229 25.9003 85.8508 25.6722C86.0789 25.4308 86.1995 25.1358 86.1995 24.7736V17.7723C86.1995 16.6457 85.9983 15.6933 85.596 14.902C85.1937 14.1106 84.6304 13.5071 83.9061 13.1048Z" fill="#1E1F1F"/>
<path d="M99.8676 13.3864C98.8616 12.8097 97.6947 12.5146 96.3937 12.5146C95.0793 12.5146 93.9124 12.8097 92.8931 13.3864C91.8737 13.9632 91.0823 14.768 90.5057 15.7873C89.9289 16.8066 89.6338 17.987 89.6338 19.3282C89.6338 20.6426 89.9021 21.8229 90.4386 22.8423C90.975 23.8616 91.7127 24.6664 92.6516 25.2432C93.5905 25.8198 94.6635 26.115 95.8975 26.115C97.0241 26.115 98.0166 25.8332 98.8751 25.2432C99.6261 24.7334 100.23 24.0494 100.713 23.2178V24.4518C100.713 25.5113 100.511 26.41 100.122 27.1477C99.7334 27.8854 99.2103 28.4353 98.5397 28.8108C97.8825 29.1864 97.1583 29.3741 96.3803 29.3741C95.5353 29.3741 94.7709 29.2132 94.1001 28.9047C93.4295 28.5962 92.8797 28.167 92.437 27.6037C92.2358 27.3489 91.981 27.1745 91.6725 27.1075C91.3506 27.0404 91.0421 27.1075 90.7605 27.3087C90.5057 27.4831 90.3447 27.7244 90.2776 28.0195C90.2105 28.3146 90.2911 28.5962 90.5057 28.8779C91.2031 29.7632 92.0615 30.4338 93.0808 30.8898C94.0868 31.3458 95.1732 31.5738 96.34 31.5738C97.6814 31.5738 98.8616 31.2653 99.8809 30.6484C100.9 30.0314 101.692 29.1999 102.268 28.1402C102.845 27.094 103.127 25.9138 103.127 24.6261V19.3416C103.127 18.0004 102.832 16.82 102.255 15.8007C101.678 14.7813 100.873 13.9632 99.8676 13.3864ZM98.647 23.2983C97.9898 23.6872 97.2387 23.8885 96.3937 23.8885C95.5488 23.8885 94.7976 23.6872 94.1405 23.2983C93.4832 22.9093 92.9735 22.3729 92.5979 21.6888C92.2225 21.0048 92.0346 20.2134 92.0346 19.3147C92.0346 18.4162 92.2225 17.6248 92.5979 16.9273C92.9735 16.23 93.4832 15.6934 94.1405 15.3044C94.7976 14.9155 95.5488 14.7143 96.3937 14.7143C97.2387 14.7143 97.9898 14.9155 98.647 15.3044C99.3043 15.6934 99.8139 16.2433 100.176 16.9273C100.538 17.6248 100.726 18.4162 100.726 19.3147C100.726 20.2134 100.538 21.0048 100.176 21.6888C99.8139 22.3729 99.2908 22.9093 98.647 23.2983Z" fill="#438F65"/>
<path d="M115.587 12.9436C115.103 12.6217 114.379 12.4607 113.401 12.4607C112.422 12.4607 111.523 12.6886 110.705 13.1447C110.141 13.4532 109.685 13.8825 109.283 14.3385V13.8288C109.283 13.4263 109.176 13.1179 108.974 12.9167C108.773 12.7155 108.465 12.6082 108.062 12.6082C107.673 12.6082 107.365 12.7155 107.164 12.9301C106.963 13.1447 106.842 13.4398 106.842 13.8288V24.76C106.842 25.1623 106.949 25.4708 107.164 25.672C107.379 25.8732 107.673 25.9805 108.062 25.9805C108.465 25.9805 108.773 25.8732 108.974 25.6585C109.176 25.4439 109.283 25.1489 109.283 24.76V17.6111C109.283 16.8599 109.525 16.243 110.007 15.7468C110.49 15.2639 111.147 14.9285 111.979 14.7408C112.81 14.5664 113.749 14.5798 114.795 14.7945C115.01 14.8481 115.197 14.8481 115.386 14.8213C115.56 14.7945 115.721 14.714 115.868 14.5933C116.003 14.4725 116.097 14.2982 116.15 14.0702C116.244 13.641 116.056 13.2654 115.587 12.9436Z" fill="#438F65"/>
<path d="M126.947 13.3597C126.035 12.7964 124.935 12.5146 123.675 12.5146C122.387 12.5146 121.247 12.8097 120.255 13.3864C119.262 13.9632 118.484 14.768 117.921 15.7873C117.358 16.8066 117.076 17.987 117.076 19.3282C117.076 20.6426 117.371 21.8229 117.974 22.8423C118.564 23.8616 119.396 24.6664 120.443 25.2432C121.489 25.8198 122.695 26.115 124.05 26.115C124.802 26.115 125.592 25.9808 126.411 25.6992C127.229 25.4175 127.926 25.0688 128.477 24.6261C128.758 24.4116 128.879 24.1567 128.865 23.8616C128.852 23.5666 128.705 23.2983 128.423 23.0569C128.208 22.8825 127.967 22.7887 127.671 22.802C127.39 22.8154 127.122 22.9093 126.881 23.0837C126.559 23.3251 126.129 23.5397 125.592 23.7275C125.07 23.9153 124.547 24.0091 124.037 24.0091C123.111 24.0091 122.28 23.808 121.569 23.3922C120.845 22.9898 120.282 22.4265 119.879 21.729C119.611 21.2596 119.437 20.7499 119.343 20.1866H128.638C128.96 20.1866 129.228 20.0793 129.442 19.8782C129.656 19.6769 129.764 19.4221 129.764 19.1136C129.764 17.826 129.523 16.686 129.04 15.6934C128.557 14.7009 127.859 13.923 126.947 13.3597ZM121.287 15.224C121.944 14.8216 122.736 14.607 123.675 14.607C124.493 14.607 125.177 14.7948 125.753 15.1703C126.331 15.5459 126.759 16.0556 127.069 16.6994C127.283 17.1554 127.404 17.665 127.484 18.2016H119.383C119.463 17.7321 119.598 17.2895 119.786 16.8871C120.12 16.1896 120.616 15.6398 121.287 15.224Z" fill="#438F65"/>
<path d="M141.648 13.3597C140.736 12.7964 139.636 12.5146 138.376 12.5146C137.087 12.5146 135.948 12.8097 134.955 13.3864C133.963 13.9632 133.184 14.768 132.621 15.7873C132.058 16.8066 131.776 17.987 131.776 19.3282C131.776 20.6426 132.072 21.8229 132.674 22.8423C133.265 23.8616 134.096 24.6664 135.143 25.2432C136.189 25.8198 137.397 26.115 138.751 26.115C139.502 26.115 140.294 25.9808 141.112 25.6992C141.93 25.4175 142.628 25.0688 143.177 24.6261C143.458 24.4116 143.579 24.1567 143.566 23.8616C143.552 23.5666 143.405 23.2983 143.124 23.0569C142.909 22.8825 142.667 22.7887 142.373 22.802C142.091 22.8154 141.822 22.9093 141.581 23.0837C141.259 23.3251 140.83 23.5397 140.294 23.7275C139.77 23.9153 139.247 24.0091 138.737 24.0091C137.812 24.0091 136.981 23.808 136.269 23.3922C135.545 22.9898 134.982 22.4265 134.58 21.729C134.312 21.2596 134.137 20.7499 134.043 20.1866H143.338C143.66 20.1866 143.928 20.0793 144.142 19.8782C144.358 19.6769 144.464 19.4221 144.464 19.1136C144.464 17.826 144.223 16.686 143.74 15.6934C143.258 14.7009 142.56 13.923 141.648 13.3597ZM135.988 15.224C136.645 14.8216 137.436 14.607 138.376 14.607C139.194 14.607 139.878 14.7948 140.455 15.1703C141.031 15.5459 141.461 16.0556 141.769 16.6994C141.983 17.1554 142.104 17.665 142.185 18.2016H134.084C134.164 17.7321 134.298 17.2895 134.486 16.8871C134.821 16.1896 135.33 15.6398 135.988 15.224Z" fill="#438F65"/>
<path d="M159.419 15.3312C158.91 14.4058 158.199 13.6948 157.314 13.2121C156.429 12.7292 155.423 12.4878 154.295 12.4878C153.222 12.4878 152.244 12.7292 151.385 13.1986C150.916 13.4534 150.5 13.7754 150.137 14.1375V13.8558C150.137 13.4803 150.031 13.1852 149.802 12.9571C149.574 12.7292 149.266 12.6084 148.904 12.6084C148.542 12.6084 148.246 12.7292 148.005 12.9571C147.764 13.1852 147.656 13.4937 147.656 13.8558V24.7736C147.656 25.1358 147.777 25.4308 148.005 25.6722C148.246 25.9137 148.542 26.021 148.904 26.021C149.28 26.021 149.574 25.9003 149.802 25.6722C150.031 25.4308 150.137 25.1358 150.137 24.7736V17.8661C150.137 17.2626 150.298 16.7261 150.634 16.2566C150.969 15.7872 151.398 15.4251 151.949 15.1435C152.498 14.8618 153.128 14.7277 153.813 14.7277C154.564 14.7277 155.221 14.8752 155.811 15.1568C156.402 15.4385 156.857 15.8811 157.192 16.4713C157.528 17.0614 157.702 17.8125 157.702 18.7514V24.7736C157.702 25.1358 157.823 25.4308 158.051 25.6722C158.293 25.9137 158.587 26.021 158.95 26.021C159.312 26.021 159.607 25.9003 159.848 25.6722C160.089 25.4308 160.197 25.1358 160.197 24.7736V18.7514C160.197 17.3967 159.942 16.2566 159.419 15.3312Z" fill="#438F65"/>
</svg>
