<svg width="16" height="16" viewBox="0 0 16 16" fill="none" xmlns="http://www.w3.org/2000/svg">
<g clip-path="url(#clip0_319_715)">
<path d="M11.6413 11.6594C11.6413 11.6594 10.9221 11.5048 9.81292 11.6594C8.70378 11.814 8.65672 11.8342 8.05174 11.8476C8.01813 11.8476 7.99124 11.8611 7.96435 11.8678C7.93746 11.8611 7.91057 11.8544 7.87696 11.8476C7.26525 11.8342 7.2182 11.814 6.11577 11.6594C5.01335 11.5048 4.28737 11.6594 4.28737 11.6594L2.08252 11.9417C2.31779 12.298 2.30435 12.7081 3.64204 12.5064C4.98646 12.3047 5.29568 12.3182 6.15611 12.5198C6.79471 12.6677 7.58791 12.661 7.95763 12.6408C8.32734 12.6543 9.12727 12.6677 9.75915 12.5198C10.6196 12.3182 10.9288 12.298 12.2732 12.5064C13.6176 12.7081 13.5975 12.3047 13.8327 11.9417L11.6413 11.6594Z" fill="#438F65"/>
<path d="M11.1373 13.1921C11.1373 13.1921 10.5256 13.0375 9.58446 13.1921C8.64337 13.3467 8.60303 13.3669 8.08543 13.3803C8.05854 13.3803 8.03838 13.3938 8.01149 13.4005C7.9846 13.3938 7.96444 13.3871 7.93755 13.3803C7.41995 13.3669 7.37961 13.3467 6.43852 13.1921C5.49743 13.0375 4.88572 13.1921 4.88572 13.1921L3.01025 13.4745C3.21192 13.8307 3.19847 14.2408 4.34123 14.0391C5.48398 13.8374 5.74614 13.8509 6.47885 14.0526C6.57296 14.0794 6.68052 14.0929 6.78135 14.1131C6.77463 14.1131 6.75446 14.1131 6.75446 14.1131C6.75446 14.1131 7.89721 14.3954 9.31558 14.1131C9.49035 14.0794 9.58446 14.0526 9.61135 14.0324C10.2903 13.8509 10.5793 13.8374 11.6818 14.0324C12.8245 14.2341 12.8111 13.8307 13.0127 13.4677L11.1373 13.1921Z" fill="#438F65"/>
<path d="M4.40186 14.9399C4.40186 14.9399 7.78307 17.5078 11.581 14.9399C11.581 14.9399 11.2517 14.4156 10.1224 14.9399C8.99977 15.4643 6.51931 15.2155 5.86727 14.8996C5.21523 14.5837 4.91273 14.6912 4.40186 14.9399Z" fill="#438F65"/>
<path d="M8.75068 10.2478C8.75068 10.2142 8.75069 10.1873 8.74396 10.1537C8.67674 9.75711 8.67674 9.36051 8.67002 8.96391C8.67002 8.84963 8.6633 8.73536 8.73724 8.6278C8.92546 8.36564 9.1809 8.1707 9.44978 7.98921C9.53045 7.93543 9.67161 7.97576 9.65817 8.05643C9.63128 8.21776 9.87327 8.33203 9.72539 8.50681C9.69178 8.54714 9.759 8.60091 9.81277 8.62108C9.87327 8.64125 9.94049 8.64125 10.0077 8.63453C10.0548 8.62781 10.0951 8.63453 10.1422 8.64797C10.3169 8.70847 10.4245 8.67486 10.532 8.5337C10.5724 8.47992 10.6261 8.45975 10.6665 8.51353C10.7337 8.5942 10.8211 8.62781 10.9219 8.65469C10.9824 8.66814 11.0093 8.77569 10.969 8.8093C10.8681 8.90341 10.8749 8.97063 10.9959 9.05129C11.0429 9.01768 10.9824 8.94374 11.0362 8.91013C11.0967 8.95046 11.1169 9.06474 11.2042 9.02441C11.2849 8.98408 11.2244 8.89669 11.1975 8.82947C11.1908 8.81603 11.1841 8.8093 11.1774 8.79586C11.1706 8.77569 11.1774 8.7488 11.1975 8.73536C11.2177 8.72864 11.2244 8.74208 11.2379 8.75553C11.3387 8.8698 11.3521 8.76897 11.3723 8.70847C11.3857 8.67486 11.3521 8.63453 11.3925 8.58747C11.4059 8.63453 11.4194 8.66814 11.4328 8.70175C11.4664 8.76225 11.4731 8.8698 11.5672 8.84963C11.6345 8.83619 11.621 8.73536 11.621 8.67486C11.621 8.55386 11.5336 8.45303 11.4328 8.49336C11.3387 8.5337 11.3118 8.49336 11.2916 8.42614C11.258 8.32531 11.1975 8.31186 11.0833 8.30514C11.016 8.30514 10.9824 8.15726 10.8681 8.1707C10.8614 8.1707 10.8614 8.1707 10.8547 8.1707C10.5791 8.21776 10.3304 8.15726 10.0884 8.02954C10.0212 7.98921 9.94722 7.96232 9.87327 7.92198C9.83294 7.90182 9.77244 7.90854 9.77244 7.84132C9.77244 7.76738 9.86655 7.80099 9.88 7.75393C9.95394 7.80099 10.0817 7.63966 10.1287 7.80771C10.1422 7.87493 10.169 7.93543 10.2564 7.91526C10.3371 7.8951 10.3438 7.8346 10.3371 7.76738C10.3304 7.72032 10.3237 7.67327 10.3909 7.66655C10.4447 7.65982 10.5186 7.61949 10.5388 7.72032C10.5455 7.74721 10.5724 7.76738 10.5993 7.76065C10.6329 7.75393 10.6396 7.72705 10.6463 7.70016C10.653 7.67999 10.6396 7.64638 10.6732 7.63293C10.895 7.73376 11.1437 7.7741 11.3589 7.88165C11.453 7.92871 11.4731 7.96904 11.4395 8.05643C11.3992 8.06315 11.3723 8.02282 11.3521 8.02282C11.2782 8.02282 11.1908 7.98249 11.137 8.03626C11.0967 8.08332 11.1437 8.15054 11.1639 8.19759C11.2042 8.2917 11.2849 8.26481 11.3521 8.2312C11.4261 8.19087 11.4866 8.15053 11.5471 8.23792C11.5538 8.25137 11.5807 8.25809 11.6009 8.25809C11.6882 8.25137 11.7286 8.28498 11.742 8.36564C11.7555 8.4127 11.7958 8.44631 11.863 8.43286C11.8966 8.42614 11.9235 8.4127 11.9302 8.37237C11.937 8.31859 11.9033 8.2917 11.8765 8.25137C11.863 8.2312 11.816 8.20431 11.8697 8.17743C11.9033 8.16398 11.937 8.16398 11.9504 8.19759C11.9706 8.23792 11.9975 8.27154 12.0378 8.29842C12.1655 8.35892 12.2529 8.5068 12.4344 8.42614C12.4411 8.42614 12.4613 8.43959 12.468 8.44631C12.5352 8.50681 12.6092 8.48664 12.6764 8.44631C12.7369 8.40598 12.7638 8.40597 12.7974 8.47992C12.8243 8.53369 12.8982 8.62108 12.9587 8.55386C13.0327 8.46647 13.1133 8.36564 13.1268 8.24465C13.1335 8.18415 13.0663 8.15726 13.0125 8.14381C12.952 8.13709 12.952 8.17743 12.9453 8.22448C12.9385 8.30515 12.8982 8.31859 12.8377 8.27153C12.7839 8.2312 12.7436 8.19759 12.7369 8.12365C12.7302 8.06987 12.7369 7.99593 12.6629 7.9556C12.6361 7.94215 12.6159 7.92199 12.5823 7.94215C12.5554 7.96232 12.5756 7.98248 12.5756 8.00265C12.5957 8.09004 12.6226 8.17742 12.7033 8.23792C12.5487 8.32531 12.5554 8.32531 12.5419 8.16398C12.5352 8.08331 12.5083 8.00937 12.3941 8.02954C12.3537 8.03626 12.3134 8.03626 12.2663 8.02954C12.226 8.02282 12.1924 8.03626 12.2058 8.07659C12.2193 8.11693 12.2126 8.14381 12.1722 8.16398C12.1521 8.1707 12.1386 8.16398 12.1252 8.15054C12.0848 8.1102 12.1185 8.08331 12.1453 8.04298C12.1991 7.94887 12.1319 7.8346 12.0378 7.86149C11.9302 7.8951 11.8765 7.85476 11.816 7.78082C11.7353 7.69343 11.6143 7.70688 11.5135 7.70016C11.4462 7.69344 11.5269 7.78755 11.4664 7.82116C11.2916 7.73377 11.1034 7.65983 10.895 7.60605C10.9421 7.55227 10.9891 7.56571 11.0295 7.56571C11.211 7.56571 11.3992 7.55899 11.5807 7.55899C11.6815 7.55899 11.7622 7.49849 11.8832 7.53211C12.0848 7.58588 12.2529 7.69343 12.4209 7.78754C12.5823 7.88165 12.7234 7.79427 12.878 7.84132C12.6629 7.76066 12.7638 7.5926 12.7436 7.46488C12.9117 7.64638 12.8848 7.89509 12.999 8.13709C13.0461 7.96904 13.1335 7.9556 13.2612 7.98921C13.3486 8.00937 13.4494 7.9892 13.5435 7.97576C13.5973 7.96904 13.6713 7.94215 13.6511 7.88165C13.6376 7.8346 13.5771 7.78754 13.5099 7.78754C13.2881 7.78754 13.2881 7.79427 13.315 7.60605C13.315 7.57916 13.3015 7.54555 13.3419 7.53882C13.3688 7.5321 13.3822 7.55899 13.3889 7.57916C13.4225 7.6531 13.4965 7.69343 13.557 7.73377C13.6444 7.78754 13.7385 7.76738 13.8259 7.72032C13.8931 7.68671 13.8393 7.61949 13.8326 7.57916C13.8057 7.45816 13.6981 7.54555 13.6242 7.52538C13.6376 7.50522 13.6444 7.4985 13.6578 7.48505C13.6847 7.45816 13.7586 7.45816 13.7385 7.39766C13.7183 7.33716 13.6578 7.34389 13.604 7.34389C13.5435 7.35061 13.483 7.35061 13.4225 7.35733C13.4024 7.35733 13.3688 7.37077 13.362 7.33716C13.3553 7.30355 13.3822 7.29011 13.4091 7.28339C13.4225 7.28339 13.436 7.28338 13.4494 7.27666C13.4763 7.26994 13.5234 7.28339 13.5234 7.23633C13.5234 7.18928 13.4763 7.18928 13.436 7.18255C13.4158 7.18255 13.3956 7.18256 13.3822 7.17584C13.3351 7.16239 13.2747 7.14895 13.2679 7.09517C13.2612 7.04139 13.3217 7.02795 13.3688 7.0145C13.4494 6.98089 13.5368 6.954 13.6108 6.90023C13.6645 6.85989 13.7116 6.82629 13.7855 6.8599C13.8528 6.88678 13.8796 6.83973 13.8729 6.77923C13.8528 6.65823 13.8326 6.54395 13.6981 6.48346C13.604 6.44312 13.6981 6.35574 13.6444 6.30196C13.6981 6.27507 13.6713 6.18096 13.7721 6.18096C13.92 6.18096 13.9469 6.14063 13.8931 6.01291C13.846 5.91208 13.9065 5.85158 13.9603 5.81125C14.0208 5.76419 14.1149 5.76419 14.1821 5.71714C14.209 5.69697 14.3031 5.75075 14.3099 5.66336C14.3166 5.60287 14.3166 5.53564 14.2964 5.48187C14.2762 5.43481 14.2023 5.38776 14.1754 5.46842C14.1418 5.56253 14.088 5.50876 14.041 5.51548C13.9939 5.51548 14.0141 5.48186 14.0208 5.45498C14.0342 5.40792 14.041 5.36087 14.1216 5.38103C14.2023 5.4012 14.2157 5.36087 14.1956 5.28692C14.1687 5.17265 14.1216 5.10543 13.9805 5.10543C13.9065 5.10543 13.8326 5.07854 13.7654 5.04493C13.7049 5.01804 13.5032 5.0651 13.6376 4.89032C13.6376 4.8836 13.6309 4.87688 13.6309 4.86343C13.5973 4.78949 13.5771 4.71555 13.5234 4.64833C13.5099 4.62816 13.4494 4.61472 13.4898 4.57438C13.5301 4.53405 13.5435 4.58111 13.5637 4.60127C13.5906 4.63488 13.6242 4.64161 13.6645 4.62816C13.7183 4.608 13.7049 4.56094 13.7049 4.52733C13.7049 4.46011 13.6981 4.38616 13.6444 4.35255C13.5839 4.31222 13.4898 4.33239 13.4225 4.27861C13.3486 4.366 13.2747 4.27189 13.194 4.27189C13.2612 4.25172 13.2747 4.17106 13.3351 4.14417C13.4091 4.10384 13.436 4.00973 13.4225 3.93578C13.4158 3.86856 13.3352 3.88873 13.2881 3.87529C13.2007 3.8484 13.1537 3.76773 13.1738 3.68034C13.2007 3.57279 13.1604 3.54591 13.0595 3.57279C12.9654 3.59968 12.8713 3.61985 12.7772 3.55935C12.7974 3.51901 12.831 3.51902 12.8579 3.51902C12.9789 3.49885 12.9587 3.39129 12.9722 3.31735C12.9856 3.23669 12.9049 3.23669 12.8377 3.25013C12.7302 3.2703 12.7369 3.19636 12.7503 3.13586C12.7638 3.07536 12.7839 3.01486 12.8041 2.95436C12.8444 2.83336 12.7705 2.73253 12.6293 2.74597C12.5151 2.7527 12.4075 2.79975 12.3604 2.6317C12.347 2.58465 12.2932 2.55104 12.3268 2.49054C12.3403 2.46365 12.3604 2.44348 12.3941 2.4502C12.4613 2.47037 12.4344 2.53087 12.4546 2.57792C12.468 2.61825 12.468 2.67875 12.5352 2.66531C12.589 2.65859 12.589 2.59809 12.5823 2.56448C12.5487 2.40315 12.5554 2.22837 12.3941 2.12082C12.3739 2.10738 12.3672 2.09393 12.3739 2.07376C12.4142 1.91916 12.2999 1.89227 12.1789 1.85866C12.0983 1.83849 12.0512 1.7175 12.1117 1.67044C12.2327 1.56961 12.3067 1.48894 12.0714 1.45533C12.0445 1.44861 12.0311 1.39483 11.9975 1.415C11.9571 1.43516 11.9706 1.48894 11.9706 1.52255C11.9706 1.58977 12.0243 1.65027 11.9773 1.73094C11.8966 1.58305 11.8428 1.44189 11.7353 1.32089C11.6748 1.24695 11.6412 1.24695 11.6143 1.32761C11.5874 1.40828 11.5404 1.38139 11.5 1.34778C11.4664 1.32089 11.4395 1.28056 11.4126 1.24695C11.3656 1.19317 11.332 1.19317 11.2984 1.26039C11.2849 1.28728 11.3051 1.32089 11.2647 1.34106C11.1908 1.31417 11.1975 1.21334 11.1034 1.17301C11.0832 1.30745 10.969 1.38139 10.9555 1.51583C10.9152 1.48894 10.8681 1.45533 10.8278 1.51583C10.8076 1.536 10.7808 1.54944 10.7539 1.52928C10.7337 1.51583 10.7337 1.48894 10.7471 1.46878C10.7875 1.40828 10.7808 1.34778 10.7539 1.28056C10.7337 1.22678 10.7404 1.16628 10.7942 1.11251C10.8413 1.07217 10.9018 0.978067 10.8816 0.9579C10.8211 0.870513 10.895 0.836901 10.9354 0.783124C10.969 0.742792 10.9959 0.689015 10.9219 0.662127C10.7673 0.594906 10.606 0.655404 10.5253 0.80329C10.485 0.870511 10.4447 0.944453 10.3371 0.897399C10.3774 0.830178 10.3909 0.769678 10.3304 0.702458C10.3035 0.668847 10.3304 0.641962 10.3505 0.621796C10.364 0.608352 10.3842 0.588181 10.411 0.601625C10.4379 0.621791 10.4245 0.64868 10.4312 0.675569C10.4379 0.702457 10.4178 0.736067 10.4581 0.769677C10.532 0.722623 10.6127 0.641957 10.5925 0.574736C10.5656 0.500793 10.4514 0.480629 10.3505 0.467185C10.4178 0.346188 10.3774 0.312575 10.122 0.238632C10.0615 0.218465 10.0212 0.245354 9.98083 0.26552C9.86655 0.319297 9.90688 0.433572 9.88672 0.527682C9.75227 0.487349 9.62456 0.447019 9.51028 0.541129C9.49011 0.554573 9.46995 0.574741 9.44978 0.547852C9.35567 0.440299 9.33551 0.54113 9.31534 0.594907C9.28845 0.675572 9.27501 0.73607 9.17418 0.641961C9.12712 0.594906 9.04646 0.615073 9.01957 0.689016C8.95907 0.83018 8.95907 0.83018 8.81118 0.836902C8.83135 0.79657 8.83135 0.749515 8.87168 0.715905C8.90529 0.689016 8.91874 0.655406 8.89185 0.621796C8.85824 0.574741 8.81791 0.615074 8.77757 0.621796C8.71035 0.628518 8.71707 0.722623 8.61624 0.722623C8.69018 0.61507 8.6633 0.520962 8.63641 0.420131C8.60952 0.332744 8.52213 0.319299 8.4818 0.252079C8.45491 0.205024 8.44147 0.104191 8.36753 0.124357C8.3003 0.144523 8.31375 0.238636 8.33392 0.305857C8.33392 0.319301 8.33392 0.332743 8.33392 0.346187C8.33392 0.480629 8.33392 0.480629 8.17931 0.467185C8.17259 0.426853 8.21292 0.406688 8.23308 0.3798C8.26669 0.339467 8.28014 0.299135 8.25325 0.258802C8.21964 0.21847 8.17931 0.238633 8.13897 0.245355C7.95748 0.258799 8.01125 0.393241 7.99781 0.487351C7.99109 0.527683 8.01797 0.588181 7.9642 0.601625C7.89698 0.615069 7.85665 0.54113 7.84992 0.500798C7.84992 0.34619 7.77598 0.413409 7.70204 0.44702C7.68859 0.453742 7.66843 0.460461 7.64154 0.433573C7.74237 0.346186 7.65498 0.2588 7.62137 0.178135C7.60121 0.131081 7.55415 0.124358 7.52726 0.178135C7.50038 0.238634 7.48021 0.22519 7.42643 0.205024C7.35921 0.178136 7.27855 0.178136 7.2046 0.15797C7.15083 0.144526 7.09033 0.157971 7.06344 0.0907498C7.03655 0.0100847 6.94917 -0.0168055 6.89539 0.0100828C6.79456 0.0504154 6.65339 -0.00336339 6.59961 0.144523C6.566 0.23191 6.53239 0.32602 6.42484 0.386518C6.35762 0.426851 6.23662 0.440297 6.21646 0.541129C6.19629 0.648682 6.14251 0.668849 6.0484 0.615072C6.00135 0.588184 5.95429 0.581462 5.95429 0.641961C5.94757 0.789847 5.78624 0.883955 5.81985 1.04529C5.72574 0.93101 5.63836 0.904123 5.53752 1.02512C5.49047 1.0789 5.42997 1.052 5.38292 1.03184C5.2552 0.97134 5.22159 1.04529 5.1947 1.13939C5.18125 1.19989 5.20814 1.25367 5.22159 1.30745C5.23503 1.36122 5.23503 1.40828 5.17453 1.44861C5.16781 1.415 5.16781 1.40156 5.16781 1.38811C5.15437 1.32089 5.18798 1.22006 5.08042 1.21334C4.94598 1.20662 4.79809 1.31417 4.81826 1.40156C4.85187 1.56961 4.76448 1.657 4.6166 1.71749C4.56282 1.73766 4.53593 1.78472 4.4956 1.81833C4.38133 1.69733 4.38133 1.69733 4.33427 1.83849C4.32083 1.88555 4.28722 1.89899 4.24016 1.89899C4.00489 1.90571 4.00489 1.90571 3.95111 2.12754C3.93767 2.18132 3.9175 2.24182 3.93767 2.2956C3.95111 2.33593 3.95783 2.3897 3.87717 2.37626C3.85028 2.36953 3.82339 2.37626 3.81667 2.40315C3.76961 2.56448 3.61501 2.58464 3.48729 2.64514C3.45368 2.61825 3.48056 2.53759 3.41334 2.55103C3.35957 2.55775 3.37973 2.61825 3.37973 2.65187C3.37973 2.67203 3.37973 2.69892 3.3394 2.6922C3.32596 2.60481 3.32596 2.50398 3.21168 2.47709C3.08396 2.44348 3.11757 2.57792 3.07052 2.61825C3.07052 2.61825 3.06379 2.62498 3.06379 2.6317C2.90246 2.77959 2.80836 2.94763 2.86885 3.16946C2.8823 3.22996 2.86213 3.2703 2.77475 3.22997C2.72097 3.20308 2.66719 3.25685 2.6403 3.30391C2.59997 3.37113 2.62686 3.44507 2.66047 3.50557C2.68736 3.55262 2.75458 3.53246 2.78819 3.51229C2.89574 3.44507 2.92935 3.49885 2.96969 3.57951C2.97641 3.59296 2.98985 3.61313 3.0033 3.61985C3.05707 3.64674 3.08396 3.68707 3.06379 3.74085C3.04363 3.80134 2.97641 3.7879 2.92935 3.7879C2.77475 3.76773 2.6403 3.80807 2.50586 3.86184C2.45208 3.88201 2.39831 3.90218 2.41175 3.97612C2.4252 4.04334 2.41175 4.13072 2.47897 4.15761C2.54619 4.19122 2.59325 4.11728 2.6403 4.07023C2.78147 3.92906 2.78147 3.92234 2.91591 4.0299C2.96969 4.07023 2.99657 4.13745 2.92935 4.17778C2.85541 4.21811 2.8823 4.27189 2.87558 4.32566C2.86886 4.37272 2.90919 4.40633 2.88902 4.45339C2.82852 4.57438 2.87558 4.66177 3.02346 4.70882C2.96296 4.72899 2.92263 4.7626 2.86885 4.72227C2.82852 4.68866 2.77475 4.7021 2.73441 4.72899C2.62686 4.80965 2.44536 4.80293 2.41847 4.97098C2.41847 4.97771 2.37814 4.98443 2.35125 4.98443C2.23026 5.0046 2.17648 5.08526 2.21009 5.19282C2.23026 5.24659 2.2437 5.30037 2.26387 5.36087C2.27059 5.39448 2.27731 5.42809 2.23698 5.44153C2.20337 5.45498 2.18992 5.42136 2.17648 5.4012C2.16303 5.38103 2.15631 5.36087 2.12942 5.36759C2.10254 5.37431 2.08237 5.4012 2.08909 5.42809C2.08909 5.4617 2.09581 5.50203 2.10926 5.52892C2.16303 5.6432 2.29748 5.71714 2.29075 5.8583C2.29075 5.87174 2.31764 5.90536 2.33781 5.90536C2.43864 5.91208 2.43192 5.98602 2.43864 6.04652C2.44536 6.08013 2.46553 6.11374 2.47897 6.14063C2.4857 6.1608 2.51931 6.17424 2.49914 6.19441C2.4857 6.20785 2.45209 6.2213 2.43864 6.21458C2.29748 6.14063 2.27731 6.23474 2.25714 6.32885C2.23698 6.40952 2.20337 6.40279 2.16304 6.34229C2.1227 6.28852 2.09581 6.30868 2.06893 6.34902C2.03532 6.38935 2.0017 6.42296 2.0017 6.47674C2.0017 6.52379 2.00171 6.54396 1.92776 6.53723C1.85382 6.53051 1.73954 6.55068 1.75299 6.6784C1.76643 6.79267 1.84037 6.82628 1.95465 6.81956C1.97482 6.81956 1.99498 6.81284 2.00843 6.81284C2.04204 6.80612 2.08237 6.77251 2.10254 6.82628C2.11598 6.86662 2.08909 6.8935 2.05548 6.91367C1.97482 6.96072 1.89415 7.0145 1.80676 7.05484C1.69249 7.10861 1.73954 7.18928 1.75971 7.26322C1.7866 7.35733 1.86054 7.317 1.90087 7.28339C1.96137 7.23633 1.98826 7.30355 2.04204 7.29683C1.95465 7.39094 1.95465 7.45144 2.0622 7.51194C2.16303 7.57244 2.27059 7.59932 2.38486 7.5926C2.44536 7.5926 2.53947 7.59933 2.53275 7.47833C2.52603 7.41783 2.64703 7.38422 2.69408 7.44471C2.74786 7.51194 2.81508 7.53211 2.88902 7.53211C3.02346 7.53211 3.01674 7.62621 2.98313 7.68671C2.9428 7.76065 2.92935 7.8346 2.93608 7.91526C2.93608 7.99593 2.8823 8.03626 2.80836 8.0161C2.74114 7.99593 2.73441 8.00937 2.72769 8.06987C2.71425 8.29842 2.74786 8.32531 2.99657 8.33203C3.13102 8.33203 3.25874 8.33204 3.27218 8.52025C3.28562 8.66142 3.59484 8.72191 3.68895 8.60092C3.75617 8.52025 3.85028 8.50009 3.93095 8.44631C3.98472 8.51353 4.01161 8.59419 4.02505 8.66814C4.03178 8.70175 4.05194 8.72864 4.09228 8.72864C4.13261 8.73536 4.15277 8.70847 4.16622 8.67486C4.17966 8.6278 4.21999 8.58075 4.20655 8.52025C4.19311 8.45975 4.22672 8.41942 4.28049 8.38581C4.30738 8.47992 4.34099 8.54714 4.45527 8.52025C4.48888 8.51353 4.50904 8.52697 4.52921 8.54714C4.60315 8.6278 4.62332 8.56731 4.64349 8.50681C4.65693 8.46647 4.65693 8.38581 4.70399 8.38581C4.79809 8.38581 4.88548 8.39253 4.97959 8.38581C5.0132 8.38581 5.03337 8.39925 5.04009 8.43286C5.04681 8.46647 5.02665 8.48664 4.99976 8.49336C4.96615 8.50009 4.92581 8.50681 4.88548 8.50008C4.81154 8.49336 4.78465 8.52025 4.79809 8.58075C4.80482 8.6278 4.81154 8.68158 4.82498 8.72864C4.85187 8.82947 4.93926 8.87652 5.02665 8.81602C5.20814 8.69502 5.38292 8.55386 5.56441 8.41942C5.56441 8.5337 5.57114 8.65469 5.62491 8.77569C5.64508 8.81602 5.64508 8.8698 5.69885 8.88324C5.74591 8.88996 5.74591 8.82947 5.75935 8.80258C5.79296 8.74208 5.84002 8.75553 5.8938 8.75553C5.96102 8.75553 5.94085 8.80258 5.95429 8.84291C5.96774 8.91013 5.94085 9.01768 6.02152 9.03113C6.11563 9.04457 6.1089 8.92358 6.14923 8.86308C6.18957 8.79586 6.20301 8.68831 6.33745 8.73536C6.28368 8.82275 6.15596 8.86308 6.17612 8.9908C6.18957 9.0513 6.16268 9.1454 6.23662 9.15213C6.31729 9.16557 6.33745 9.06474 6.34418 9.00424C6.35762 8.88324 6.43829 8.84291 6.54584 8.83619C6.66012 8.82947 6.7475 8.80258 6.78111 8.68158C6.88867 8.84291 6.91555 8.84291 7.01638 8.69502C7.04999 8.64125 7.05672 8.58747 7.04327 8.52697C7.03655 8.47992 6.99622 8.43286 7.04327 8.37909C7.10377 8.43286 7.06344 8.56058 7.1441 8.54714C7.2046 8.54042 7.22477 8.41942 7.2046 8.34548C7.16427 8.20431 7.27182 8.16398 7.35921 8.11021C7.43988 8.05643 7.52726 8.05643 7.62137 8.11021C7.80287 8.21776 7.8432 8.38581 7.84992 8.56731C7.84992 8.63453 7.84992 8.69502 7.86337 8.76224C7.91042 8.9908 7.94403 9.21935 7.91714 9.4479C7.9037 9.56218 7.9037 9.67645 7.91714 9.79745C7.93059 9.92517 7.9037 10.0394 7.8432 10.147C7.83648 10.1672 7.82976 10.1873 7.82976 10.2075H1.57821C1.57821 10.2075 1.53116 10.9805 2.14959 10.9805C2.76802 10.9805 13.7923 10.9805 13.7923 10.9805C13.7923 10.9805 14.3905 10.9469 14.3905 10.2075H8.75068V10.2478ZM9.93377 8.06315C9.9741 8.09004 10.0413 8.09004 10.0413 8.15726C10.0413 8.17743 10.0346 8.21776 10.0212 8.21103C9.9741 8.18414 9.90688 8.1707 9.89344 8.10348C9.88672 8.09004 9.90016 8.06987 9.93377 8.06315ZM7.83648 4.91721C7.84992 5.0046 7.86337 5.06509 7.87009 5.11887C7.87681 5.13904 7.87681 5.16593 7.84992 5.17265C7.82976 5.17937 7.78943 5.17265 7.7827 5.16593C7.75582 5.11215 7.72893 5.05165 7.72893 4.99116C7.72893 4.93066 7.80287 4.95082 7.83648 4.91721ZM7.82976 4.78277C7.85665 4.48027 7.9642 4.19795 8.01126 3.90217C8.00453 4.20467 8.0247 4.51388 7.82976 4.78277ZM7.76926 5.44153C7.89026 5.38776 7.91042 5.43481 7.93059 5.54237C7.97764 5.79781 8.03142 6.05325 8.09864 6.30868C8.1457 6.49018 8.10536 6.69856 8.10536 6.91367C7.87681 6.63806 7.68187 6.37591 7.61465 6.04652C7.57432 5.86503 7.48693 5.68353 7.56087 5.48859C7.58104 5.43481 7.58776 5.4012 7.66171 5.43481C7.69532 5.45498 7.74237 5.45498 7.76926 5.44153ZM8.26669 2.66531C8.26669 2.60481 8.26669 2.55776 8.36753 2.53759C8.32719 2.66531 8.45491 2.77958 8.40786 2.88041C8.3608 2.98125 8.36752 3.06864 8.37425 3.16275C8.38097 3.30391 8.28686 3.36441 8.15242 3.31735C8.11881 3.30391 8.11208 3.27702 8.13225 3.25685C8.28686 3.08208 8.25997 2.86697 8.26669 2.66531ZM8.17931 1.8721C8.17931 1.84521 8.19947 1.81833 8.22636 1.8116C8.26669 1.80488 8.26669 1.84522 8.26669 1.86538C8.27341 1.92588 8.27342 1.9931 8.28014 2.0536C8.21964 1.99982 8.17931 1.94604 8.17931 1.8721ZM8.46835 7.41111C8.48852 7.18928 8.53558 6.99434 8.61624 6.81284C8.64313 6.75234 8.71707 6.81284 8.75068 6.74562C8.79102 6.65823 8.81118 6.57085 8.8179 6.47674C8.8179 6.4364 8.79774 6.40279 8.75068 6.41624C8.69019 6.42968 8.67674 6.40279 8.69019 6.34902C8.73724 6.06669 8.83807 5.7978 8.91874 5.5222C8.95235 5.54236 8.9389 5.57598 8.95235 5.60959C8.97923 5.69025 9.01285 5.77091 9.12712 5.74403C9.23468 5.71714 9.24812 5.62303 9.20779 5.56253C9.14729 5.47514 9.17418 5.32054 8.9994 5.32054C9.03973 5.22643 9.07335 5.13232 9.11368 5.03821C9.11368 5.03149 9.1204 5.03148 9.1204 5.02476C9.15401 4.9441 9.1809 4.83654 9.08679 4.80966C8.99268 4.77605 8.97924 4.90377 8.95907 4.95754C8.88513 5.15248 8.8179 5.34743 8.7238 5.54237C8.56919 5.83814 8.49524 6.1608 8.46835 6.49018C8.46163 6.5574 8.43475 6.62462 8.41458 6.72545C8.28686 6.16752 8.13897 5.64319 8.21964 5.09198C8.2398 4.9441 8.25997 4.80294 8.17931 4.64833C8.13225 4.55422 8.17259 4.41977 8.17931 4.3055C8.18603 4.13745 8.19947 3.97612 8.15914 3.80807C8.11881 3.66018 8.20619 3.55935 8.34064 3.46524C8.30703 3.64001 8.38097 3.76773 8.47508 3.88873C8.55574 3.98956 8.62296 4.10384 8.70363 4.20467C8.85152 4.39961 8.77757 4.59455 8.77085 4.78949C8.77085 4.87016 8.69691 4.87016 8.64313 4.89032C8.50869 4.93738 8.44819 5.07854 8.50197 5.19954C8.52213 5.25332 8.55574 5.26004 8.59608 5.2197C8.74396 5.07854 8.88513 4.93738 8.99268 4.7626C9.03973 4.69538 8.97251 4.66177 8.9389 4.58111C9.10023 4.62816 9.17418 4.72899 9.24812 4.82982C9.30862 4.91049 9.36239 4.99115 9.44306 5.05838C9.48339 5.08526 9.49011 5.13232 9.50356 5.17937C9.51028 5.20626 9.53045 5.24659 9.49011 5.26003C9.46322 5.27348 9.42961 5.26676 9.40945 5.24659C9.29517 5.15248 9.29517 5.24659 9.29517 5.31381C9.3019 5.44825 9.28173 5.59614 9.44306 5.67681C9.49011 5.70369 9.46995 5.7373 9.4565 5.77092C9.35567 5.9793 9.25484 6.18096 9.0599 6.32885C9.04646 6.34229 9.02629 6.35574 9.02629 6.36918C9.03301 6.56412 8.89185 6.69184 8.80446 6.85317C8.69018 7.02795 8.63641 7.22961 8.46835 7.41111ZM9.64472 3.51229C9.61111 3.49213 9.59095 3.51229 9.57078 3.53246C9.50356 3.57951 9.44978 3.70051 9.38256 3.6669C9.31534 3.63329 9.37584 3.51901 9.37584 3.43835C9.37584 3.30391 9.36912 3.16275 9.4565 3.02158C9.46995 3.10225 9.49011 3.15602 9.44978 3.22324C9.41617 3.2703 9.40945 3.35096 9.46995 3.39129C9.517 3.4249 9.55734 3.3644 9.60439 3.33752C9.65144 3.31063 9.69178 3.2703 9.75228 3.2703C9.77244 3.33752 9.6985 3.43163 9.83294 3.44507C9.81277 3.49885 9.81277 3.55935 9.8195 3.61312C9.83294 3.69379 9.93377 3.76101 9.88672 3.86184C9.83966 3.96268 9.71866 3.92234 9.638 3.96267C9.59095 3.98956 9.56406 4.02317 9.57078 4.07023C9.58422 4.13073 9.55061 4.22483 9.63128 4.25172C9.71867 4.27861 9.76572 4.20467 9.79261 4.124C9.85311 4.15089 9.8195 4.245 9.89344 4.245C9.96066 4.245 9.9405 4.17106 9.96738 4.13072C10.0346 4.23828 10.0279 4.23156 9.96066 4.33911C9.90016 4.43994 9.86655 4.55422 9.82622 4.66177C9.80605 4.72227 9.77916 4.74916 9.71866 4.68866C9.638 4.60799 9.60439 4.66849 9.58422 4.73571C9.56406 4.80293 9.55733 4.86343 9.53717 4.93738C9.46322 4.93066 9.43634 4.87688 9.40273 4.83655C9.27501 4.66849 9.16073 4.51388 9.28173 4.28533C9.34895 4.15089 9.30862 3.97612 9.43634 3.85512C9.46323 3.8484 9.46323 3.87528 9.46323 3.88873C9.46995 3.92234 9.47667 3.96939 9.517 3.96939C9.56406 3.96939 9.57078 3.92234 9.58422 3.89545C9.61783 3.79462 9.64472 3.69379 9.67161 3.58624C9.67833 3.55935 9.67161 3.53246 9.64472 3.51229ZM9.85311 2.53087C9.83294 2.5107 9.80605 2.49726 9.79261 2.47037C9.77916 2.44348 9.78589 2.40315 9.82622 2.39643C9.89344 2.38971 10.0144 2.55775 9.99427 2.61825C9.95394 2.73925 9.92033 2.86025 10.0077 2.97453C10.0413 3.01486 10.0279 3.06864 10.0212 3.11569C10.0144 3.14258 9.98755 3.16275 9.96066 3.16275C9.91361 3.15602 9.95394 3.12913 9.94722 3.10897C9.94049 3.04847 9.91361 3.04847 9.85983 3.06191C9.79933 3.08208 9.74555 3.09552 9.67161 3.11569C9.67161 3.00814 9.75228 2.94764 9.78589 2.86025C9.79933 2.83336 9.82622 2.80647 9.78589 2.77959C9.75228 2.75942 9.71867 2.77958 9.6985 2.79303C9.67161 2.81319 9.65144 2.84008 9.62456 2.86025C9.56406 2.90058 9.49011 2.88714 9.49011 2.82664C9.48339 2.67875 9.49684 2.52414 9.50356 2.37626C9.50356 2.36281 9.517 2.35609 9.54389 2.30904C9.53717 2.45692 9.67161 2.50398 9.67161 2.62498C9.67161 2.66531 9.73211 2.69892 9.77916 2.6922C9.8195 2.68547 9.86655 2.67875 9.88 2.6317C9.90016 2.59809 9.88672 2.55776 9.85311 2.53087ZM10.048 3.49213C9.98755 3.46524 9.91361 3.45179 9.94722 3.37113C9.95394 3.35096 9.97411 3.3308 10.001 3.34424C10.0749 3.37113 10.0346 3.43835 10.048 3.49213ZM10.411 4.05006C10.3371 3.99628 10.29 4.05006 10.2363 4.08367C10.1825 3.91562 10.2228 3.76773 10.3371 3.63329C10.3505 3.61985 10.364 3.57951 10.364 3.57951C10.243 3.49885 10.3573 3.42491 10.3707 3.35096C10.3774 3.30391 10.3842 3.25013 10.3371 3.22997C10.2699 3.2098 10.2968 3.28374 10.2766 3.31063C10.2497 3.33752 10.2228 3.37113 10.1825 3.41818C10.1354 3.29719 10.1489 3.22324 10.2564 3.16275C10.3505 3.10897 10.4581 3.07536 10.5186 2.96108C10.5589 3.39802 10.8009 3.76101 10.8345 4.1845C10.727 4.09711 10.6934 4.17778 10.6598 4.25844C10.606 4.38616 10.5388 4.50716 10.5052 4.6416C10.4783 4.75588 10.3774 4.82982 10.3169 4.93065C10.2766 4.99787 10.3102 5.10543 10.2094 5.15248C10.2094 5.09871 10.2161 5.05165 10.2094 5.0046C10.1959 4.89032 10.0144 4.87688 10.0212 4.74244C10.0212 4.73571 9.96066 4.7626 9.92705 4.72899C9.98755 4.60127 10.001 4.45339 10.1758 4.38617C10.2632 4.35256 10.2363 4.245 10.2497 4.16434C10.2968 4.22483 10.2632 4.32566 10.3573 4.34583C10.4043 4.35255 10.4178 4.31222 10.4178 4.27189C10.4245 4.20467 10.5119 4.13073 10.411 4.05006ZM11.2715 3.88873C11.3589 3.88201 11.3857 3.81479 11.379 3.74085C11.3723 3.70724 11.4059 3.68707 11.4126 3.66018C11.5202 3.64673 11.574 3.67362 11.5202 3.7879C11.4395 3.97612 11.332 4.15089 11.1572 4.29206C11.1236 4.31895 11.0967 4.35256 11.0496 4.33911C11.016 4.33239 10.9757 4.34583 10.9623 4.31222C10.9488 4.27861 10.969 4.25172 10.9891 4.23156C11.0564 4.16433 11.09 4.08367 11.137 4.00301C11.1639 3.95595 11.137 3.88873 11.09 3.91562C10.895 4.003 10.9085 3.82151 10.895 3.76773C10.8816 3.6669 10.9018 3.56607 10.8749 3.45851C10.8749 3.44507 10.895 3.43163 10.9085 3.41818C10.9555 3.5459 10.9891 3.68707 11.0496 3.80807C11.0832 3.88873 11.1908 3.89545 11.2715 3.88873ZM11.258 3.5459C11.2647 3.52574 11.2782 3.49212 11.2984 3.50557C11.3521 3.53918 11.4462 3.55935 11.4126 3.65346C11.3992 3.65346 11.3857 3.65346 11.3723 3.64674C11.332 3.61985 11.2379 3.64001 11.258 3.5459ZM11.863 2.92747C11.9101 3.00141 11.9302 3.07535 12.0243 3.04847C12.0848 3.03502 12.0781 3.08208 12.0781 3.11569C12.0781 3.16947 12.0781 3.22996 12.0781 3.29046C12.0781 3.32407 12.0781 3.35768 12.0243 3.33752C11.9975 3.32407 11.9571 3.3308 11.984 3.27702C12.0445 3.17619 12.0176 3.10224 11.8899 3.07536C11.8227 3.05519 11.8361 3.00141 11.863 2.92747ZM11.8832 2.63842C11.937 2.6317 12.0109 2.67875 11.9773 2.7527C11.9706 2.76614 11.8832 2.72581 11.8428 2.79303C11.8428 2.72581 11.8294 2.64515 11.8832 2.63842ZM11.0967 6.01963C11.2244 5.87175 11.3185 5.71042 11.3521 5.50203C11.3656 5.4012 11.4328 5.26676 11.6143 5.28692C11.6748 5.29365 11.742 5.25332 11.7958 5.22643C11.8966 5.17265 11.9907 5.10543 12.0983 5.03149C11.9907 5.5827 11.6345 5.88519 11.0967 6.01963ZM11.9571 5.65664C12.0714 5.73058 12.1789 5.69697 12.2999 5.61631C12.3067 5.75747 12.3336 5.86503 12.4613 5.92553C12.2731 5.95241 12.0983 6.00619 11.9235 5.89191C11.8697 5.8583 11.7555 5.91208 11.6613 5.92553C11.7487 5.83142 11.8294 5.75075 11.9033 5.67008C11.9168 5.65664 11.9302 5.6432 11.9571 5.65664ZM11.0429 5.82469C10.969 5.7037 10.9757 5.69697 11.211 5.54909C11.1841 5.67008 11.1101 5.74403 11.0429 5.82469ZM11.8563 4.8231C11.7689 4.77605 11.6613 4.87016 11.574 4.79621C11.621 4.74244 11.6815 4.68866 11.621 4.61471C11.6143 4.60799 11.621 4.57438 11.6277 4.56766C11.7353 4.50044 11.8563 4.46011 11.9571 4.38617C11.9773 4.37272 12.0109 4.41305 12.0042 4.44666C11.9907 4.52061 12.0042 4.59455 11.9168 4.6416C11.8361 4.67521 11.8496 4.74916 11.8563 4.8231ZM11.863 5.07182C11.8294 5.07182 11.816 5.07854 11.7958 5.03149C11.7555 4.93738 11.7891 4.8836 11.8563 4.82982C11.8697 4.89032 11.8832 4.95082 11.9101 5.01132C11.937 5.05165 11.9101 5.0651 11.863 5.07182ZM11.453 4.41977C11.5672 4.37944 11.6546 4.35255 11.742 4.32566C11.7218 4.45338 11.6412 4.48027 11.453 4.41977ZM11.8563 3.55935C11.8899 3.57951 11.9168 3.6064 11.9504 3.62657C11.9437 3.64001 11.9437 3.65346 11.937 3.6669C11.8025 3.64674 11.7958 3.80807 11.6681 3.81479C11.6681 3.68035 11.8294 3.6669 11.8563 3.55935ZM11.7084 3.02158C11.6882 3.12241 11.7017 3.21652 11.6882 3.31735C11.5538 3.11569 11.6412 2.91402 11.695 2.71236C11.7017 2.81991 11.7286 2.92747 11.7084 3.02158ZM11.695 4.07695C11.7151 4.07023 11.7017 4.13745 11.7151 4.17106C11.7353 4.22484 11.7017 4.245 11.6546 4.25844C11.5269 4.3055 11.4059 4.35928 11.2311 4.38617C11.3387 4.26517 11.453 4.19794 11.5135 4.08367C11.5538 4.01645 11.6277 4.11056 11.695 4.07695ZM11.0496 4.55422C11.09 4.5475 11.1437 4.50716 11.1572 4.55422C11.1706 4.60127 11.1774 4.66177 11.1437 4.70882C11.1169 4.73571 11.0631 4.75588 11.0295 4.72899C10.8278 4.5811 10.9085 4.76932 10.8749 4.84999C10.7606 4.76932 10.7606 4.7021 10.8614 4.6416C10.9219 4.60799 10.9824 4.56094 11.0496 4.55422ZM9.75228 5.71714C9.74555 5.75075 9.76572 5.79108 9.71866 5.80453C9.66489 5.79108 9.64472 5.75747 9.66489 5.71714C9.74555 5.53564 9.79261 5.34743 9.84639 5.15921C9.85983 5.11888 9.87999 5.08526 9.93377 5.09198C9.98755 5.0987 9.96738 5.14576 9.98755 5.17265C10.0884 5.30037 10.0144 5.38776 9.93377 5.48859C9.89344 5.54237 9.90688 5.63647 9.77916 5.60959C9.73883 5.60286 9.759 5.68353 9.75228 5.71714ZM9.52373 6.20785C9.30862 6.41624 9.27501 6.72545 9.05318 6.92712C9.16745 6.57757 9.34223 6.26163 9.56406 5.93897C9.59767 6.05324 9.58422 6.14735 9.52373 6.20785ZM9.29517 7.64638C9.33551 7.69343 9.29517 7.7136 9.26156 7.72032C9.17417 7.73377 9.09351 7.7741 8.98596 7.74721C9.20106 7.50522 9.24812 7.196 9.42961 6.94056C9.54389 6.77923 9.66489 6.63134 9.71866 6.44312C9.72539 6.42296 9.73211 6.37591 9.76572 6.40279C9.82622 6.45657 9.85983 6.40952 9.87327 6.3759C9.90016 6.32213 9.93377 6.26163 9.90688 6.20113C9.89344 6.1608 9.84639 6.19441 9.8195 6.16752C9.8195 6.12047 9.86655 6.10702 9.90016 6.10702C10.0413 6.08685 10.0884 5.9793 10.1489 5.87847C10.169 5.84486 10.1892 5.81125 10.1556 5.78436C10.0548 5.69697 10.1354 5.6432 10.1959 5.60959C10.3304 5.54237 10.4178 5.40792 10.5724 5.36087C10.6396 5.3407 10.6732 5.27348 10.6934 5.19954C10.7471 5.23987 10.7471 5.2802 10.727 5.29365C10.6194 5.4012 10.6598 5.49531 10.727 5.60286C10.7539 5.64992 10.8009 5.71042 10.727 5.75075C10.6732 5.77764 10.6127 5.85158 10.5455 5.74403C10.5186 5.69697 10.4178 5.66336 10.3573 5.71042C10.29 5.7642 10.2833 5.85158 10.2766 5.93224C10.2766 5.93897 10.2833 5.94569 10.29 5.95241C10.4514 6.05324 10.4648 6.1003 10.4379 6.28851C10.4379 6.29524 10.4447 6.30196 10.4514 6.32213C10.5253 6.25491 10.6665 6.26163 10.6396 6.10702C10.6329 6.08013 10.7203 6.02636 10.7673 5.99947C10.8345 5.95914 10.9085 5.93225 10.9824 5.89864C10.969 6.02636 10.9623 6.02635 10.8413 6.03308C10.7539 6.03308 10.7203 6.09358 10.6934 6.15407C10.6127 6.34902 10.5186 6.53051 10.3304 6.65151C10.3237 6.65151 10.3237 6.65823 10.3237 6.65823C10.0212 6.7389 9.99427 7.02795 9.84639 7.22289C9.79933 7.28339 9.77244 7.31028 9.69178 7.26994C9.57078 7.21617 9.43634 7.2565 9.34895 7.33044C9.2414 7.39766 9.1809 7.51866 9.29517 7.64638ZM9.43634 7.60605C9.38928 7.58588 9.42289 7.53883 9.40945 7.51194C9.38928 7.46489 9.42289 7.438 9.46995 7.43127C9.52372 7.41783 9.5775 7.40438 9.64472 7.38422C9.69178 7.39094 9.68505 7.41783 9.65817 7.44471C9.62455 7.48505 9.58422 7.52538 9.54389 7.55899C9.517 7.58588 9.48339 7.62622 9.43634 7.60605ZM9.60439 7.66655C9.71867 7.5321 9.83294 7.4111 10.0077 7.37077C9.86655 7.45816 9.81277 7.63293 9.60439 7.66655ZM9.95394 7.20944C9.99427 7.14222 10.0212 7.08844 10.1287 7.08172C10.2363 7.075 10.29 6.96745 10.3035 6.87334C10.3102 6.81284 10.3237 6.77251 10.3842 6.73217C10.4312 6.86662 10.4581 6.98762 10.4715 7.12206C10.4783 7.196 10.4581 7.23633 10.3774 7.2565C10.2968 7.27666 10.1892 7.33716 10.1422 7.31028C10.0884 7.26322 10.0212 7.24978 9.95394 7.20944ZM12.4209 7.6531C12.3403 7.6531 12.2865 7.60605 12.2193 7.57916C12.226 7.56572 12.2327 7.55899 12.2327 7.55899C12.3067 7.55899 12.3806 7.54555 12.4277 7.61949C12.4277 7.62621 12.4209 7.6531 12.4209 7.6531ZM12.6495 7.53211C12.6629 7.57916 12.6159 7.58588 12.5756 7.57244C12.5285 7.55899 12.4814 7.53882 12.4209 7.51866C12.4949 7.45144 12.6024 7.42455 12.6629 7.34389C12.6629 7.40439 12.6293 7.46488 12.6495 7.53211ZM12.7907 6.81284C12.7167 6.83301 12.7167 6.88006 12.7302 6.94056C12.7705 7.11533 12.6764 7.21616 12.5285 7.29683C12.347 7.39766 12.1655 7.48505 11.9033 7.39766C12.1386 7.29683 12.1857 7.03467 12.4478 6.98761C12.589 6.96072 12.6764 6.83973 12.7839 6.75234C12.8108 6.73217 12.8243 6.70529 12.7907 6.67168C12.7503 6.63807 12.7167 6.63806 12.6831 6.6784C12.6024 6.76578 12.5218 6.85317 12.3941 6.88679C12.3672 6.77923 12.4277 6.69857 12.468 6.6179C12.4747 6.59773 12.5083 6.5574 12.5285 6.57756C12.6226 6.67167 12.7772 6.53723 12.8444 6.65151C12.8646 6.69184 12.8713 6.78595 12.7907 6.81284ZM12.8713 6.09358C12.8243 6.06669 12.8041 6.1003 12.7974 6.14063C12.7705 6.23474 12.6092 6.32213 12.5487 6.26163C12.4546 6.17424 12.3403 6.22802 12.2462 6.17424C12.226 6.1608 12.1924 6.16752 12.1655 6.15407C12.0042 6.08685 12.0042 6.08686 12.0042 6.26163C12.0042 6.31541 12.0109 6.36918 12.0176 6.42296C12.0243 6.48346 12.0378 6.54396 12.0983 6.57085C12.1588 6.59773 12.1722 6.53051 12.2058 6.4969C12.3604 6.36246 12.3604 6.36246 12.3873 6.23474C12.5016 6.51035 12.2932 6.70529 12.2596 6.94728C12.1857 6.8935 12.2126 6.83973 12.2126 6.79267C12.2126 6.75906 12.2058 6.71201 12.1588 6.71201C12.1117 6.71201 12.0781 6.74562 12.0781 6.78595C12.0781 6.83973 12.0848 6.8935 12.0916 6.94728C12.1252 7.11533 11.9773 7.30355 11.7958 7.35061C11.4126 7.44472 11.0228 7.4111 10.6329 7.44471C10.5186 7.45144 10.411 7.50522 10.2968 7.52538C10.2564 7.5321 10.1825 7.56572 10.1623 7.50522C10.1354 7.438 10.2094 7.41111 10.2564 7.39094C10.411 7.33717 10.5724 7.29011 10.7471 7.33716C10.9085 7.38422 11.0026 7.33716 11.0631 7.18255C11.09 7.10861 11.1505 7.08844 11.211 7.08172C11.2647 7.075 11.2513 7.1355 11.2513 7.16239C11.258 7.21616 11.2715 7.26994 11.332 7.29683C11.3656 7.31027 11.3857 7.28339 11.3992 7.2565C11.4328 7.196 11.4462 7.11533 11.4059 7.08172C11.2984 7.00778 11.3857 6.98761 11.4328 6.94728C11.4597 6.92712 11.4933 6.90023 11.5269 6.88679C11.5672 6.8599 11.5941 6.833 11.5672 6.79267C11.5336 6.73889 11.4933 6.77923 11.4597 6.79939C11.3521 6.86662 11.2513 6.93384 11.1437 7.00106C11.09 7.03467 11.0295 7.05484 10.9555 7.00106C11.016 6.94728 11.0698 6.88678 11.1572 6.8935C11.2647 6.8935 11.2916 6.77923 11.379 6.74562C11.5135 6.69856 11.4328 6.59773 11.4328 6.51707C11.4328 6.47674 11.4261 6.4364 11.4328 6.39607C11.4462 6.33557 11.4328 6.26835 11.3589 6.25491C11.2849 6.24146 11.2244 6.28852 11.2177 6.35574C11.211 6.45657 11.1437 6.49018 11.0698 6.53723C10.9959 6.58429 10.8883 6.59101 10.8749 6.69856C10.8681 6.71873 10.8211 6.74562 10.7808 6.7389C10.7875 6.63134 10.7135 6.57757 10.5522 6.57085C10.6329 6.48346 10.7068 6.39607 10.8278 6.36246C11.016 6.30868 11.1639 6.18096 11.3252 6.11374C11.5202 6.03308 11.7622 5.93225 12.0042 6.01291C12.1453 6.05997 12.2865 6.05996 12.4344 6.03308C12.6092 5.99947 12.8041 6.08685 12.9722 5.96586C12.9587 6.0398 13.0595 6.18769 12.8713 6.09358ZM12.9722 7.31028C13.1738 7.23633 13.194 7.22961 13.315 7.31028C13.2007 7.26322 13.0932 7.41783 12.9722 7.31028ZM13.4225 6.56412C13.3553 6.56412 13.2545 6.53723 13.2747 6.49018C13.2881 6.44312 13.3015 6.33557 13.4024 6.33557C13.4898 6.33557 13.4898 6.38935 13.4763 6.45657C13.4629 6.49018 13.5301 6.56412 13.4225 6.56412ZM13.5771 6.05324C13.483 6.08013 13.3889 6.05325 13.362 5.99947C13.2747 5.83814 13.0327 5.83141 12.9856 5.64319C12.9789 5.62303 12.9453 5.60959 12.9117 5.60959C12.831 5.62303 12.8041 5.57598 12.7974 5.51548C12.8041 5.50876 12.8108 5.50203 12.8175 5.50203C12.8848 5.50203 12.9722 5.5222 12.9789 5.44153C12.9856 5.37431 12.952 5.29365 12.8512 5.27348C12.8444 5.27348 12.831 5.26676 12.8243 5.26676C12.6697 5.19954 12.6697 5.19954 12.6764 5.35414C12.6831 5.48186 12.6226 5.5222 12.4546 5.4617C12.3806 5.43481 12.3403 5.44826 12.2798 5.46842C12.1991 5.49531 12.105 5.50203 12.0042 5.5222C12.0848 5.40792 12.1521 5.30709 12.226 5.20626C12.2462 5.17937 12.2731 5.13904 12.3134 5.15248C12.4814 5.20626 12.6495 5.13904 12.8175 5.17937C12.8377 5.1861 12.8579 5.19281 12.8713 5.18609C13.0125 5.12559 13.1133 5.21298 13.2545 5.30709C13.0864 5.29365 13.0327 5.3407 13.0528 5.46842C13.073 5.63648 13.1873 5.60958 13.315 5.57597C13.2948 5.66336 13.3015 5.73058 13.315 5.7978C13.3217 5.84486 13.3419 5.89191 13.3889 5.90536C13.483 5.91208 13.5166 5.9793 13.5771 6.05324ZM12.1252 4.80966C12.2126 4.77605 12.2932 4.71555 12.3941 4.72227C12.4142 4.72227 12.4277 4.7626 12.4478 4.78949C12.3873 4.82982 12.3403 4.89032 12.2798 4.91049C12.2327 4.93065 12.1722 4.89704 12.1252 4.85671C12.1117 4.84327 12.0983 4.8231 12.1252 4.80966ZM13.1335 4.82982C13.241 4.76932 13.3284 4.77604 13.4225 4.87688C13.2545 4.92393 13.0797 4.91049 12.9318 4.98443C12.8646 5.01804 12.8243 4.95082 12.7772 4.91049C12.7571 4.89032 12.7436 4.84999 12.7033 4.87016C12.6764 4.8836 12.6697 4.91049 12.6697 4.93738C12.6697 4.97099 12.6831 5.01132 12.6226 5.01804C12.5823 5.01804 12.5487 4.99115 12.5285 4.96427C12.4949 4.91721 12.5621 4.91049 12.5823 4.89032C12.6428 4.81638 12.7033 4.78949 12.8041 4.85671C12.9049 4.91049 13.0327 4.8836 13.1335 4.82982ZM12.3201 3.28374C12.4277 3.29719 12.3336 3.41146 12.3941 3.43835C12.4008 3.4854 12.3941 3.51901 12.347 3.51229C12.2865 3.49885 12.1991 3.49885 12.1924 3.41818C12.1789 3.3308 12.2395 3.27702 12.3201 3.28374ZM12.2327 4.50716C12.4209 4.43322 12.6495 4.43994 12.8041 4.26517C12.8982 4.41305 12.8982 4.41305 12.8579 4.60799C12.7974 4.61471 12.8041 4.55422 12.7772 4.53405C12.7234 4.50044 12.6562 4.46683 12.6428 4.56094C12.6293 4.68193 12.5016 4.66177 12.4814 4.6416C12.4075 4.57438 12.3134 4.60127 12.2327 4.57438C12.2058 4.56766 12.1722 4.56766 12.1722 4.53405C12.1722 4.49372 12.2126 4.51389 12.2327 4.50716ZM11.9907 2.2956C12.0176 2.37626 12.0781 2.36954 12.1588 2.36954C12.058 2.40987 12.058 2.40987 11.8765 2.2956C11.9235 2.28887 11.9638 2.20821 11.9907 2.2956ZM11.5202 1.8721C11.5404 1.90571 11.5807 1.98638 11.6613 1.95277C11.7286 1.92588 11.7084 1.86538 11.7017 1.8116C11.7017 1.79144 11.695 1.76455 11.7218 1.7511C11.7689 1.77799 11.742 1.84522 11.8092 1.86538C11.9168 1.89899 11.8496 1.9931 11.8428 2.04688C11.8294 2.10065 11.7622 2.06032 11.7286 2.03343C11.6681 1.98638 11.6076 2.04688 11.5471 2.03343C11.4059 2.01327 11.3387 1.9326 11.2647 1.83849C11.3656 1.79816 11.453 1.73766 11.5202 1.8721ZM11.1236 2.00655C11.1706 2.06704 11.2984 1.94604 11.3118 2.09393C11.3185 2.18132 11.3185 2.35609 11.5202 2.25526C11.5404 2.24854 11.5605 2.25526 11.5605 2.27543C11.5605 2.39643 11.6546 2.49054 11.6613 2.61153C11.6613 2.6317 11.6681 2.65187 11.6412 2.65187C11.6277 2.65187 11.6076 2.65186 11.6009 2.64514C11.574 2.5712 11.4462 2.54431 11.5135 2.43003C11.5538 2.36954 11.4799 2.36954 11.4328 2.36954C11.2311 2.37626 11.2379 2.37626 11.1841 2.18804C11.1774 2.16115 11.1639 2.12754 11.1505 2.10065C11.1303 2.06704 11.0496 2.08049 11.0698 2.01327C11.0833 1.9931 11.1169 1.9931 11.1236 2.00655ZM11.09 2.5712C11.09 2.54431 11.09 2.51743 11.1303 2.51743C11.1572 2.51743 11.1639 2.54431 11.1706 2.56448C11.1774 2.59137 11.1841 2.61826 11.1975 2.63842C11.2177 2.67876 11.258 2.74597 11.211 2.75942C11.1437 2.77958 11.1034 2.85353 11.0228 2.83336C10.9891 2.82664 10.9286 2.73925 10.9085 2.84008C10.895 2.92075 10.9085 3.0283 11.0228 3.03502C11.1101 3.04175 11.1505 3.05519 11.2042 3.12913C11.2513 3.19635 11.3387 3.12913 11.3857 3.08208C11.4664 3.00814 11.5 3.03502 11.5 3.12241C11.5 3.18291 11.5471 3.24341 11.5269 3.31063C11.4799 3.3308 11.4395 3.30391 11.4194 3.27702C11.2647 3.12913 11.0765 3.2098 10.9085 3.21652C10.8413 3.21652 10.8749 3.35096 10.9085 3.41818C10.7001 3.36441 10.5993 3.18963 10.6799 3.00814C10.7001 2.96108 10.7068 2.91403 10.7068 2.86697C10.7068 2.84681 10.7135 2.8132 10.7203 2.80648C10.9421 2.75942 10.8211 2.59137 10.8278 2.49054C10.8413 2.34937 10.8076 2.34937 10.9623 2.21493C10.9018 2.35609 10.9018 2.45693 10.9286 2.56448C10.9421 2.61153 10.9421 2.67203 11.016 2.67203C11.0765 2.67203 11.09 2.61825 11.09 2.5712ZM11.0093 1.65027C11.0564 1.76455 11.0295 1.86538 10.9488 1.95949C10.9085 1.9326 10.9555 1.85866 10.8816 1.85193C10.8749 1.85193 10.8749 1.85194 10.8681 1.85866C10.8681 1.85866 10.8681 1.86538 10.8614 1.86538C10.8681 1.73094 10.8816 1.7175 11.0093 1.65027ZM10.7337 1.69733C10.7404 1.77799 10.7471 1.86538 10.8614 1.8721C10.7942 1.96621 10.7471 2.06705 10.7337 2.18132C10.727 2.25526 10.6799 2.32248 10.653 2.3897C10.4581 2.18132 10.4917 1.83849 10.7337 1.69733ZM10.5656 1.45533C10.5724 1.52928 10.5925 1.58978 10.5052 1.60322C10.4648 1.60994 10.411 1.58978 10.411 1.57633C10.4178 1.50239 10.5052 1.50239 10.5656 1.45533ZM10.2161 2.22838C10.2228 2.27543 10.2564 2.26198 10.29 2.24182C10.3304 2.20821 10.3438 2.14771 10.4043 2.12082C10.4379 2.22165 10.4715 2.30904 10.5052 2.40315C10.5119 2.41659 10.5186 2.44348 10.5119 2.4502C10.3707 2.56448 10.3976 2.71909 10.4043 2.86697C10.4043 2.92075 10.3842 2.94092 10.3371 2.94764C10.2564 2.96108 10.2228 2.8468 10.1354 2.88041C10.1354 2.79975 10.1018 2.71909 10.1758 2.65187C10.2295 2.60481 10.2766 2.54431 10.3304 2.49054C10.3842 2.44348 10.3573 2.37626 10.3505 2.3292C10.3438 2.28887 10.2766 2.30232 10.2363 2.30904C10.1825 2.31576 10.1422 2.31576 10.1422 2.24854C10.1422 2.22165 10.122 2.20149 10.0817 2.20149C10.048 2.20821 10.0144 2.22838 10.001 2.18132C9.98755 2.14099 10.0346 2.13426 10.0548 2.1141C10.1287 2.01999 10.2228 1.93932 10.3371 1.85193C10.3371 1.91916 10.3035 1.95277 10.2699 1.97293C10.1623 2.0536 10.2094 2.14771 10.2161 2.22838ZM9.87327 0.836902C9.9136 0.803292 9.96066 0.803288 9.99427 0.843621C10.0346 0.890676 10.0749 0.944454 10.048 1.0184C9.99427 1.01167 10.0144 0.897401 9.93377 0.9579C9.90016 0.984789 9.85983 1.03184 9.83966 0.984784C9.83294 0.951174 9.83294 0.877235 9.87327 0.836902ZM9.638 1.24023C9.74555 1.45533 9.90688 1.52928 10.1422 1.44861C10.2564 1.40828 10.2632 1.44861 10.2564 1.536C10.2363 1.71749 10.1892 1.77127 10.0548 1.77799C10.0548 1.76455 10.0548 1.75111 10.0615 1.74438C10.0749 1.69733 10.1556 1.64355 10.0884 1.60994C10.0413 1.58305 9.96066 1.60322 9.90016 1.65027C9.85311 1.68389 9.84638 1.75783 9.76572 1.77127C9.78588 1.65028 9.76572 1.54944 9.61783 1.49566C9.638 1.7511 9.638 1.7511 9.48339 2.02671C9.42289 1.90571 9.40945 1.78471 9.38928 1.66372C9.38928 1.64355 9.38928 1.60994 9.396 1.60322C9.517 1.50911 9.58422 1.38811 9.638 1.24023ZM9.396 1.03856C9.46995 1.03856 9.50356 1.05201 9.49684 1.09234C9.48339 1.14612 9.43634 1.16628 9.38256 1.16628C9.36239 1.16628 9.32878 1.16628 9.33551 1.13267C9.34895 1.09234 9.36239 1.03856 9.396 1.03856ZM9.2414 1.9931C9.2414 1.95949 9.30862 1.94605 9.32878 2.01327C9.34895 2.08049 9.37584 2.14771 9.38256 2.22165C9.38928 2.26871 9.42962 2.35609 9.3019 2.32248C9.25484 2.30904 9.22795 2.36954 9.22123 2.41659C9.22123 2.47709 9.1809 2.55103 9.24812 2.59136C9.3019 2.62497 9.32878 2.55103 9.38928 2.53087C9.41617 2.61825 9.396 2.67875 9.3019 2.70564C9.25484 2.71909 9.20779 2.73253 9.17418 2.75942C9.10696 2.79975 8.9994 2.84008 8.95907 2.81319C8.89185 2.76614 8.9389 2.65859 8.91202 2.57792C8.91202 2.5712 8.91874 2.54431 8.92546 2.54431C9.12712 2.5107 9.07334 2.33593 9.1204 2.22165C9.14056 2.12754 9.23467 2.08721 9.2414 1.9931ZM9.16073 1.15956C9.06662 1.24695 8.96579 1.30745 8.82463 1.30072C8.89185 1.13267 9.03301 1.16628 9.16073 1.15956ZM8.90529 3.4854C8.93218 3.35096 8.9994 3.23669 9.10023 3.14258C9.18762 3.06191 9.29517 2.98125 9.3019 2.84008C9.3019 2.82664 9.33551 2.8132 9.36239 2.81992C9.38256 2.85353 9.37584 2.88714 9.36239 2.92075C9.3019 3.04175 9.27501 3.16274 9.27501 3.29719C9.27501 3.34424 9.26828 3.45851 9.16745 3.33752C9.12712 3.28374 9.10023 3.31735 9.08679 3.37113C9.08679 3.37785 9.08679 3.37785 9.08679 3.38457C9.13384 3.57951 9.10695 3.7879 9.19434 3.97612C9.22123 4.04334 9.15401 4.41977 9.10023 4.46683C9.06662 4.49372 9.04646 4.47355 9.02629 4.46011C8.96579 4.41978 8.92546 4.37272 8.89185 4.31222C8.8179 4.1845 8.74396 4.05678 8.6633 3.92906C8.6028 3.82823 8.63641 3.55935 8.7238 3.49213C8.75068 3.55263 8.70363 3.6669 8.79102 3.67362C8.89185 3.6669 8.89185 3.55262 8.90529 3.4854ZM8.77085 2.33593C8.79774 2.55776 8.83807 2.78631 8.80446 3.00814C8.79102 3.0888 8.76413 3.16274 8.71035 3.22997C8.58935 3.36441 8.47508 3.49885 8.53558 3.71396C8.40786 3.64001 8.42802 3.55263 8.44147 3.47196C8.49525 3.19636 8.50197 2.91403 8.4818 2.63842C8.47508 2.57792 8.42802 2.52414 8.43475 2.45692C8.43475 2.39643 8.45491 2.35609 8.49524 2.31576C8.54902 2.32248 8.52213 2.40987 8.58263 2.39643C8.62969 2.38971 8.62969 2.33593 8.64313 2.2956C8.67002 2.22165 8.75068 2.15443 8.64313 2.07376C8.79774 2.13426 8.75741 2.25526 8.77085 2.33593ZM8.62297 1.56288C8.51541 1.67044 8.51541 1.75111 8.62969 1.84522C8.65657 1.86538 8.67002 1.88555 8.65658 1.91244C8.64313 1.94605 8.61624 1.93933 8.58263 1.93933C8.46163 1.93933 8.46163 1.93932 8.38097 2.02671C8.36753 1.95949 8.3608 1.90571 8.35408 1.85193C8.34064 1.77127 8.35408 1.71077 8.44147 1.66372C8.54902 1.60994 8.62296 1.50911 8.71707 1.415C8.73052 1.50238 8.6633 1.52927 8.62297 1.56288ZM8.27342 0.776401C8.25325 0.749513 8.4213 0.601628 8.46163 0.615072C8.55574 0.641961 8.53558 0.715904 8.52213 0.783124C8.49524 0.951177 8.40786 1.01168 8.21292 0.998231C8.23981 0.910844 8.3608 0.87051 8.27342 0.776401ZM8.29358 1.48222C8.42802 1.52256 8.43475 1.42845 8.47508 1.36122C8.50869 1.30745 8.53558 1.24022 8.61624 1.22678C8.65657 1.22006 8.68346 1.22006 8.67674 1.26712C8.65657 1.3545 8.57591 1.40155 8.52213 1.46878C8.46163 1.54272 8.3608 1.57633 8.32719 1.67044C8.32047 1.69733 8.28014 1.71749 8.25997 1.68388C8.23308 1.65027 8.15914 1.66372 8.16586 1.60322C8.17931 1.536 8.23308 1.46206 8.29358 1.48222ZM8.14569 2.91403C8.10536 2.83336 7.98437 2.84009 8.00453 2.77959C8.01798 2.73925 8.0852 2.67875 8.15242 2.62498C8.16586 2.72581 8.15914 2.80647 8.14569 2.91403ZM7.94403 2.6922C7.89026 2.56448 7.80959 2.47037 7.93731 2.38298C7.9642 2.36281 7.99781 2.33593 8.03142 2.36954C8.06503 2.40315 8.04486 2.43003 8.01798 2.4502C7.94403 2.49726 7.97092 2.58464 7.94403 2.6922ZM8.06503 1.65699C8.01125 1.8116 8.10536 1.9326 8.13897 2.07376C8.0852 2.04015 8.03814 1.99982 7.98437 1.96621C7.95748 1.94605 7.93059 1.92588 7.89698 1.93933C7.84992 1.95949 7.87009 1.99982 7.87009 2.03343C7.87681 2.1746 7.87681 2.17459 7.70876 2.23509C7.71548 2.0536 7.80287 1.91243 7.9037 1.77799C7.93731 1.73094 7.99781 1.68388 7.92387 1.61666C7.89698 1.5965 7.91042 1.56289 7.93059 1.54272C7.9642 1.51583 7.97764 1.55616 7.99781 1.56961C8.03814 1.58977 8.07175 1.62338 8.06503 1.65699ZM7.67515 1.74438C7.64826 1.67716 7.75581 1.44861 7.83648 1.415C7.8432 1.536 7.75581 1.63011 7.74909 1.74438C7.74909 1.76455 7.72893 1.77799 7.71548 1.77799C7.69532 1.77799 7.68187 1.75783 7.67515 1.74438ZM7.62809 0.991508C7.65498 0.971341 7.68187 0.984786 7.69532 1.0184C7.72893 1.173 7.82976 1.16628 7.95076 1.11251C7.9642 1.10578 7.97764 1.11251 8.03142 1.11251C7.9037 1.19317 7.78943 1.22006 7.67515 1.24023C7.6281 1.24695 7.58776 1.21334 7.58776 1.17301C7.59448 1.10579 7.57432 1.03856 7.62809 0.991508ZM7.31216 1.21334C7.27182 1.36122 7.46004 1.415 7.45332 1.54944C7.45332 1.56961 7.48021 1.58305 7.5071 1.56288C7.64154 1.48222 7.60793 1.56289 7.58776 1.63011C7.5676 1.69733 7.56087 1.77127 7.51382 1.83849C7.24494 1.45533 7.19116 1.28056 7.31216 1.21334ZM6.51223 6.06669C6.43156 6.05997 6.33073 6.05325 6.30384 5.99947C6.23662 5.87847 6.12907 5.77764 6.09546 5.64319C6.08874 5.62975 6.1089 5.59614 6.10218 5.59614C5.94085 5.48186 6.09546 5.42809 6.15596 5.36759C6.25007 5.27348 6.29712 5.06509 6.24334 4.9441C6.23662 4.93065 6.21646 4.91049 6.22318 4.89704C6.28368 4.7626 6.23662 4.61472 6.2904 4.46011C6.38451 4.58783 6.41812 4.50716 6.43828 4.43322C6.46517 4.35256 6.47862 4.27189 6.49878 4.1845C6.51223 4.13072 6.50551 4.09712 6.44501 4.07023C6.38451 4.04334 6.33073 3.97612 6.3509 3.9089C6.37779 3.79462 6.33745 3.67362 6.37106 3.56607C6.37779 3.53918 6.39795 3.50557 6.36434 3.47868C6.33073 3.4518 6.29712 3.47868 6.27695 3.49885C6.20973 3.57279 6.10218 3.52574 6.02824 3.56607C5.98118 3.59296 5.90724 3.59296 5.90052 3.66018C5.88707 3.84168 5.81313 4.00973 5.79296 4.19122C5.78624 4.245 5.77952 4.31895 5.85346 4.33911C5.92741 4.35928 5.95429 4.28533 5.9879 4.23828C6.03496 4.17106 6.07529 4.10384 6.12235 4.03661C6.13579 4.01645 6.13579 3.98956 6.16268 3.98956C6.19629 3.98956 6.21646 4.02317 6.21646 4.04334C6.20973 4.09711 6.32401 4.19122 6.15596 4.20467C6.11562 4.20467 6.11562 4.27189 6.1089 4.31222C6.05513 4.57438 5.95429 4.8231 5.86691 5.07854C5.86018 5.09871 5.84002 5.11887 5.81985 5.15248C5.67869 4.93738 5.61147 4.71555 5.5913 4.48027C5.58458 4.35928 5.5913 4.25173 5.66524 4.15089C5.70558 4.09712 5.71902 4.02989 5.74591 3.96939C5.75935 3.94251 5.76608 3.9089 5.73247 3.88201C5.70558 3.86184 5.67869 3.88201 5.65852 3.90217C5.63836 3.91562 5.62491 3.94923 5.5913 3.93578C5.55769 3.91562 5.56441 3.88201 5.56441 3.8484C5.58458 3.55262 5.58458 3.26358 5.58458 2.9678C5.58458 2.80647 5.65852 2.75942 5.81985 2.7863C5.93413 2.80647 5.9879 2.73925 6.03496 2.65187C6.08874 2.54431 6.08201 2.41659 6.20301 2.32248C6.2299 2.44348 6.2299 2.54431 6.12907 2.62498C6.09546 2.65186 6.05513 2.68548 6.06857 2.72581C6.10218 2.85353 6.02152 2.92075 5.92741 2.98797C5.85346 3.04175 5.82657 3.11569 5.86691 3.20308C5.90052 3.27702 5.97446 3.29046 6.0484 3.30391C6.12907 3.31735 6.20973 3.32407 6.28368 3.33752C6.30384 3.34424 6.33073 3.35096 6.3509 3.36441C6.46517 3.44507 6.52567 3.57279 6.65339 3.65346C6.79456 3.74084 6.7475 3.89545 6.72734 4.03661C6.70717 4.1845 6.72733 4.33239 6.72061 4.47355C6.70717 4.74244 6.61306 4.99115 6.59289 5.26003C6.55928 5.60286 6.60634 5.90536 6.84161 6.17424C6.8685 6.20785 6.89539 6.24146 6.90883 6.27507C6.93572 6.35574 6.92228 6.42968 6.81472 6.42296C6.70717 6.40951 6.60634 6.36246 6.49206 6.40279C6.53239 6.34229 6.59961 6.34229 6.61978 6.27507C6.65339 6.14063 6.6265 6.07341 6.51223 6.06669ZM6.74078 3.55935C6.72733 3.5459 6.71389 3.53246 6.70045 3.51902C6.60634 3.45852 6.49878 3.42491 6.60634 3.27702C6.70045 3.1493 6.59961 3.02158 6.52567 2.91403C6.43156 2.77958 6.46517 2.61153 6.39795 2.47037C6.39795 2.46365 6.4114 2.4502 6.41812 2.44348C6.45173 2.44348 6.45845 2.46365 6.46517 2.49054C6.52567 2.8132 6.71389 3.0888 6.82145 3.39802C6.83489 3.43835 6.85506 3.47196 6.85506 3.51229C6.86178 3.5459 6.84161 3.58623 6.80128 3.59968C6.76094 3.61312 6.75422 3.57279 6.74078 3.55935ZM6.83489 1.9931C6.80128 1.99982 6.66684 1.79816 6.687 1.77127C6.71389 1.73094 6.76095 1.75111 6.82817 1.74438C6.92228 1.77127 6.97605 1.8721 7.04327 1.94604C7.07016 1.97293 7.07688 2.01327 7.12394 2.02671C7.15755 2.03343 7.19788 2.06704 7.19116 2.10065C7.18444 2.14099 7.13066 2.14099 7.09705 2.14771C7.05672 2.16115 7.00966 2.13426 6.9895 2.18804C6.96933 2.23509 6.94244 2.21493 6.91555 2.19476C6.88867 2.1746 6.87522 2.15443 6.90211 2.12082C6.96933 2.04015 6.9895 1.97293 6.83489 1.9931ZM6.77439 2.84008C6.70717 2.77286 6.72734 2.6922 6.77439 2.6317C6.808 2.58465 6.80128 2.49053 6.929 2.53087C7.00294 2.55103 7.01638 2.43676 7.08361 2.38298C7.15755 2.53759 7.24494 2.47037 7.37266 2.36954C7.37938 2.72581 7.17099 2.96108 7.05672 3.2703C6.96261 3.07536 6.88194 2.94764 6.77439 2.84008ZM7.31216 2.04688C7.2651 2.06704 7.21805 1.99982 7.22477 1.97293C7.25166 1.91243 7.27855 1.82505 7.33905 1.81833C7.41299 1.81161 7.37938 1.91244 7.40627 1.93933C7.43988 2.04688 7.34577 2.02671 7.31216 2.04688ZM7.23821 1.73094C7.2046 1.7511 7.15083 1.79144 7.13066 1.74438C7.10377 1.67716 7.2046 1.65699 7.22477 1.58977C7.29199 1.65027 7.31216 1.69733 7.23821 1.73094ZM7.19788 0.924288C7.2046 0.951176 7.2046 0.991508 7.15755 0.991508C7.07688 0.99823 7.03655 0.964618 7.02983 0.863786C7.0836 0.931007 7.17099 0.810012 7.19788 0.924288ZM6.94244 0.480627C7.03655 0.480627 7.03655 0.554571 7.03655 0.58146C7.04327 0.668847 6.929 0.628514 6.89539 0.675569C6.82817 0.682291 6.82817 0.628513 6.83489 0.601625C6.84161 0.547848 6.84161 0.480627 6.94244 0.480627ZM6.82145 1.04529C6.8685 1.03856 6.88194 1.0789 6.89539 1.11251C6.90883 1.16628 6.92228 1.22678 6.93572 1.28056C6.94244 1.31417 6.94916 1.36122 6.99622 1.36122C7.03655 1.36795 7.04327 1.32761 7.05672 1.30072C7.06344 1.28056 7.07688 1.26039 7.10377 1.26039C7.13738 1.26039 7.13738 1.28728 7.13738 1.30745C7.13738 1.36795 7.24494 1.42845 7.15083 1.48222C7.07688 1.52256 6.9895 1.58305 6.90211 1.48894C6.88867 1.4755 6.84833 1.4755 6.81472 1.46206C6.87522 1.38139 6.89539 1.31417 6.75422 1.294C6.72733 1.28728 6.687 1.26039 6.71389 1.22678C6.83489 1.03856 6.68028 1.1125 6.59289 1.10578C6.58617 1.10578 6.57945 1.09906 6.566 1.09234C6.64667 1.03856 6.74078 1.05873 6.82145 1.04529ZM6.32401 2.31576C6.2299 2.18132 6.2299 2.18132 6.02824 2.2956C6.09546 2.22165 6.10218 2.1141 6.16268 2.00655C6.2299 2.19476 6.30384 2.09393 6.35762 2.02671C6.4114 1.96621 6.48534 1.93932 6.55928 1.8721C6.54584 2.07376 6.44501 2.20149 6.32401 2.31576ZM6.53239 1.44189C6.53239 1.51583 6.46517 1.51583 6.37106 1.49566C6.35762 1.48894 6.28368 1.52928 6.27695 1.45533C6.27695 1.415 6.33073 1.3545 6.38451 1.38139C6.43828 1.40828 6.52567 1.36122 6.53239 1.44189ZM6.2904 0.944453C6.33745 0.931009 6.33745 0.971344 6.33745 1.00495C6.3509 1.08562 6.30384 1.10578 6.2299 1.10578C6.17612 1.10578 6.1089 1.09234 6.12235 1.03856C6.13579 0.971341 6.22318 0.96462 6.2904 0.944453ZM5.95429 1.34106C5.96774 1.28056 5.97446 1.22006 5.9879 1.12595C6.02152 1.21334 6.04168 1.26039 6.06857 1.30745C6.08201 1.33434 6.12907 1.36122 6.08201 1.39483C6.05513 1.415 6.00807 1.44861 5.9879 1.44189C5.92741 1.42844 5.94757 1.38139 5.95429 1.34106ZM5.90724 1.78471C5.94085 1.79144 5.97446 1.80488 6.01479 1.8116C6.04168 1.81833 6.06857 1.81833 6.06857 1.85866C6.06185 1.89899 6.03496 1.88555 6.00807 1.89227C5.88707 1.9326 5.84674 2.04688 5.7728 2.13427C5.74591 2.16788 5.7728 2.25526 5.69213 2.23509C5.62491 2.22165 5.67197 2.15443 5.66524 2.10738C5.66524 2.08049 5.66524 2.0536 5.67197 2.01999C5.80641 2.06032 5.82658 2.03343 5.90724 1.78471ZM5.80641 1.26712C5.88707 1.4755 5.73919 1.50239 5.57114 1.51583C5.60475 1.39483 5.67197 1.30745 5.80641 1.26712ZM5.59802 1.77127C5.60475 1.89227 5.5308 1.95277 5.39636 1.97293C5.42997 1.8721 5.52408 1.83177 5.59802 1.77127ZM5.34931 2.27543C5.41653 2.28887 5.45014 2.32248 5.45686 2.37626C5.46358 2.40987 5.42997 2.42332 5.39636 2.41659C5.33586 2.40315 5.3157 2.35609 5.30897 2.30904C5.30897 2.28215 5.32914 2.26871 5.34931 2.27543ZM5.26192 3.49885C5.26192 3.29047 5.28209 3.07536 5.29553 2.86025C5.39636 2.88714 5.43669 2.93419 5.43669 3.0283C5.42325 3.31063 5.41653 3.58623 5.41653 3.86856C5.41653 3.94251 5.42997 4.01645 5.43669 4.09039C5.42997 4.09039 5.42325 4.09712 5.40981 4.09712C5.36275 4.00973 5.3157 3.91562 5.26192 3.82823C5.1947 3.71396 5.26192 3.6064 5.26192 3.49885ZM5.2552 4.08367C5.26864 4.11056 5.29553 4.14417 5.26192 4.17106C5.22831 4.20467 5.20142 4.16434 5.17453 4.15089C5.12076 4.13073 5.04009 4.07023 5.0132 4.124C4.96615 4.21811 4.82498 4.25844 4.83843 4.37944C4.84515 4.43322 4.8317 4.5475 4.97287 4.46011C4.99976 4.43994 5.09387 4.39961 5.14764 4.4265C5.21486 4.46011 5.28208 4.45339 5.36275 4.46011C5.24847 4.55422 5.21487 4.6416 5.34931 4.73571C5.36947 4.74916 5.36947 4.80293 5.36947 4.83655C5.37619 4.87688 5.38964 4.93738 5.42325 4.93738C5.53752 4.93066 5.55097 5.01132 5.58458 5.07854C5.77952 5.45498 6.02824 5.79781 6.20301 6.18769C6.21646 6.21458 6.24334 6.24146 6.21646 6.26163C6.18957 6.28852 6.14251 6.27507 6.11562 6.25491C5.99463 6.1608 5.87363 6.06669 5.76608 5.96586C5.57114 5.78436 5.40308 5.5827 5.23503 5.37431C5.12748 5.24659 5.00648 5.12559 4.8922 4.99787C4.76448 4.86343 4.76448 4.67522 4.65693 4.52733C4.75776 4.39961 4.56282 4.23828 4.71071 4.11056C4.73087 4.09711 4.74432 4.04334 4.76448 4.07023C4.8922 4.20467 4.91909 4.04334 4.97959 4.00301C5.03337 3.9694 5.06026 3.90889 5.12076 3.84167C5.17453 3.92234 5.22159 4.003 5.2552 4.08367ZM4.58299 5.73058C4.50232 5.71042 4.56954 5.67681 4.58971 5.64992C4.68382 5.51548 4.81826 5.47515 4.97959 5.49531C5.18798 5.52892 5.35603 5.61631 5.45686 5.81797C5.36947 5.7978 5.24848 5.87847 5.23503 5.71714C5.23503 5.68353 5.1947 5.67681 5.16781 5.68353C5.01992 5.69697 4.85859 5.68353 4.79137 5.85158C4.77121 5.89864 4.71743 5.9188 4.65693 5.92553C4.68382 5.83814 4.71743 5.75747 4.58299 5.73058ZM4.27377 6.07341C4.27377 6.12046 4.34771 6.17424 4.24016 6.18769C4.15277 6.20113 4.099 6.16752 4.07211 6.08685C4.06539 6.07341 4.07211 6.05324 4.07211 6.03308C4.11244 5.90536 4.06539 5.84486 3.92422 5.83142C3.83011 5.81797 3.85028 5.73058 3.83684 5.67008C3.83011 5.60286 3.89733 5.61631 3.93767 5.60286C3.95783 5.59614 3.99144 5.58942 4.00489 5.59614C4.13261 5.65664 4.24688 5.63647 4.34772 5.50875C4.36788 5.6432 4.36788 5.73058 4.28049 5.81125C4.20655 5.89191 4.27377 5.99274 4.27377 6.07341ZM4.14605 5.3407C4.11244 5.3407 4.09228 5.33398 4.06539 5.30037C4.00489 5.21971 3.9175 5.23315 3.87045 5.31381C3.82339 5.39448 3.64862 5.42137 3.56795 5.36759C3.50073 5.32054 3.54779 5.28692 3.5814 5.26003C3.62845 5.2197 3.69567 5.17937 3.68895 5.11215C3.67551 4.97771 3.78306 4.92393 3.86372 4.83655C3.95111 4.74916 4.01161 4.74916 4.10572 4.81638C4.16622 4.86343 4.24688 4.89704 4.3141 4.92393C4.42838 4.97099 4.52921 5.01804 4.51577 5.15921C4.50905 5.21298 4.56282 5.26676 4.6166 5.23315C4.74432 5.15248 4.79809 5.26004 4.87204 5.31381C4.62332 5.26676 4.38805 5.32054 4.14605 5.3407ZM5.08042 3.7274C5.0737 3.78118 5.0132 3.78117 4.97287 3.79462C4.94598 3.80134 4.90565 3.76101 4.88548 3.80134C4.87204 3.83495 4.86532 3.89545 4.81826 3.88873C4.75776 3.87528 4.79809 3.81479 4.80482 3.77445C4.81826 3.67362 4.71743 3.64001 4.65693 3.53246C4.79137 3.56607 4.8922 3.59296 4.99304 3.61312C5.06026 3.62657 5.08714 3.67362 5.08042 3.7274ZM4.80482 3.02158C4.77793 2.96781 4.7981 2.94092 4.84515 2.94092C4.8922 2.93419 4.95942 2.86025 4.98631 2.94764C5.0132 3.06191 5.02665 3.18963 5.05353 3.31063C4.97287 3.2098 4.86532 3.13586 4.80482 3.02158ZM5.18125 2.85353C5.17453 2.95436 5.17453 3.05519 5.16781 3.15602C5.16109 3.15602 5.15437 3.15602 5.14764 3.16275C5.12075 3.06191 5.08715 2.96108 5.06698 2.86025C5.06026 2.81992 5.08714 2.76614 5.14092 2.76614C5.1947 2.76614 5.18798 2.8132 5.18125 2.85353ZM4.81154 2.09393C4.80482 2.08721 4.81154 2.06705 4.81826 2.06032C4.87204 2.00655 5.14092 2.06032 5.16781 2.13427C5.17453 2.15443 5.17453 2.16788 5.16109 2.18132C5.14092 2.20149 5.12076 2.20148 5.10059 2.18804C5.06026 2.16115 5.0132 2.14099 5.00648 2.20149C4.98631 2.37626 4.81826 2.3292 4.71743 2.38298C4.85859 2.31576 4.86532 2.21493 4.81154 2.09393ZM4.69054 3.02158C4.75776 3.06191 4.7981 3.1493 4.84515 3.21652C4.84515 3.25013 4.81826 3.26358 4.79809 3.27702C4.77121 3.29719 4.73087 3.31063 4.71743 3.35096C4.71071 3.37785 4.71743 3.42491 4.66365 3.40474C4.63676 3.3913 4.59643 3.37785 4.60988 3.33752C4.62332 3.28374 4.59643 3.2703 4.54938 3.2703C4.40821 3.27702 4.46871 3.21652 4.50905 3.16275C4.52249 3.1493 4.52921 3.13585 4.54266 3.12241C4.58971 3.08208 4.65021 2.99469 4.69054 3.02158ZM4.65693 3.6669C4.6771 3.68707 4.67038 3.72068 4.65021 3.74085C4.60315 3.7879 4.54265 3.82823 4.46199 3.86184C4.47543 3.76101 4.54938 3.7274 4.58971 3.68034C4.60315 3.66018 4.63004 3.63329 4.65693 3.6669ZM4.44855 2.31576C4.44182 2.27543 4.48216 2.24182 4.52249 2.22838C4.56282 2.21493 4.58299 2.24854 4.60315 2.26198C4.65693 2.30232 4.6166 2.3292 4.59643 2.36282C4.57627 2.39643 4.54266 2.43676 4.54266 2.47037C4.58299 2.6922 4.38805 2.70564 4.24016 2.77959C4.24016 2.70564 4.36788 2.61153 4.17294 2.57792C4.35444 2.53087 4.48216 2.49054 4.44855 2.31576ZM3.77634 2.84681C3.78306 2.82664 3.80995 2.81992 3.81667 2.83336C3.86372 2.9073 3.99817 2.88714 4.01833 3.00814C4.03178 3.09552 4.10572 3.16275 4.22672 3.16275C4.15277 3.18963 4.11244 3.35768 3.99817 3.20308C3.98472 3.18291 3.89061 3.22324 3.83011 3.22324C3.75617 3.22324 3.72928 3.21652 3.76962 3.14258C3.78978 3.10897 3.83011 3.07536 3.78306 3.03502C3.74273 3.00141 3.71584 3.05519 3.67551 3.04175C3.66878 2.96108 3.76289 2.92075 3.77634 2.84681ZM3.80323 3.92234C3.857 3.90217 3.91078 3.86857 3.87717 3.81479C3.78306 3.64001 3.88389 3.57279 4.0385 3.53246C4.11916 3.76101 4.11916 3.76101 4.30738 3.70723C4.25361 3.79462 4.17966 3.87528 4.15277 3.96267C4.11244 4.07695 4.17966 4.15089 4.30066 4.15761C4.26033 4.31222 4.26033 4.31894 4.33427 4.4265C4.40149 4.39961 4.38805 4.29878 4.46871 4.27861C4.54938 4.48699 4.63004 4.7021 4.71071 4.91049C4.70399 4.91721 4.69054 4.93066 4.68382 4.93738C4.53593 4.79621 4.34771 4.71555 4.16622 4.62816C4.12589 4.608 4.12589 4.57438 4.11244 4.54077C4.09228 4.50044 4.06539 4.46011 4.00489 4.487C3.95783 4.50716 3.93094 4.49372 3.91078 4.45339C3.87717 4.39289 3.94439 4.39961 3.97128 4.38617C4.04522 4.33911 4.099 4.27861 4.13933 4.21139C4.15277 4.1845 4.17294 4.15762 4.14605 4.124C4.11916 4.09039 4.08555 4.10384 4.05867 4.11728C3.99144 4.14417 3.90406 4.19795 3.93095 4.05006C3.93767 4.01645 3.91078 3.98284 3.87045 3.98956C3.80995 4.003 3.76961 4.04334 3.76289 4.09712C3.76289 4.13745 3.77634 4.1845 3.78306 4.23156C3.60829 4.11056 3.62173 4.00301 3.80323 3.92234ZM3.75617 4.51388C3.70239 4.60799 3.57467 4.61472 3.46712 4.6416C3.55451 4.56766 3.61501 4.48027 3.62845 4.35928C3.69567 4.40633 3.77634 4.48027 3.75617 4.51388ZM3.59484 3.07536C3.61501 3.08208 3.61501 3.10897 3.59484 3.11569C3.56123 3.13586 3.53434 3.1493 3.50073 3.16275C3.48057 3.16947 3.46712 3.1493 3.47384 3.12913C3.48729 3.07536 3.45368 3.03502 3.42679 2.98125C3.51418 2.98125 3.54106 3.05519 3.59484 3.07536ZM3.26546 4.29878C3.2789 4.35927 3.3394 4.4265 3.23857 4.46683C3.2184 4.47355 3.18479 4.48699 3.17807 4.46683C3.13774 4.37944 3.23185 4.35255 3.26546 4.29878ZM2.90919 5.32054C2.92935 5.32054 2.9428 5.32054 2.98985 5.31381C2.96296 5.34742 2.94952 5.36759 2.93608 5.38103C2.90919 5.41464 2.90919 5.48187 2.83524 5.46842C2.80836 5.4617 2.80163 5.44825 2.81508 5.42809C2.83524 5.38775 2.83524 5.32726 2.90919 5.32054ZM2.59325 6.52379C2.6403 6.4969 2.58653 6.39607 2.68064 6.42968C2.71425 6.44313 2.80163 6.42296 2.78147 6.47674C2.7613 6.5574 2.67391 6.53724 2.59325 6.52379ZM2.90919 6.75234C2.88902 6.7389 2.84197 6.73217 2.85541 6.70529C2.88902 6.64479 2.88902 6.56412 2.96969 6.53723C3.0033 6.53051 3.0033 6.5574 3.01002 6.59101C2.98313 6.64479 2.94952 6.69856 2.90919 6.75234ZM2.66719 6.12719C2.77475 6.08013 2.90247 6.07341 2.86213 5.93224C2.86213 5.92552 2.86213 5.9188 2.86213 5.9188C2.98985 5.86503 2.99657 5.74403 3.01002 5.62975C3.01002 5.73731 3.07052 5.83142 3.05707 5.9188C3.03019 6.10702 2.90919 6.17424 2.66719 6.12719ZM3.29235 4.67522C3.31251 4.67522 3.32596 4.69538 3.31923 4.71555C3.27218 4.79621 3.19151 4.79621 3.07724 4.80293C3.13774 4.70882 3.21168 4.68194 3.29235 4.67522ZM3.29907 5.39448C3.30579 5.44153 3.23857 5.42137 3.21168 5.41465C3.1579 5.4012 3.14446 5.34742 3.17807 5.31381C3.22512 5.26676 3.22513 5.21298 3.24529 5.14576C3.3394 5.2197 3.2789 5.31381 3.29907 5.39448ZM3.24529 6.1608C3.37301 6.13391 3.43351 6.01291 3.40662 5.88519C3.39318 5.82469 3.33268 5.84486 3.2789 5.79108C3.43351 5.79108 3.54779 5.76419 3.62845 5.65664C3.66878 5.60959 3.70912 5.64992 3.70239 5.69697C3.68895 5.80453 3.74945 5.90536 3.70239 6.01291C3.68895 6.0398 3.70239 6.07341 3.72256 6.1003C3.86372 6.27507 4.00489 6.45657 4.14605 6.63134C4.16622 6.65823 4.21327 6.65823 4.22672 6.69856C4.19311 6.73217 4.14605 6.71873 4.10572 6.72545C4.00489 6.7389 3.92422 6.7389 3.95111 6.59773C3.96456 6.52379 3.95111 6.42296 3.80995 6.47674C3.76289 6.4969 3.6419 6.32885 3.66206 6.27507C3.70239 6.14735 3.65534 6.0398 3.58812 5.93224C3.56795 5.89863 3.54106 5.89191 3.50745 5.89864C3.48057 5.90536 3.45368 5.92552 3.4604 5.95241C3.50745 6.1944 3.27218 6.18096 3.14446 6.30196C3.13102 6.21457 3.16463 6.18096 3.24529 6.1608ZM3.24529 6.55068C3.32596 6.5574 3.32596 6.63807 3.33268 6.68512C3.3394 6.75234 3.32596 6.78595 3.25874 6.78595C3.1579 6.78595 3.15118 6.70528 3.14446 6.65151C3.13774 6.59773 3.19824 6.54396 3.24529 6.55068ZM3.1579 7.88165C3.1579 7.81443 3.19152 7.76738 3.26546 7.76738C3.34612 7.76738 3.32596 7.8346 3.33268 7.87493C3.34612 7.92871 3.31251 7.94887 3.25201 7.93543C3.22513 7.91526 3.1579 7.95559 3.1579 7.88165ZM3.35284 8.24465C3.35957 8.26481 3.35957 8.30514 3.31923 8.30514C3.2789 8.30514 3.25874 8.26481 3.2789 8.23792C3.30579 8.19087 3.28562 8.11693 3.36629 8.10348C3.3999 8.15726 3.33268 8.19759 3.35284 8.24465ZM3.3999 7.45816C3.36629 7.47833 3.32596 7.45816 3.30579 7.39766C3.40662 7.40438 3.49401 7.40438 3.57467 7.35733C3.61501 7.33044 3.736 7.42455 3.736 7.4716C3.736 7.50521 3.70912 7.51866 3.68895 7.53211C3.66878 7.55227 3.64189 7.54555 3.62845 7.52538C3.56795 7.44472 3.50073 7.40439 3.3999 7.45816ZM3.76289 8.27826C3.68223 8.27154 3.69567 8.16398 3.59484 8.14381C3.54106 8.13037 3.59484 7.92199 3.66878 7.84804C3.736 7.78755 3.80323 7.73377 3.87717 7.84132C3.75617 7.8951 3.736 7.96904 3.80995 8.10348C3.83684 8.15054 3.857 8.19759 3.94439 8.2312C3.86372 8.25809 3.80995 8.28498 3.76289 8.27826ZM4.24016 7.96904C4.22672 7.97576 4.21327 7.98921 4.20655 7.98248C4.099 7.9556 3.99144 7.92199 3.88389 7.88838C3.86372 7.88165 3.87045 7.86149 3.88389 7.84132C4.02505 7.91526 4.15277 7.80099 4.29394 7.81443C4.34099 7.82115 4.38805 7.80099 4.48216 7.78754C4.3746 7.86821 4.30738 7.92198 4.24016 7.96904ZM5.55769 7.99593C5.61147 8.00937 5.57114 8.05643 5.53752 8.06315C5.45686 8.0766 5.38292 8.09676 5.32914 8.16398C5.3157 8.18414 5.2552 8.19759 5.23503 8.18415C5.14764 8.13037 5.10059 8.13037 5.03337 8.2312C4.99304 8.2917 4.87204 8.21103 4.78465 8.21103C4.75776 8.21103 4.72415 8.18415 4.69726 8.17743C4.62332 8.15726 4.63677 8.11693 4.68382 8.08332C4.78465 8.00265 4.96615 8.00265 5.09387 8.07659C5.12076 8.09004 5.14092 8.08332 5.16109 8.07659C5.2552 8.02954 5.34258 7.97576 5.38964 7.88838C5.40981 7.84804 5.42325 7.80099 5.36947 7.7741C5.3157 7.74721 5.28881 7.78082 5.27536 7.82116C5.24848 7.88838 5.20142 7.90182 5.14092 7.87493C5.06026 7.84804 4.97287 7.88837 4.87876 7.88165C4.9527 7.80771 5.03337 7.7741 5.10731 7.73377C5.17453 7.69343 5.22159 7.6531 5.1342 7.59933C5.09387 7.57244 5.09387 7.54555 5.12748 7.52538C5.21487 7.47161 5.28209 7.38422 5.40308 7.37077C5.42325 7.52538 5.16109 7.54555 5.24175 7.73377C5.33586 7.70015 5.41653 7.64638 5.47703 7.55899C5.49719 7.53211 5.51736 7.49849 5.55097 7.50522C5.59802 7.51866 5.57786 7.56571 5.57786 7.5926C5.57114 7.65982 5.53753 7.7136 5.51064 7.7741C5.46358 7.84132 5.36947 7.94887 5.55769 7.99593ZM5.49719 7.21617C5.45686 7.23633 5.44342 7.20272 5.42325 7.16911C5.38292 7.10861 5.34258 7.00778 5.23503 7.12206C5.20142 7.15567 5.14092 7.18927 5.06026 7.12878C4.93254 7.03467 4.75104 7.09517 4.71071 7.23633C4.69054 7.31027 4.65021 7.35061 4.57627 7.37077C4.50232 7.38422 4.44182 7.42455 4.40149 7.47833C4.36116 7.45144 4.36116 7.41783 4.36116 7.39094C4.35444 7.34389 4.34771 7.30355 4.29394 7.28339C4.23344 7.26322 4.22672 7.31028 4.21327 7.34389C4.21327 7.35061 4.19983 7.36405 4.19311 7.36405C3.92422 7.33044 4.09228 7.51194 4.06539 7.59933C4.06539 7.60605 4.05867 7.60605 4.05194 7.61949C4.02505 7.57244 3.99144 7.52538 3.9175 7.55227C3.87045 7.57244 3.80995 7.55227 3.82339 7.49849C3.83684 7.45144 3.85028 7.35733 3.92422 7.37077C4.00489 7.38422 4.01161 7.35733 4.02505 7.30355C4.03178 7.27666 4.05194 7.24305 4.05867 7.21617C4.12589 7.02795 4.04522 6.91367 3.81667 6.88679C3.88389 6.81284 3.97128 6.81956 4.04522 6.81284C4.09228 6.80612 4.10572 6.833 4.10572 6.86661C4.099 6.954 4.17966 7.00778 4.18638 7.08844C4.19311 7.14894 4.32083 7.1355 4.3746 7.06828C4.40821 7.02795 4.40821 6.97417 4.46871 6.95401C4.47543 6.95401 4.48888 6.954 4.48888 6.96072C4.51577 7.00106 4.52249 7.075 4.58299 7.05484C4.62332 7.04139 4.60988 6.98089 4.60988 6.93384C4.60988 6.87334 4.6166 6.81956 4.57627 6.75234C5.04009 6.90023 5.51736 6.96073 5.9879 7.08844C5.81985 7.12206 5.6518 7.1355 5.49719 7.21617ZM6.0484 7.21617C6.03496 7.26994 5.99463 7.2565 5.96102 7.2565C5.92068 7.2565 5.86019 7.24305 5.84002 7.27666C5.7728 7.39094 5.73919 7.29011 5.65852 7.2565C5.81313 7.22289 5.92741 7.196 6.0484 7.21617ZM5.99463 8.60092C5.98118 8.63453 5.94757 8.62781 5.92068 8.61436C5.84002 8.57403 5.75263 8.55386 5.65852 8.54042C5.7728 8.39926 5.87363 8.50681 5.97446 8.5337C6.00135 8.54042 6.00807 8.57403 5.99463 8.60092ZM5.98118 7.61949C5.88035 7.66655 5.7728 7.70688 5.71902 7.81443C5.7123 7.82115 5.69213 7.82787 5.68541 7.82787C5.63836 7.81443 5.67197 7.78754 5.67869 7.75393C5.64508 7.69343 5.70558 7.67999 5.73919 7.63966C5.81313 7.56571 5.93413 7.54555 5.98118 7.45144C5.9879 7.43799 6.01479 7.43127 6.02824 7.44471C6.04168 7.45816 6.05513 7.47833 6.0484 7.48505C6.03496 7.53211 6.0484 7.5926 5.98118 7.61949ZM6.13579 7.21617C6.4114 7.14895 6.58617 7.31027 6.80128 7.42455C6.68028 7.45144 6.66011 7.45144 6.53239 7.40438C6.45845 7.3775 6.39123 7.33044 6.30384 7.37077C6.27696 7.38422 6.25007 7.3775 6.25679 7.34389C6.27023 7.2565 6.17612 7.26322 6.13579 7.21617ZM6.31729 8.0497C6.27695 8.06987 6.23662 8.11693 6.19629 8.0497C6.1694 7.99593 6.22318 7.97576 6.25679 7.96232C6.43156 7.92199 6.33745 7.78082 6.37779 7.68671C6.39123 7.6531 6.32401 7.65982 6.2904 7.64638C6.44501 7.45816 6.49206 7.45144 6.78783 7.5926C6.74078 7.61949 6.69373 7.62621 6.63995 7.62621C6.56601 7.62621 6.5324 7.67327 6.54584 7.72705C6.55256 7.80099 6.61978 7.76065 6.65339 7.75393C6.7475 7.73376 6.84833 7.72704 6.929 7.66655C6.9895 7.61949 7.05 7.66654 7.09705 7.70688C6.94916 7.72032 6.808 7.74721 6.72061 7.8951C6.687 7.94888 6.55928 7.9892 6.48534 7.97576C6.39795 7.97576 6.36434 8.02282 6.31729 8.0497ZM7.19788 8.07659C7.04327 8.19087 6.93572 8.3522 6.76095 8.45303C6.76767 8.43958 6.76767 8.41942 6.77439 8.40597C6.78783 8.35892 6.83489 8.29842 6.78111 8.25809C6.72733 8.21103 6.68028 8.25809 6.63322 8.28498C6.566 8.31859 6.566 8.31187 6.55256 8.2312C6.51895 8.08332 6.61306 8.06315 6.71389 8.0497C6.85506 8.02954 7.00294 7.98921 7.15083 8.0161C7.18444 8.0161 7.25838 8.02954 7.19788 8.07659ZM7.19788 7.80098C7.19788 7.76065 7.10377 7.78082 7.11049 7.72032C7.21805 7.72705 7.28527 7.78754 7.33905 7.86149C7.29199 7.84132 7.18444 7.95559 7.19788 7.80098ZM7.08361 7.47833C6.92228 7.37077 6.76767 7.26994 6.60634 7.16911C6.56601 7.14222 6.51895 7.11533 6.46517 7.10861C6.04168 7.0145 5.63163 6.86661 5.20142 6.81956C5.12075 6.81284 5.04009 6.77251 4.95943 6.74562C4.77121 6.6784 4.58299 6.62462 4.3746 6.65151C4.27377 6.66495 4.28722 6.55068 4.23344 6.50363C4.19311 6.46329 4.24016 6.44313 4.26033 6.42296C4.30066 6.38263 4.34099 6.33557 4.38805 6.29524C4.42166 6.26163 4.44182 6.22802 4.48216 6.30196C4.51577 6.3759 4.56282 6.34229 4.58299 6.2818C4.60988 6.20785 4.65021 6.14063 4.71071 6.09358C4.73087 6.07341 4.77793 6.04652 4.81154 6.08685C4.83171 6.11374 4.81826 6.14736 4.79137 6.16752C4.77793 6.18097 4.75776 6.18768 4.75104 6.20113C4.7376 6.24146 4.70399 6.28852 4.74432 6.32213C4.79137 6.36246 4.79137 6.2818 4.81826 6.2818C4.97287 6.27507 4.96615 6.1608 4.97959 6.05997C4.99304 5.93225 5.11403 5.97258 5.18798 5.94569C5.26192 5.9188 5.27536 5.9793 5.28209 6.0398C5.28881 6.09358 5.28209 6.14735 5.32914 6.19441C5.38292 6.14735 5.40981 6.08013 5.38964 6.02635C5.34931 5.92552 5.42325 5.93224 5.47703 5.93224C5.54425 5.93224 5.61147 5.94569 5.65852 5.99275C5.75263 6.07341 5.84674 6.15408 5.94085 6.23474C6.02824 6.31541 6.06185 6.38935 5.96102 6.48346C5.92068 6.52379 5.95429 6.74562 6.00807 6.77251C6.0484 6.79267 6.07529 6.77923 6.08201 6.7389C6.08874 6.69857 6.08874 6.65823 6.08874 6.6179C6.08874 6.56412 6.12907 6.55068 6.1694 6.53723C6.20973 6.52379 6.2299 6.54396 6.25007 6.57085C6.49206 6.85317 6.79456 7.08844 7.04327 7.37077C7.11049 7.44471 7.2046 7.49177 7.29199 7.54555C7.35249 7.57916 7.40627 7.61949 7.45332 7.7136C7.30543 7.62621 7.19788 7.55227 7.08361 7.47833ZM6.72061 6.72545C6.77439 6.71201 6.82144 6.69856 6.8685 6.73217C6.97605 6.80612 7.03655 6.75906 7.08361 6.65823C7.10377 6.61118 7.09705 6.55068 7.17771 6.4969C7.34577 6.90695 7.47349 7.32372 7.66171 7.7136C7.35249 7.37749 6.91555 7.16239 6.72061 6.72545ZM7.56087 7.00778C7.43988 6.66496 7.21805 6.38263 6.96261 6.11374C6.84161 5.98602 6.77439 5.82469 6.78783 5.64992C6.81472 5.32054 6.80128 4.99115 6.91555 4.67522C6.96261 4.5475 7.01638 4.41978 7.07688 4.26517C7.09705 4.31894 7.10377 4.33911 7.11722 4.366C7.15083 4.43994 7.19116 4.4265 7.21805 4.366C7.25838 4.27861 7.30543 4.1845 7.33232 4.09039C7.36593 3.96267 7.17771 3.80807 7.05672 3.85512C6.98277 3.88201 6.97605 3.77445 6.90883 3.82151C6.89539 3.7879 6.90211 3.75429 6.90883 3.73412C6.95589 3.64674 6.99622 3.55263 7.05 3.47196C7.25166 3.19636 7.3861 2.88714 7.53398 2.58465C7.59448 2.64514 7.52726 2.79303 7.64826 2.7863C7.73565 2.77958 7.79615 2.67203 7.76926 2.55776C7.84992 2.73253 7.97092 2.88042 7.99109 3.06864C7.99781 3.15602 7.98437 3.24341 7.99781 3.33752C8.00453 3.41818 7.94403 3.4518 7.89026 3.47868C7.84992 3.49885 7.79615 3.49212 7.80959 3.43163C7.8432 3.31735 7.79615 3.23669 7.69532 3.18291C7.66171 3.16274 7.66171 3.14258 7.67515 3.11569C7.68859 3.07536 7.69531 3.0283 7.64154 3.01486C7.59448 3.00141 7.54743 3.0283 7.53398 3.06864C7.51382 3.13586 7.46004 3.15602 7.39954 3.18963C7.31216 3.23669 7.3256 3.3308 7.35249 3.40474C7.37938 3.47868 7.42643 3.43163 7.47349 3.41146C7.54743 3.37785 7.57432 3.44507 7.58776 3.49885C7.61465 3.61985 7.63482 3.73412 7.79615 3.76773C7.83648 3.77445 7.82976 3.81479 7.82976 3.8484C7.82304 3.95595 7.81631 4.07023 7.72221 4.15089C7.66843 4.19795 7.66171 4.25172 7.67515 4.31222C7.68859 4.40633 7.6617 4.45338 7.54743 4.43994C7.47349 4.42649 7.39954 4.43322 7.41971 4.54077C7.43988 4.62144 7.37938 4.74916 7.55415 4.73571C7.58104 4.73571 7.62137 4.70883 7.64154 4.74916C7.65498 4.76933 7.64826 4.78277 7.63482 4.79621C7.60793 4.8231 7.57432 4.80966 7.54071 4.79621C7.46677 4.77605 7.3861 4.7626 7.31888 4.71555C7.27182 4.68194 7.23821 4.68866 7.23821 4.7626C7.23821 4.84999 7.22477 4.93066 7.31216 4.99116C7.36593 5.02477 7.33904 5.07854 7.34577 5.1256C7.35921 5.19282 7.33232 5.27348 7.4466 5.30709C7.51382 5.32053 7.45332 5.38776 7.46004 5.45498C7.37938 5.35414 7.27182 5.30709 7.19116 5.22643C7.13738 5.39448 7.21805 5.55581 7.22477 5.72386C7.22477 5.75075 7.24494 5.78436 7.27182 5.77764C7.41971 5.74403 7.39282 5.85158 7.39282 5.9188C7.35921 6.42296 7.6281 6.83301 7.81631 7.26994C7.88353 7.42455 7.93059 7.57916 7.9642 7.74049C7.83648 7.49177 7.65498 7.26994 7.56087 7.00778Z" fill="#438F65"/>
<path d="M2.60689 8.19759C2.57328 8.1102 2.48589 8.04971 2.3985 8.0161C2.35145 7.99593 2.34473 8.0497 2.34473 8.09004C2.34473 8.19759 2.41195 8.26481 2.5195 8.26481C2.55311 8.25137 2.62706 8.25137 2.60689 8.19759Z" fill="#438F65"/>
<path d="M7.04351 5.00469C6.99646 5.07191 7.0099 5.16602 7.05023 5.23324C7.09057 5.30718 7.15106 5.25341 7.19812 5.21308C7.18467 5.1593 7.17123 5.10552 7.15779 5.05175C7.14434 4.99797 7.0704 4.97108 7.04351 5.00469Z" fill="#438F65"/>
<path d="M7.2652 3.49213C7.19798 3.50557 7.21815 3.55934 7.21143 3.59968C7.22487 3.63329 7.19798 3.68707 7.24504 3.68707C7.3257 3.68034 7.29209 3.59296 7.31898 3.5459C7.33915 3.51229 7.30554 3.4854 7.2652 3.49213Z" fill="#438F65"/>
<path d="M6.62661 4.55422C6.66022 4.50044 6.6535 4.43322 6.66695 4.37272C6.68039 4.31894 6.714 4.23828 6.64006 4.22483C6.58628 4.21811 6.5325 4.28533 6.51234 4.34583C6.50561 4.37944 6.50562 4.41305 6.50562 4.44666C6.50562 4.48027 6.50562 4.50716 6.50562 4.54077C6.51234 4.5811 6.50562 4.62816 6.55939 4.63488C6.61317 4.63488 6.61317 4.58111 6.62661 4.55422Z" fill="#438F65"/>
<path d="M6.44515 4.74915C6.43843 4.72226 6.42499 4.69537 6.39138 4.70209C6.35777 4.70882 6.34432 4.74242 6.35105 4.78276C6.38466 4.84326 6.34432 4.93736 6.42499 4.99786C6.44515 5.01131 6.47204 5.0382 6.49893 5.02475C6.52582 5.01131 6.52582 4.9777 6.5191 4.95081C6.49221 4.88359 6.46532 4.81637 6.44515 4.74915Z" fill="#438F65"/>
<path d="M5.57117 6.61781C5.53083 6.61108 5.51739 6.65142 5.52411 6.68503C5.53083 6.73208 5.52411 6.80603 5.58461 6.81275C5.63839 6.81947 5.62494 6.75225 5.63839 6.71864C5.63839 6.66486 5.63166 6.61781 5.57117 6.61781Z" fill="#438F65"/>
<path d="M11.621 6.1405C11.5672 6.14723 11.5134 6.16067 11.5 6.21445C11.4798 6.29511 11.4731 6.38922 11.5403 6.44299C11.6277 6.52366 11.6478 6.63122 11.6344 6.7186C11.6075 6.85304 11.668 6.96059 11.6815 7.08159C11.6882 7.16226 11.7352 7.20932 11.8226 7.19587C11.863 7.20932 11.9033 7.20931 11.9235 7.18242C12.0041 7.06815 12.0512 6.94715 12.0444 6.81271C12.0243 6.57072 11.8226 6.40938 11.7352 6.201C11.7151 6.15394 11.6747 6.1405 11.621 6.1405Z" fill="#438F65"/>
<path d="M10.3302 6.26171C10.3168 6.22138 10.2899 6.22138 10.2495 6.22138C10.0882 6.21466 10.0479 6.25499 10.0344 6.48354C10.1285 6.42976 10.2092 6.38943 10.2899 6.34238C10.3235 6.32221 10.3369 6.29533 10.3302 6.26171Z" fill="#438F65"/>
<path d="M10.6801 3.96937C10.7137 3.96937 10.7339 3.92904 10.7339 3.90215C10.7339 3.86854 10.6936 3.8551 10.6599 3.84838C10.6263 3.84165 10.5994 3.83493 10.5524 3.82821C10.6532 3.72738 10.5793 3.64671 10.5591 3.55933C10.4852 3.57277 10.4717 3.63327 10.4314 3.66688C10.2835 3.7946 10.2902 3.82821 10.4919 4.02315C10.5726 4.10382 10.6129 3.9761 10.6801 3.96937Z" fill="#438F65"/>
<path d="M10.2899 4.59447C10.263 4.66169 10.2092 4.71547 10.2361 4.79614C10.2361 4.80286 10.2563 4.80958 10.263 4.8163C10.3235 4.8163 10.4781 4.62808 10.4646 4.57431C10.4579 4.5407 10.431 4.5407 10.4041 4.53398C10.3436 4.52725 10.31 4.54742 10.2899 4.59447Z" fill="#438F65"/>
</g>
<defs>
<clipPath id="clip0_319_715">
<rect width="16" height="16" fill="white"/>
</clipPath>
</defs>
</svg>
